<svg width="4838" height="4212" viewBox="0 0 4838 4212" fill="none" xmlns="http://www.w3.org/2000/svg">
<path d="M3653.44 1635.94C3691.39 1627.01 3725.84 1607.03 3752.44 1578.51L3815.89 1600.03L3847.48 1545.21L3797.26 1501.02C3808.54 1463.63 3808.54 1423.75 3797.26 1386.36L3847.48 1342.17L3815.89 1287.27L3752.44 1308.78C3725.86 1280.26 3691.4 1260.3 3653.44 1251.45L3640.3 1185.75H3608.62" stroke="#263238" stroke-miterlimit="10"/>
<path d="M3576.75 1185.75L3563.61 1251.45C3525.66 1260.32 3491.2 1280.28 3464.61 1308.78L3401.61 1287.27L3370.02 1342.17L3420.24 1386.36C3408.96 1423.75 3408.96 1463.63 3420.24 1501.02L3369.75 1545.21L3401.34 1600.03L3464.34 1578.51C3490.95 1607.01 3525.4 1626.99 3563.34 1635.94L3576.48 1701.55H3639.49L3652.63 1635.94" stroke="#263238" stroke-miterlimit="10"/>
<path d="M3604.57 1549.26C3491.7 1541.34 3470.55 1377 3583.33 1348.11" stroke="#263238" stroke-miterlimit="10"/>
<path d="M3675.76 1370.79C3731.92 1422.18 3714.19 1522.62 3639.76 1545.3" stroke="#263238" stroke-miterlimit="10"/>
<path d="M3621.76 1345.86C3631.58 1347.02 3641.16 1349.66 3650.2 1353.69" stroke="#263238" stroke-miterlimit="10"/>
<path d="M3989.68 1685.89L4003 1669.96C4027.81 1676.76 4054.08 1676.1 4078.52 1668.07L4108.4 1700.38" stroke="#263238" stroke-miterlimit="10"/>
<path d="M3940.45 1436.49L3946.3 1452.24C3928.02 1470.31 3915.49 1493.39 3910.3 1518.57L3867.37 1528.38L3868.36 1570.06L3911.83 1577.62C3915.08 1589.98 3920.11 1601.81 3926.77 1612.72C3933.44 1623.63 3941.69 1633.48 3951.25 1641.97L3938.2 1684.09L3974.83 1703.98" stroke="#263238" stroke-miterlimit="10"/>
<path d="M4108.4 1700.38L4143.77 1678.6L4128.65 1637.2C4146.91 1619.1 4159.43 1596.03 4164.65 1570.86L4207.58 1561.14L4206.5 1519.47L4163.12 1511.91C4156.63 1487.04 4142.91 1464.64 4123.7 1447.56L4136.75 1405.44L4100.12 1385.55L4071.77 1419.39C4047 1412.5 4020.74 1413.16 3996.34 1421.28L3966.37 1388.97L3930.82 1410.75" stroke="#263238" stroke-miterlimit="10"/>
<path d="M4103.09 1529.38C4115.42 1581.04 4066.28 1630.81 4014.34 1609.84C3964.84 1589.77 3957.64 1517.13 4003.63 1489.23" stroke="#263238" stroke-miterlimit="10"/>
<path d="M4060.61 1482.93C4070.96 1486.61 4080.24 1492.79 4087.61 1500.93" stroke="#263238" stroke-miterlimit="10"/>
<path d="M1208.08 2552.52L1275.77 2620.11C1272.89 2632.19 1273.16 2644.8 1276.54 2656.75C1279.93 2668.69 1286.31 2679.57 1295.09 2688.35C1303.87 2697.13 1314.75 2703.52 1326.7 2706.9C1338.64 2710.28 1351.26 2710.55 1363.34 2707.68L1320.86 2665.29L1332.38 2622.27L1375.31 2610.75L1417.79 2653.23C1420.66 2641.15 1420.39 2628.54 1417.01 2616.59C1413.63 2604.64 1407.24 2593.76 1398.46 2584.98C1389.68 2576.2 1378.8 2569.82 1366.85 2566.44C1354.91 2563.05 1342.3 2562.78 1330.22 2565.66L1267.94 2503.38" stroke="#263238" stroke-miterlimit="10"/>
<path d="M1169.02 2404.73L1107.01 2342.72C1109.76 2330.67 1109.4 2318.11 1105.96 2306.23C1102.53 2294.35 1096.12 2283.54 1087.35 2274.82C1078.59 2266.1 1067.75 2259.75 1055.85 2256.37C1043.95 2252.99 1031.39 2252.7 1019.35 2255.51L1061.83 2297.99L1050.31 2340.92L1007.38 2352.44L964.898 2309.51C962.054 2321.6 962.344 2334.21 965.742 2346.16C969.14 2358.1 975.532 2368.98 984.313 2377.76C993.093 2386.54 1003.97 2392.93 1015.92 2396.33C1027.86 2399.73 1040.47 2400.02 1052.56 2397.17L1114.57 2459.18" stroke="#263238" stroke-miterlimit="10"/>
<path d="M1238.68 2469.98L1325.18 2383.49C1329.45 2379.25 1334.33 2375.67 1339.67 2372.87L1357.04 2363.87L1420.04 2291.87L1380.71 2253.17L1308.71 2316.17L1299.71 2333.54C1296.96 2338.91 1293.38 2343.8 1289.09 2348.03L1220.5 2416.7" stroke="#263238" stroke-miterlimit="10"/>
<path d="M1008.46 2696.52C1014.33 2700.25 1021.34 2701.77 1028.23 2700.82C1035.12 2699.86 1041.45 2696.49 1046.08 2691.3L1195.93 2541.45C1199.51 2538.23 1202.22 2534.15 1203.79 2529.6C1205.36 2525.05 1205.76 2520.18 1204.93 2515.44L1230.94 2489.42L1232.56 2490.95C1233.45 2491.86 1234.51 2492.57 1235.68 2493.06C1236.84 2493.55 1238.09 2493.8 1239.36 2493.8C1240.62 2493.8 1241.88 2493.55 1243.04 2493.06C1244.21 2492.57 1245.27 2491.86 1246.15 2490.95C1247.93 2489.14 1248.92 2486.7 1248.92 2484.16C1248.92 2481.62 1247.93 2479.18 1246.15 2477.36L1194.85 2426.06C1193.04 2424.26 1190.58 2423.25 1188.03 2423.26C1185.47 2423.27 1183.02 2424.29 1181.22 2426.11C1179.42 2427.92 1178.41 2430.38 1178.42 2432.94C1178.43 2435.49 1179.45 2437.94 1181.26 2439.74L1182.88 2441.27L1156.87 2467.28C1152.13 2466.45 1147.25 2466.84 1142.7 2468.42C1138.15 2469.99 1134.08 2472.7 1130.86 2476.28L981.189 2626.77C977.743 2629.84 975.08 2633.68 973.421 2637.99C971.761 2642.29 971.154 2646.93 971.649 2651.52" stroke="#263238" stroke-miterlimit="10"/>
<path d="M977.679 2667.36C981.193 2672.96 985.362 2678.13 990.099 2682.75C995.376 2688.31 1001.44 2693.07 1008.1 2696.88" stroke="#263238" stroke-miterlimit="10"/>
<path d="M1023.76 2651.43L1049.95 2625.24" stroke="#263238" stroke-miterlimit="10"/>
<path d="M1085.32 2589.87L1196.02 2476.82" stroke="#263238" stroke-miterlimit="10"/>
<path d="M3500.79 678.316H1101.34V2237.15H3500.79V678.316Z" fill="white"/>
<path d="M3500.79 678.316H1101.34V2237.15H1355.06H1757.28H3500.79V678.316Z" fill="#BFBFBF"/>
<path d="M3500.79 678.316H1101.34V882.261H3500.79V678.316Z" fill="white"/>
<path d="M3500.79 678.316H1101.34V882.261H3500.79V678.316Z" fill="#757575"/>
<path d="M3363.81 972.262H1238.32C1212.38 972.262 1191.34 993.296 1191.34 1019.24V2100.17C1191.34 2126.11 1212.38 2147.15 1238.32 2147.15H3363.81C3389.76 2147.15 3410.79 2126.11 3410.79 2100.17V1019.24C3410.79 993.296 3389.76 972.262 3363.81 972.262Z" fill="#263238" stroke="#263238" stroke-linecap="round" stroke-linejoin="round"/>
<path d="M3271.29 1770.94H3113.51C3108.74 1770.94 3104.16 1769.04 3100.79 1765.67C3097.41 1762.29 3095.51 1757.71 3095.51 1752.94C3095.51 1748.16 3097.41 1743.59 3100.79 1740.21C3104.16 1736.83 3108.74 1734.94 3113.51 1734.94H3271.29C3276.06 1734.94 3280.64 1736.83 3284.02 1740.21C3287.39 1743.59 3289.29 1748.16 3289.29 1752.94C3289.29 1757.71 3287.39 1762.29 3284.02 1765.67C3280.64 1769.04 3276.06 1770.94 3271.29 1770.94Z" fill="#757575"/>
<path d="M3271.29 1895.5H2830.91C2826.13 1895.5 2821.56 1893.6 2818.18 1890.23C2814.8 1886.85 2812.91 1882.27 2812.91 1877.5C2812.91 1872.73 2814.8 1868.15 2818.18 1864.77C2821.56 1861.4 2826.13 1859.5 2830.91 1859.5H3271.29C3276.06 1859.5 3280.64 1861.4 3284.02 1864.77C3287.39 1868.15 3289.29 1872.73 3289.29 1877.5C3289.29 1882.27 3287.39 1886.85 3284.02 1890.23C3280.64 1893.6 3276.06 1895.5 3271.29 1895.5Z" fill="#757575"/>
<path d="M3271.29 2019.98H2301.07C2296.29 2019.98 2291.71 2018.08 2288.34 2014.71C2284.96 2011.33 2283.07 2006.75 2283.07 2001.98C2283.07 1997.2 2284.96 1992.62 2288.34 1989.25C2291.71 1985.87 2296.29 1983.98 2301.07 1983.98H3271.29C3276.06 1983.98 3280.64 1985.87 3284.02 1989.25C3287.39 1992.62 3289.29 1997.2 3289.29 2001.98C3289.29 2006.75 3287.39 2011.33 3284.02 2014.71C3280.64 2018.08 3276.06 2019.98 3271.29 2019.98Z" fill="#757575"/>
<path d="M1357.85 1646.47H1284.32C1279.54 1646.47 1274.96 1644.57 1271.59 1641.19C1268.21 1637.82 1266.31 1633.24 1266.31 1628.47C1266.31 1623.69 1268.21 1619.11 1271.59 1615.74C1274.96 1612.36 1279.54 1610.46 1284.32 1610.46H1357.85C1362.62 1610.46 1367.2 1612.36 1370.58 1615.74C1373.95 1619.11 1375.85 1623.69 1375.85 1628.47C1375.85 1633.24 1373.95 1637.82 1370.58 1641.19C1367.2 1644.57 1362.62 1646.47 1357.85 1646.47Z" fill="#BFBFBF"/>
<path d="M1357.85 1770.94H1284.32C1279.54 1770.94 1274.96 1769.04 1271.59 1765.67C1268.21 1762.29 1266.31 1757.71 1266.31 1752.94C1266.31 1748.16 1268.21 1743.59 1271.59 1740.21C1274.96 1736.83 1279.54 1734.94 1284.32 1734.94H1357.85C1362.62 1734.94 1367.2 1736.83 1370.58 1740.21C1373.95 1743.59 1375.85 1748.16 1375.85 1752.94C1375.85 1757.71 1373.95 1762.29 1370.58 1765.67C1367.2 1769.04 1362.62 1770.94 1357.85 1770.94Z" fill="#BFBFBF"/>
<path d="M1357.85 1895.5H1284.32C1279.54 1895.5 1274.96 1893.6 1271.59 1890.23C1268.21 1886.85 1266.31 1882.27 1266.31 1877.5C1266.31 1872.73 1268.21 1868.15 1271.59 1864.77C1274.96 1861.4 1279.54 1859.5 1284.32 1859.5H1357.85C1362.62 1859.5 1367.2 1861.4 1370.58 1864.77C1373.95 1868.15 1375.85 1872.73 1375.85 1877.5C1375.85 1882.27 1373.95 1886.85 1370.58 1890.23C1367.2 1893.6 1362.62 1895.5 1357.85 1895.5Z" fill="#BFBFBF"/>
<path d="M1357.85 2019.98H1284.32C1279.54 2019.98 1274.96 2018.08 1271.59 2014.71C1268.21 2011.33 1266.31 2006.75 1266.31 2001.98C1266.31 1997.2 1268.21 1992.62 1271.59 1989.25C1274.96 1985.87 1279.54 1983.98 1284.32 1983.98H1357.85C1362.62 1983.98 1367.2 1985.87 1370.58 1989.25C1373.95 1992.62 1375.85 1997.2 1375.85 2001.98C1375.85 2006.75 1373.95 2011.33 1370.58 2014.71C1367.2 2018.08 1362.62 2019.98 1357.85 2019.98Z" fill="#BFBFBF"/>
<g opacity="0.7">
<path d="M1357.85 1646.47H1284.32C1279.54 1646.47 1274.96 1644.57 1271.59 1641.19C1268.21 1637.82 1266.31 1633.24 1266.31 1628.47C1266.31 1623.69 1268.21 1619.11 1271.59 1615.74C1274.96 1612.36 1279.54 1610.46 1284.32 1610.46H1357.85C1362.62 1610.46 1367.2 1612.36 1370.58 1615.74C1373.95 1619.11 1375.85 1623.69 1375.85 1628.47C1375.85 1633.24 1373.95 1637.82 1370.58 1641.19C1367.2 1644.57 1362.62 1646.47 1357.85 1646.47Z" fill="#BFBFBF"/>
</g>
<g opacity="0.7">
<path d="M1357.85 1770.94H1284.32C1279.54 1770.94 1274.96 1769.04 1271.59 1765.67C1268.21 1762.29 1266.31 1757.71 1266.31 1752.94C1266.31 1748.16 1268.21 1743.59 1271.59 1740.21C1274.96 1736.83 1279.54 1734.94 1284.32 1734.94H1357.85C1362.62 1734.94 1367.2 1736.83 1370.58 1740.21C1373.95 1743.59 1375.85 1748.16 1375.85 1752.94C1375.85 1757.71 1373.95 1762.29 1370.58 1765.67C1367.2 1769.04 1362.62 1770.94 1357.85 1770.94Z" fill="#BFBFBF"/>
</g>
<g opacity="0.7">
<path d="M1357.85 1895.5H1284.32C1279.54 1895.5 1274.96 1893.6 1271.59 1890.23C1268.21 1886.85 1266.31 1882.27 1266.31 1877.5C1266.31 1872.73 1268.21 1868.15 1271.59 1864.77C1274.96 1861.4 1279.54 1859.5 1284.32 1859.5H1357.85C1362.62 1859.5 1367.2 1861.4 1370.58 1864.77C1373.95 1868.15 1375.85 1872.73 1375.85 1877.5C1375.85 1882.27 1373.95 1886.85 1370.58 1890.23C1367.2 1893.6 1362.62 1895.5 1357.85 1895.5Z" fill="#BFBFBF"/>
</g>
<g opacity="0.7">
<path d="M1357.85 2019.98H1284.32C1279.54 2019.98 1274.96 2018.08 1271.59 2014.71C1268.21 2011.33 1266.31 2006.75 1266.31 2001.98C1266.31 1997.2 1268.21 1992.62 1271.59 1989.25C1274.96 1985.87 1279.54 1983.98 1284.32 1983.98H1357.85C1362.62 1983.98 1367.2 1985.87 1370.58 1989.25C1373.95 1992.62 1375.85 1997.2 1375.85 2001.98C1375.85 2006.75 1373.95 2011.33 1370.58 2014.71C1367.2 2018.08 1362.62 2019.98 1357.85 2019.98Z" fill="#BFBFBF"/>
</g>
<path d="M2830.91 1521.9H1284.32C1279.54 1521.9 1274.96 1520.01 1271.59 1516.63C1268.21 1513.26 1266.31 1508.68 1266.31 1503.9C1266.31 1499.13 1268.21 1494.55 1271.59 1491.17C1274.96 1487.8 1279.54 1485.9 1284.32 1485.9H2830.91C2835.68 1485.9 2840.26 1487.8 2843.64 1491.17C2847.01 1494.55 2848.91 1499.13 2848.91 1503.9C2848.91 1508.68 2847.01 1513.26 2843.64 1516.63C2840.26 1520.01 2835.68 1521.9 2830.91 1521.9Z" fill="#FF0088"/>
<path d="M3271.29 1272.96H3113.51C3108.74 1272.96 3104.16 1271.06 3100.79 1267.69C3097.41 1264.31 3095.51 1259.73 3095.51 1254.96C3095.51 1250.18 3097.41 1245.6 3100.79 1242.23C3104.16 1238.85 3108.74 1236.96 3113.51 1236.96H3271.29C3276.06 1236.96 3280.64 1238.85 3284.02 1242.23C3287.39 1245.6 3289.29 1250.18 3289.29 1254.96C3289.29 1259.73 3287.39 1264.31 3284.02 1267.69C3280.64 1271.06 3276.06 1272.96 3271.29 1272.96Z" fill="#BFBFBF"/>
<path d="M3047.54 1272.96H2896.88C2892.11 1272.96 2887.53 1271.06 2884.15 1267.69C2880.78 1264.31 2878.88 1259.73 2878.88 1254.96C2878.88 1250.18 2880.78 1245.6 2884.15 1242.23C2887.53 1238.85 2892.11 1236.96 2896.88 1236.96H3047.54C3052.32 1236.96 3056.9 1238.85 3060.27 1242.23C3063.65 1245.6 3065.54 1250.18 3065.54 1254.96C3065.54 1259.73 3063.65 1264.31 3060.27 1267.69C3056.9 1271.06 3052.32 1272.96 3047.54 1272.96Z" fill="#BFBFBF"/>
<path d="M2830.91 1272.96H1284.32C1279.54 1272.96 1274.96 1271.06 1271.59 1267.69C1268.21 1264.31 1266.31 1259.73 1266.31 1254.96C1266.31 1250.18 1268.21 1245.6 1271.59 1242.23C1274.96 1238.85 1279.54 1236.96 1284.32 1236.96H2830.91C2835.68 1236.96 2840.26 1238.85 2843.64 1242.23C2847.01 1245.6 2848.91 1250.18 2848.91 1254.96C2848.91 1259.73 2847.01 1264.31 2843.64 1267.69C2840.26 1271.06 2835.68 1272.96 2830.91 1272.96Z" fill="#2824D5"/>
<path d="M3271.29 1646.47H3113.51C3108.74 1646.47 3104.16 1644.57 3100.79 1641.19C3097.41 1637.82 3095.51 1633.24 3095.51 1628.47C3095.51 1623.69 3097.41 1619.11 3100.79 1615.74C3104.16 1612.36 3108.74 1610.46 3113.51 1610.46H3271.29C3276.06 1610.46 3280.64 1612.36 3284.02 1615.74C3287.39 1619.11 3289.29 1623.69 3289.29 1628.47C3289.29 1633.24 3287.39 1637.82 3284.02 1641.19C3280.64 1644.57 3276.06 1646.47 3271.29 1646.47Z" fill="#999999"/>
<path d="M3047.54 1646.47H1438.85C1434.07 1646.47 1429.5 1644.57 1426.12 1641.19C1422.74 1637.82 1420.85 1633.24 1420.85 1628.47C1420.85 1623.69 1422.74 1619.11 1426.12 1615.74C1429.5 1612.36 1434.07 1610.46 1438.85 1610.46H3047.54C3052.32 1610.46 3056.9 1612.36 3060.27 1615.74C3063.65 1619.11 3065.54 1623.69 3065.54 1628.47C3065.54 1633.24 3063.65 1637.82 3060.27 1641.19C3056.9 1644.57 3052.32 1646.47 3047.54 1646.47Z" fill="#FDB600"/>
<path d="M1900.83 1770.94H1438.85C1434.07 1770.94 1429.5 1769.04 1426.12 1765.67C1422.74 1762.29 1420.85 1757.71 1420.85 1752.94C1420.85 1748.16 1422.74 1743.59 1426.12 1740.21C1429.5 1736.83 1434.07 1734.94 1438.85 1734.94H1900.83C1905.6 1734.94 1910.18 1736.83 1913.56 1740.21C1916.93 1743.59 1918.83 1748.16 1918.83 1752.94C1918.83 1757.71 1916.93 1762.29 1913.56 1765.67C1910.18 1769.04 1905.6 1770.94 1900.83 1770.94Z" fill="#FF0088"/>
<path d="M1900.83 1895.5H1438.85C1434.07 1895.5 1429.5 1893.6 1426.12 1890.23C1422.74 1886.85 1420.85 1882.27 1420.85 1877.5C1420.85 1872.73 1422.74 1868.15 1426.12 1864.77C1429.5 1861.4 1434.07 1859.5 1438.85 1859.5H1900.83C1905.6 1859.5 1910.18 1861.4 1913.56 1864.77C1916.93 1868.15 1918.83 1872.73 1918.83 1877.5C1918.83 1882.27 1916.93 1886.85 1913.56 1890.23C1910.18 1893.6 1905.6 1895.5 1900.83 1895.5Z" fill="#2824D5"/>
<path d="M1900.83 2019.98H1438.85C1434.07 2019.98 1429.5 2018.08 1426.12 2014.71C1422.74 2011.33 1420.85 2006.75 1420.85 2001.98C1420.85 1997.2 1422.74 1992.62 1426.12 1989.25C1429.5 1985.87 1434.07 1983.98 1438.85 1983.98H1900.83C1905.6 1983.98 1910.18 1985.87 1913.56 1989.25C1916.93 1992.62 1918.83 1997.2 1918.83 2001.98C1918.83 2006.75 1916.93 2011.33 1913.56 2014.71C1910.18 2018.08 1905.6 2019.98 1900.83 2019.98Z" fill="#2824D5"/>
<path d="M1597.43 3616.7C1597.43 3616.7 1550.27 3697.7 1568.81 3700.85C1587.35 3704 1626.32 3633.53 1626.32 3633.53L1732.98 3605.54L1652.6 3597.26L1597.43 3616.7Z" fill="white" stroke="#263238" stroke-linecap="round" stroke-linejoin="round"/>
<path opacity="0.3" d="M1597.43 3616.7C1597.43 3616.7 1550.27 3697.7 1568.81 3700.85C1587.35 3704 1626.32 3633.53 1626.32 3633.53L1732.98 3605.54L1652.6 3597.26L1597.43 3616.7Z" fill="black" stroke="#263238" stroke-linecap="round" stroke-linejoin="round"/>
<path d="M1633.34 3561.26C1633.34 3561.26 1567.28 3545.6 1549.1 3576.56C1530.92 3607.52 1477.1 3699.41 1497.44 3709.85C1517.78 3720.29 1534.97 3686.45 1534.97 3686.45L1633.34 3561.26Z" fill="white" stroke="#263238" stroke-linecap="round" stroke-linejoin="round"/>
<path d="M1903.53 3655.4C1860.2 3670.38 1814.02 3675.24 1768.53 3669.62L1693.37 3694.64C1693.37 3694.64 1627.31 3727.13 1596.53 3710.75C1565.75 3694.37 1674.83 3658.19 1674.83 3658.19C1674.83 3658.19 1748.19 3626.42 1726.31 3618.77C1704.44 3611.12 1621.64 3612.65 1605.44 3625.07C1589.24 3637.49 1546.49 3718.4 1515.44 3713.72C1484.39 3709.04 1528.4 3665.12 1539.47 3648.2C1550.54 3631.28 1575.47 3563.78 1625.51 3560.9C1675.55 3558.02 1844.85 3566.75 1844.85 3566.75L2043.66 3545.51L2090.55 3658.64L1903.53 3655.4Z" fill="white" stroke="#263238" stroke-linecap="round" stroke-linejoin="round"/>
<path d="M2007.3 3683.39C2012.84 3687.37 2019.51 3689.47 2026.34 3689.37C2033.16 3689.27 2039.77 3686.99 2045.19 3682.85C2051.18 3685.4 2057.79 3686.13 2064.2 3684.95C2070.6 3683.76 2076.51 3680.72 2081.19 3676.19C2095.68 3660.26 2096.94 3520.49 2056.8 3504.74C2045.19 3500.24 2016.21 3500.69 2011.8 3516.89C2008.71 3515.63 2005.36 3515.13 2002.04 3515.41C1998.71 3515.68 1995.5 3516.74 1992.66 3518.5C1989.82 3520.25 1987.43 3522.65 1985.69 3525.5C1983.95 3528.34 1982.9 3531.56 1982.64 3534.89C1978.68 3560.09 2003.7 3583.58 1995.33 3656.03C1994.6 3661.25 1995.34 3666.57 1997.45 3671.4C1999.56 3676.23 2002.97 3680.38 2007.3 3683.39Z" fill="#407BFF" stroke="#263238" stroke-linecap="round" stroke-linejoin="round"/>
<path opacity="0.3" d="M2007.3 3683.39C2012.84 3687.37 2019.51 3689.47 2026.34 3689.37C2033.16 3689.27 2039.77 3686.99 2045.19 3682.85C2051.18 3685.4 2057.79 3686.13 2064.2 3684.95C2070.6 3683.76 2076.51 3680.72 2081.19 3676.19C2095.68 3660.26 2096.94 3520.49 2056.8 3504.74C2045.19 3500.24 2016.21 3500.69 2011.8 3516.89C2008.71 3515.63 2005.36 3515.13 2002.04 3515.41C1998.71 3515.68 1995.5 3516.74 1992.66 3518.5C1989.82 3520.25 1987.43 3522.65 1985.69 3525.5C1983.95 3528.34 1982.9 3531.56 1982.64 3534.89C1978.68 3560.09 2003.7 3583.58 1995.33 3656.03C1994.6 3661.25 1995.34 3666.57 1997.45 3671.4C1999.56 3676.23 2002.97 3680.38 2007.3 3683.39Z" fill="black" stroke="#263238" stroke-linecap="round" stroke-linejoin="round"/>
<path d="M2053.2 3650.54C2053.16 3612.47 2045.06 3574.83 2029.44 3540.11" stroke="#263238" stroke-linecap="round" stroke-linejoin="round"/>
<path d="M2999.39 3600.05C2992.73 3651.26 2985.17 3706.7 2976.53 3766.91H2203.96L2207.65 3667.37C2161.47 3678.53 2071.74 3671.69 2071.74 3671.69V3524.54C2126.28 3493.67 2134.74 3502.31 2134.74 3502.31C2134.74 3502.31 2137.53 3143.2 2170.2 3053.56C2182.67 3019.8 2204.92 2990.54 2234.11 2969.5C2241.88 2963.71 2250.03 2958.45 2258.5 2953.75L2259.67 2953.03C2268.67 2948.26 2279.56 2943.22 2291.98 2938L2295.4 2936.65C2416.36 2887.24 2680.34 2829.9 2926.31 2935.03C2943.5 2942.41 3083.9 3009.46 3095.87 3106.03C3102.35 3161.56 3064.73 3436.43 2999.39 3600.05Z" fill="#407BFF"/>
<mask id="mask0_1067_3934" style="mask-type:luminance" maskUnits="userSpaceOnUse" x="2071" y="2875" width="1026" height="892">
<path d="M2999.39 3600.05C2992.73 3651.26 2985.17 3706.7 2976.53 3766.91H2203.96L2207.65 3667.37C2161.47 3678.53 2071.74 3671.69 2071.74 3671.69V3524.54C2126.28 3493.67 2134.74 3502.31 2134.74 3502.31C2134.74 3502.31 2137.53 3143.2 2170.2 3053.56C2182.67 3019.8 2204.92 2990.54 2234.11 2969.5C2241.88 2963.71 2250.03 2958.45 2258.5 2953.75L2259.67 2953.03C2268.67 2948.26 2279.56 2943.22 2291.98 2938L2295.4 2936.65C2416.36 2887.24 2680.34 2829.9 2926.31 2935.03C2943.5 2942.41 3083.9 3009.46 3095.87 3106.03C3102.35 3161.56 3064.73 3436.43 2999.39 3600.05Z" fill="white"/>
</mask>
<g mask="url(#mask0_1067_3934)">
<path opacity="0.2" d="M2876.99 3157.33L2799.95 3514.91C2787.98 3505.46 2753.51 3504.83 2709.95 3508.97C2719.42 3498.56 2727.27 3486.79 2733.26 3474.05C2849.45 3222.04 2874.74 3162.37 2876.99 3157.33Z" fill="black"/>
<path opacity="0.2" d="M3017.75 3550.19C2998.99 3621.38 2985.22 3693.8 2976.53 3766.91H2203.96L2211.07 3652.25C2259.22 3645.41 2343.73 3638.39 2431.48 3622.82C2438.21 3650.27 2438.92 3678.86 2433.55 3706.61C2433.55 3706.61 2788.88 3750.71 2908.13 3722C2942.15 3713.81 2972.93 3666.29 2999.3 3600.86C3005.69 3584.93 3011.81 3567.92 3017.75 3550.19Z" fill="black"/>
<path opacity="0.3" d="M2143.65 3509.06C2143.65 3509.06 2126.28 3493.67 2071.65 3524.54V3671.69C2071.65 3671.69 2161.65 3668.54 2196.94 3649.37C2227.36 3668.18 2221.96 3323.74 2227.36 3138.25C2183.25 3150.4 2179.74 3234.28 2172.9 3313.21C2167.26 3379.04 2157.49 3444.45 2143.65 3509.06Z" fill="black"/>
</g>
<path d="M2999.39 3600.05C2992.73 3651.26 2985.17 3706.7 2976.53 3766.91H2203.96L2207.65 3667.37C2161.47 3678.53 2071.74 3671.69 2071.74 3671.69V3524.54C2126.28 3493.67 2134.74 3502.31 2134.74 3502.31C2134.74 3502.31 2137.53 3143.2 2170.2 3053.56C2182.67 3019.8 2204.92 2990.54 2234.11 2969.5C2241.88 2963.71 2250.03 2958.45 2258.5 2953.75L2259.67 2953.03C2268.67 2948.26 2279.56 2943.22 2291.98 2938L2295.4 2936.65C2416.36 2887.24 2680.34 2829.9 2926.31 2935.03C2943.5 2942.41 3083.9 3009.46 3095.87 3106.03C3102.35 3161.56 3064.73 3436.43 2999.39 3600.05Z" stroke="#263238" stroke-linecap="round" stroke-linejoin="round"/>
<path d="M3095.51 3106.3C3095.51 3108.46 3096.05 3110.98 3096.14 3113.77C3100.1 3182.89 3062.48 3443.72 2999.3 3600.86C2972.93 3666.29 2942.15 3713.81 2908.13 3722C2788.88 3750.71 2433.55 3706.61 2433.55 3706.61C2442.83 3657.85 2433.34 3607.38 2407 3565.31C2407 3565.31 2755.85 3479.99 2799.95 3514.91L2877.17 3156.97" stroke="#263238" stroke-linecap="round" stroke-linejoin="round"/>
<path d="M2824.25 3534.44C2849.12 3546.39 2870.43 3564.63 2886.08 3587.36" stroke="#263238" stroke-linecap="round" stroke-linejoin="round"/>
<path d="M1935.57 3547.22C1935.57 3547.22 1902.99 3540.38 1889.76 3555.23C1876.53 3570.08 1819.83 3655.22 1839 3671.42C1858.17 3687.62 1897.14 3598.61 1897.14 3598.61L1935.57 3547.22Z" fill="white" stroke="#263238" stroke-linecap="round" stroke-linejoin="round"/>
<path d="M2000.91 3545.69C2000.91 3545.69 1928.91 3530.21 1912.44 3552.26C1895.97 3574.31 1805.16 3688.43 1861.86 3692.03L1951.86 3590.51L2000.91 3545.69Z" fill="white" stroke="#263238" stroke-linecap="round" stroke-linejoin="round"/>
<path d="M2164.17 3667.01C2164.17 3667.01 2089.92 3683.21 2059.77 3689.15C2029.62 3695.09 1973.64 3734.15 1940.52 3718.58C1907.4 3703.01 2048.52 3645.68 2048.52 3645.68L2097.12 3626.15L2164.17 3667.01Z" fill="#BFBFBF" stroke="#263238" stroke-linecap="round" stroke-linejoin="round"/>
<path d="M2224.3 3222.76C2225.38 3194.59 2226.37 3166.42 2227.45 3138.25" stroke="#263238" stroke-linecap="round" stroke-linejoin="round"/>
<path d="M2203.96 3766.91C2217.73 3596.54 2222.86 3261.1 2222.86 3261.1" stroke="#263238" stroke-linecap="round" stroke-linejoin="round"/>
<path d="M2433.73 3575.12H2177.49C2177.49 3575.12 1978.77 3515.45 1945.74 3561.8C1912.71 3608.15 1841.97 3678.8 1861.86 3692.03C1881.75 3705.26 1965.72 3609.32 1965.72 3609.32L2038.62 3609.95C2038.62 3609.95 1976.79 3636.95 1963.56 3650.09C1950.33 3663.23 1921.62 3700.85 1936.56 3707.51C1951.5 3714.17 2000.64 3665.57 2000.64 3665.57C2000.64 3665.57 2073.45 3647.57 2091.09 3656.57C2147.7 3685.54 2213.18 3691.97 2274.34 3674.57L2469.73 3698.87L2433.73 3575.12Z" fill="white" stroke="#263238" stroke-linecap="round" stroke-linejoin="round"/>
<path d="M2850.44 3280.9C2843.38 3239.91 2843.1 3198.04 2849.63 3156.97" stroke="#263238" stroke-linecap="round" stroke-linejoin="round"/>
<path d="M2908.49 3066.25C2908.49 3066.25 3032.69 2902.63 3095.51 3106.3" stroke="#263238" stroke-linecap="round" stroke-linejoin="round"/>
<path d="M2380.99 3554.87C2385.38 3549.64 2391.33 3545.95 2397.97 3544.33C2404.6 3542.71 2411.58 3543.25 2417.89 3545.87C2423.05 3541.89 2429.28 3539.53 2435.78 3539.08C2442.28 3538.63 2448.77 3540.12 2454.43 3543.35C2472.43 3555.23 2508.43 3690.23 2473.42 3715.52C2463.34 3722.72 2435.17 3729.47 2426.53 3714.98C2423.83 3716.97 2420.69 3718.29 2417.38 3718.84C2414.07 3719.39 2410.68 3719.15 2407.48 3718.15C2404.28 3717.14 2401.36 3715.39 2398.96 3713.04C2396.56 3710.69 2394.75 3707.81 2393.68 3704.63C2383.6 3681.14 2402.05 3652.25 2375.68 3584.12C2373.81 3579.22 2373.32 3573.91 2374.25 3568.75C2375.19 3563.6 2377.52 3558.79 2380.99 3554.87Z" fill="#407BFF"/>
<mask id="mask1_1067_3934" style="mask-type:luminance" maskUnits="userSpaceOnUse" x="2373" y="3539" width="116" height="185">
<path d="M2380.99 3554.87C2385.38 3549.64 2391.33 3545.95 2397.97 3544.33C2404.6 3542.71 2411.58 3543.25 2417.89 3545.87C2423.05 3541.89 2429.28 3539.53 2435.78 3539.08C2442.28 3538.63 2448.77 3540.12 2454.43 3543.35C2472.43 3555.23 2508.43 3690.23 2473.42 3715.52C2463.34 3722.72 2435.17 3729.47 2426.53 3714.98C2423.83 3716.97 2420.69 3718.29 2417.38 3718.84C2414.07 3719.39 2410.68 3719.15 2407.48 3718.15C2404.28 3717.14 2401.36 3715.39 2398.96 3713.04C2396.56 3710.69 2394.75 3707.81 2393.68 3704.63C2383.6 3681.14 2402.05 3652.25 2375.68 3584.12C2373.81 3579.22 2373.32 3573.91 2374.25 3568.75C2375.19 3563.6 2377.52 3558.79 2380.99 3554.87Z" fill="white"/>
</mask>
<g mask="url(#mask1_1067_3934)">
<path opacity="0.3" d="M2380.99 3554.87C2385.38 3549.64 2391.33 3545.95 2397.97 3544.33C2404.6 3542.71 2411.58 3543.25 2417.89 3545.87C2423.05 3541.89 2429.28 3539.53 2435.78 3539.08C2442.28 3538.63 2448.77 3540.12 2454.43 3543.35C2472.43 3555.23 2508.43 3690.23 2473.42 3715.52C2463.34 3722.72 2435.17 3729.47 2426.53 3714.98C2423.83 3716.97 2420.69 3718.29 2417.38 3718.84C2414.07 3719.39 2410.68 3719.15 2407.48 3718.15C2404.28 3717.14 2401.36 3715.39 2398.96 3713.04C2396.56 3710.69 2394.75 3707.81 2393.68 3704.63C2383.6 3681.14 2402.05 3652.25 2375.68 3584.12C2373.81 3579.22 2373.32 3573.91 2374.25 3568.75C2375.19 3563.6 2377.52 3558.79 2380.99 3554.87Z" fill="black"/>
</g>
<path d="M2380.99 3554.87C2385.38 3549.64 2391.33 3545.95 2397.97 3544.33C2404.6 3542.71 2411.58 3543.25 2417.89 3545.87C2423.05 3541.89 2429.28 3539.53 2435.78 3539.08C2442.28 3538.63 2448.77 3540.12 2454.43 3543.35C2472.43 3555.23 2508.43 3690.23 2473.42 3715.52C2463.34 3722.72 2435.17 3729.47 2426.53 3714.98C2423.83 3716.97 2420.69 3718.29 2417.38 3718.84C2414.07 3719.39 2410.68 3719.15 2407.48 3718.15C2404.28 3717.14 2401.36 3715.39 2398.96 3713.04C2396.56 3710.69 2394.75 3707.81 2393.68 3704.63C2383.6 3681.14 2402.05 3652.25 2375.68 3584.12C2373.81 3579.22 2373.32 3573.91 2374.25 3568.75C2375.19 3563.6 2377.52 3558.79 2380.99 3554.87Z" stroke="#263238" stroke-linecap="round" stroke-linejoin="round"/>
<path d="M2437.87 3624.98C2441.05 3645.84 2441.29 3667.05 2438.59 3687.98" stroke="#263238" stroke-linecap="round" stroke-linejoin="round"/>
<path d="M2550.73 3220.78C2550.55 3224.25 2549.34 3227.59 2547.26 3230.37C2545.18 3233.15 2542.32 3235.25 2539.05 3236.4C2535.77 3237.56 2532.23 3237.72 2528.86 3236.86C2525.5 3236 2522.47 3234.16 2520.15 3231.58C2517.83 3228.99 2516.33 3225.78 2515.83 3222.34C2515.34 3218.9 2515.88 3215.4 2517.38 3212.27C2518.88 3209.13 2521.28 3206.52 2524.27 3204.75C2527.26 3202.98 2530.7 3202.14 2534.17 3202.33C2538.77 3202.7 2543.05 3204.82 2546.14 3208.25C2549.22 3211.68 2550.86 3216.17 2550.73 3220.78Z" fill="white" stroke="#263238" stroke-linecap="round" stroke-linejoin="round"/>
<path d="M2537.77 3492.59C2537.55 3496.03 2536.32 3499.32 2534.23 3502.07C2532.14 3504.81 2529.29 3506.87 2526.03 3507.99C2522.77 3509.11 2519.25 3509.24 2515.92 3508.37C2512.58 3507.49 2509.58 3505.65 2507.29 3503.08C2505 3500.5 2503.53 3497.3 2503.05 3493.89C2502.58 3490.47 2503.12 3487 2504.62 3483.89C2506.12 3480.79 2508.5 3478.2 2511.47 3476.44C2514.44 3474.69 2517.86 3473.86 2521.3 3474.05C2525.94 3474.32 2530.28 3476.43 2533.37 3479.91C2536.46 3483.38 2538.04 3487.94 2537.77 3492.59Z" fill="white" stroke="#263238" stroke-linecap="round" stroke-linejoin="round"/>
<path d="M2698.52 2887.96L2685.74 2706.6L2497.99 2750.52L2487.73 2895.7C2475.94 2897.14 2464.69 2898.85 2453.62 2900.47L2499.52 3010.54L2589.52 3022.33L2732.99 2890.12C2721.74 2889.22 2709.86 2888.5 2698.52 2887.96Z" fill="white"/>
<mask id="mask2_1067_3934" style="mask-type:luminance" maskUnits="userSpaceOnUse" x="2453" y="2706" width="280" height="317">
<path d="M2698.52 2887.96L2685.74 2706.6L2497.99 2750.52L2487.73 2895.7C2475.94 2897.14 2464.69 2898.85 2453.62 2900.47L2499.52 3010.54L2589.52 3022.33L2732.99 2890.12C2721.74 2889.22 2709.86 2888.5 2698.52 2887.96Z" fill="white"/>
</mask>
<g mask="url(#mask2_1067_3934)">
<path d="M2495.2 2814.24C2496.46 2943.31 2647.21 2903.71 2688.98 2774.82L2685.65 2706.6L2497.99 2750.52L2495.2 2814.24Z" fill="#263238"/>
</g>
<path d="M2698.52 2887.96L2685.74 2706.6L2497.99 2750.52L2487.73 2895.7C2475.94 2897.14 2464.69 2898.85 2453.62 2900.47L2499.52 3010.54L2589.52 3022.33L2732.99 2890.12C2721.74 2889.22 2709.86 2888.5 2698.52 2887.96Z" stroke="#263238" stroke-linecap="round" stroke-linejoin="round"/>
<path d="M2380.27 2553.51C2380.27 2553.51 2311.69 2434.89 2301.61 2372.33C2270.2 2179.1 2409.61 2244.26 2409.61 2244.26C2409.61 2244.26 2508.61 2155.97 2631.1 2171.45C2753.6 2186.93 2786.36 2239.22 2869.07 2271.35C2869.07 2271.35 2806.97 2586.36 2727.5 2657.1C2648.02 2727.84 2380.27 2553.51 2380.27 2553.51Z" fill="#263238" stroke="#263238" stroke-linecap="round" stroke-linejoin="round"/>
<path d="M2416.36 2272.97C2416.36 2272.97 2385.49 2197.91 2463.79 2140.58" stroke="#263238" stroke-linecap="round" stroke-linejoin="round"/>
<path d="M2551.18 2227.88C2642.89 2187.38 2683.85 2254.88 2786.18 2272.88" stroke="#BFBFBF" stroke-miterlimit="10"/>
<path d="M2480.35 2272.97C2488.69 2262.48 2498.76 2253.5 2510.14 2246.42" stroke="#BFBFBF" stroke-miterlimit="10"/>
<path d="M2574.49 2302.4C2574.49 2302.4 2614.18 2264.33 2692.94 2313.83C2716.7 2329.48 2743.46 2340.02 2771.51 2344.79" stroke="#BFBFBF" stroke-miterlimit="10"/>
<path d="M2695.82 2384.84C2581.69 2387.81 2463.79 2336.24 2463.79 2336.24C2357.41 2400.41 2373.25 2504.73 2373.25 2504.73C2397.55 2754.03 2430.4 2820.45 2546.86 2820.45C2663.33 2820.45 2758.01 2694.45 2765.66 2514.9C2721.74 2516.97 2695.82 2384.84 2695.82 2384.84Z" fill="white" stroke="#263238" stroke-linecap="round" stroke-linejoin="round"/>
<path d="M2755.85 2504.73C2758.46 2500.86 2761.93 2497.65 2765.99 2495.36C2770.05 2493.06 2774.59 2491.74 2779.25 2491.5C2799.95 2491.5 2815.25 2518.5 2807.96 2552.25C2800.67 2586 2791.13 2612.91 2770.43 2612.91C2765.7 2612.74 2761.13 2611.13 2757.34 2608.3C2753.54 2605.47 2750.7 2601.55 2749.19 2597.07" fill="white"/>
<path d="M2755.85 2504.73C2758.46 2500.86 2761.93 2497.65 2765.99 2495.36C2770.05 2493.06 2774.59 2491.74 2779.25 2491.5C2799.95 2491.5 2815.25 2518.5 2807.96 2552.25C2800.67 2586 2791.13 2612.91 2770.43 2612.91C2765.7 2612.74 2761.13 2611.13 2757.34 2608.3C2753.54 2605.47 2750.7 2601.55 2749.19 2597.07" stroke="#263238" stroke-linecap="round" stroke-linejoin="round"/>
<path d="M2528.95 2627.13C2528.95 2627.13 2542.9 2646.21 2516.17 2660.52C2489.44 2674.83 2468.2 2674.56 2461.36 2658.18C2454.52 2641.8 2484.22 2505.18 2484.22 2505.18" stroke="#263238" stroke-linecap="round" stroke-linejoin="round"/>
<path d="M2479.72 2527.05C2465.32 2519.76 2407.72 2494.56 2353 2528.94L2356.51 2581.86C2356.51 2581.86 2376.67 2592.93 2422.93 2592.93C2438.06 2593.21 2453.18 2591.64 2467.93 2588.25" stroke="#263238" stroke-linecap="round" stroke-linejoin="round"/>
<path d="M2527.51 2528.93L2544.25 2584.11C2544.25 2584.11 2551.09 2593.11 2597.44 2593.11C2643.79 2593.11 2659.01 2582.04 2659.01 2582.04L2657.66 2529.11C2657.66 2529.11 2590.42 2489.51 2527.51 2528.93Z" stroke="#263238" stroke-linecap="round" stroke-linejoin="round"/>
<path d="M2483.41 2528.94H2527.51" stroke="#263238" stroke-linecap="round" stroke-linejoin="round"/>
<path d="M2492.77 2710.56C2516.87 2717.42 2542.5 2716.64 2566.12 2708.31C2584.31 2701.45 2600.14 2689.51 2611.75 2673.93" stroke="#263238" stroke-linecap="round" stroke-linejoin="round"/>
<path d="M2566.12 2476.74C2623.99 2452.89 2649.55 2481.51 2649.55 2481.51" stroke="#263238" stroke-linecap="round" stroke-linejoin="round"/>
<path d="M2413.39 2474.4C2423.33 2469.64 2434.42 2467.78 2445.37 2469.03C2456.33 2470.29 2466.7 2474.62 2475.31 2481.51" stroke="#263238" stroke-linecap="round" stroke-linejoin="round"/>
<path d="M2589.16 2516.96C2594.56 2516.96 2598.16 2525.97 2598.16 2536.5C2598.16 2547.03 2593.66 2555.94 2588.44 2555.94C2583.22 2555.94 2579.44 2546.94 2579.44 2536.5C2579.44 2526.06 2583.85 2516.96 2589.16 2516.96Z" fill="#263238"/>
<path d="M2445.43 2514.54C2450.74 2514.54 2454.43 2523.54 2454.43 2534.07C2454.43 2544.6 2449.93 2553.51 2444.71 2553.51C2439.49 2553.51 2435.71 2544.51 2435.71 2534.07C2435.71 2523.63 2440.21 2514.54 2445.43 2514.54Z" fill="#263238"/>
<path d="M2349.49 2415.18C2351.35 2425.79 2354.36 2436.18 2358.49 2446.14" stroke="#BFBFBF" stroke-miterlimit="10"/>
<path d="M2418.52 2296.28C2361.64 2280.98 2339.14 2315.18 2343.37 2369.18" stroke="#BFBFBF" stroke-miterlimit="10"/>
<path d="M2478.73 2887.23L2548.03 3011.98L2714.45 2880.66L2765.66 2887.86L2657.66 3078.22C2656.67 3079.93 2655.35 3081.43 2653.78 3082.62C2652.2 3083.81 2650.4 3084.67 2648.49 3085.15C2646.57 3085.63 2644.58 3085.72 2642.63 3085.41C2640.68 3085.1 2638.81 3084.4 2637.13 3083.35L2545.06 3025.21L2473.06 3069.13C2470.96 3070.42 2468.56 3071.15 2466.09 3071.27C2463.63 3071.38 2461.17 3070.87 2458.96 3069.79C2456.74 3068.7 2454.83 3067.07 2453.41 3065.05C2451.99 3063.04 2451.1 3060.69 2450.83 3058.24L2432.83 2895.69L2478.73 2887.23Z" fill="#407BFF"/>
<mask id="mask3_1067_3934" style="mask-type:luminance" maskUnits="userSpaceOnUse" x="2432" y="2880" width="334" height="206">
<path d="M2478.73 2887.23L2548.03 3011.98L2714.45 2880.66L2765.66 2887.86L2657.66 3078.22C2656.67 3079.93 2655.35 3081.43 2653.78 3082.62C2652.2 3083.81 2650.4 3084.67 2648.49 3085.15C2646.57 3085.63 2644.58 3085.72 2642.63 3085.41C2640.68 3085.1 2638.81 3084.4 2637.13 3083.35L2545.06 3025.21L2473.06 3069.13C2470.96 3070.42 2468.56 3071.15 2466.09 3071.27C2463.63 3071.38 2461.17 3070.87 2458.96 3069.79C2456.74 3068.7 2454.83 3067.07 2453.41 3065.05C2451.99 3063.04 2451.1 3060.69 2450.83 3058.24L2432.83 2895.69L2478.73 2887.23Z" fill="white"/>
</mask>
<g mask="url(#mask3_1067_3934)">
<path opacity="0.3" d="M2472.61 2886.42L2548.03 3011.98L2717.42 2878.32L2768.36 2886.42L2657.92 3078.22C2656.94 3079.93 2655.62 3081.43 2654.05 3082.62C2652.47 3083.81 2650.67 3084.67 2648.76 3085.15C2646.84 3085.63 2644.85 3085.72 2642.9 3085.41C2640.95 3085.1 2639.08 3084.4 2637.4 3083.35L2545.33 3025.21L2473.33 3069.13C2471.22 3070.42 2468.83 3071.15 2466.36 3071.27C2463.9 3071.38 2461.44 3070.87 2459.23 3069.79C2457.01 3068.7 2455.1 3067.07 2453.68 3065.05C2452.26 3063.04 2451.37 3060.69 2451.1 3058.24L2433.1 2895.69L2472.61 2886.42Z" fill="black"/>
</g>
<path d="M2478.73 2887.23L2548.03 3011.98L2714.45 2880.66L2765.66 2887.86L2657.66 3078.22C2656.67 3079.93 2655.35 3081.43 2653.78 3082.62C2652.2 3083.81 2650.4 3084.67 2648.49 3085.15C2646.57 3085.63 2644.58 3085.72 2642.63 3085.41C2640.68 3085.1 2638.81 3084.4 2637.13 3083.35L2545.06 3025.21L2473.06 3069.13C2470.96 3070.42 2468.56 3071.15 2466.09 3071.27C2463.63 3071.38 2461.17 3070.87 2458.96 3069.79C2456.74 3068.7 2454.83 3067.07 2453.41 3065.05C2451.99 3063.04 2451.1 3060.69 2450.83 3058.24L2432.83 2895.69L2478.73 2887.23Z" stroke="#263238" stroke-linecap="round" stroke-linejoin="round"/>
<path d="M1446.86 3706.61H1899.39V3766.91H1446.86C1442.08 3766.91 1437.51 3765.02 1434.13 3761.64C1430.75 3758.27 1428.86 3753.69 1428.86 3748.91V3724.34C1428.93 3719.62 1430.86 3715.11 1434.23 3711.79C1437.59 3708.47 1442.13 3706.61 1446.86 3706.61Z" fill="#263238" stroke="#263238" stroke-linecap="round" stroke-linejoin="round"/>
<path d="M2288.74 3766.91H1899.39V3706.61L2289.73 3732.26C2292.85 3732.49 2295.77 3733.89 2297.9 3736.17C2300.04 3738.46 2301.23 3741.47 2301.25 3744.59V3754.58C2301.25 3756.22 2300.92 3757.84 2300.29 3759.34C2299.66 3760.85 2298.74 3762.22 2297.57 3763.37C2296.41 3764.51 2295.03 3765.42 2293.51 3766.03C2291.99 3766.64 2290.37 3766.94 2288.74 3766.91Z" fill="#407BFF" stroke="#263238" stroke-linecap="round" stroke-linejoin="round"/>
<path d="M2657.93 2537.85L2755.85 2504.73L2744.24 2519.4" stroke="#263238" stroke-linecap="round" stroke-linejoin="round"/>
<path d="M3285.15 2650.53C3285.15 2650.53 3172.38 2306.18 3456.15 2282.06C3739.93 2257.94 3773.14 2522.19 3799.15 2654.67C3819.49 2758.26 4013.17 2947.72 3863.23 3089.11C3706.81 3236.8 3325.74 3187.48 3303.78 2977.6C3281.82 2767.71 3301.71 2724.69 3285.15 2650.53Z" fill="#263238" stroke="#263238" stroke-linecap="round" stroke-linejoin="round"/>
<path d="M3616 2705.52C3616 2705.52 3603.67 2858.52 3682.42 2989.48C3682.42 2989.48 3576.3 3024.13 3465.6 2991.19C3470.19 2950.66 3467.94 2909.65 3458.94 2869.86L3455.16 2853.21L3535.62 2783.64L3616 2705.52Z" fill="white"/>
<mask id="mask4_1067_3934" style="mask-type:luminance" maskUnits="userSpaceOnUse" x="3455" y="2705" width="228" height="301">
<path d="M3616 2705.52C3616 2705.52 3603.67 2858.52 3682.42 2989.48C3682.42 2989.48 3576.3 3024.13 3465.6 2991.19C3470.19 2950.66 3467.94 2909.65 3458.94 2869.86L3455.16 2853.21L3535.62 2783.64L3616 2705.52Z" fill="white"/>
</mask>
<g mask="url(#mask4_1067_3934)">
<path d="M3421.23 2820.45C3435.9 2902.63 3449.31 2920.54 3518.97 2905.87C3570.54 2894.98 3614.56 2817.57 3617.08 2761.32C3614.54 2735.78 3613.31 2710.13 3613.39 2684.46L3535.62 2783.46L3421.23 2820.45Z" fill="#263238"/>
</g>
<path d="M3616 2705.52C3616 2705.52 3603.67 2858.52 3682.42 2989.48C3682.42 2989.48 3576.3 3024.13 3465.6 2991.19C3470.19 2950.66 3467.94 2909.65 3458.94 2869.86L3455.16 2853.21L3535.62 2783.64L3616 2705.52Z" stroke="#263238" stroke-linecap="round" stroke-linejoin="round"/>
<path d="M2826.41 3579.17C2826.41 3579.17 2669.36 3507.17 2660.54 3566.75C2651.72 3626.33 2690.15 3718.31 2833.97 3673.04L3135.75 3712.82C3135.75 3712.82 3187.41 3609.95 3132.24 3553.88C3132.15 3553.88 2866.28 3595.19 2826.41 3579.17Z" fill="white" stroke="#263238" stroke-linecap="round" stroke-linejoin="round"/>
<path d="M2584.39 3643.61C2584.39 3643.61 2559.55 3651.62 2555.86 3668.09C2552.17 3684.56 2544.16 3707.87 2553.7 3707.96C2563.24 3708.05 2574.85 3675.2 2574.85 3675.2L2599.06 3668.9L2584.39 3643.61Z" fill="white" stroke="#263238" stroke-linecap="round" stroke-linejoin="round"/>
<path d="M2748.9 3487.28L2585.63 3504.39L2609.99 3736.94L2773.26 3719.84L2748.9 3487.28Z" fill="white" stroke="#263238" stroke-linecap="round" stroke-linejoin="round"/>
<path d="M2585.57 3504.38L2561.22 3506.93L2585.58 3739.48L2609.93 3736.93L2585.57 3504.38Z" fill="#EF86E8" stroke="#263238" stroke-linecap="round" stroke-linejoin="round"/>
<path d="M2705 3453.61C2695.66 3454.7 2687.12 3459.4 2681.2 3466.7C2675.28 3473.99 2672.45 3483.32 2673.32 3492.68C2673.45 3493.49 2673.63 3494.31 2673.86 3495.11L2682.05 3494.3L2691.05 3493.4C2690.84 3492.57 2690.69 3491.72 2690.6 3490.88C2690.25 3487.65 2690.75 3484.39 2692.06 3481.43C2693.38 3478.46 2695.45 3475.89 2698.07 3473.98C2700.69 3472.07 2703.76 3470.89 2706.99 3470.54C2710.21 3470.2 2713.47 3470.71 2716.43 3472.03C2719.4 3473.35 2721.96 3475.42 2723.87 3478.04C2725.77 3480.67 2726.95 3483.75 2727.29 3486.97C2727.63 3490.2 2727.11 3493.45 2725.79 3496.41C2724.46 3499.38 2722.38 3501.94 2719.76 3503.84C2720.8 3506.73 2722.66 3509.27 2725.1 3511.15C2727.53 3513.03 2730.46 3514.18 2733.53 3514.46C2738.86 3509.34 2742.45 3502.68 2743.81 3495.42C2745.18 3488.15 2744.24 3480.65 2741.12 3473.94C2738.01 3467.24 2732.88 3461.68 2726.45 3458.04C2720.02 3454.39 2712.62 3452.84 2705.27 3453.61H2705Z" fill="white" stroke="#263238" stroke-linecap="round" stroke-linejoin="round"/>
<path d="M2616.34 3552.62L2672.6 3546.68" stroke="#263238" stroke-linecap="round" stroke-linejoin="round"/>
<path d="M2619.04 3578.18L2728.22 3566.75" stroke="#263238" stroke-linecap="round" stroke-linejoin="round"/>
<path d="M2621.74 3603.83L2676.38 3598.16" stroke="#263238" stroke-linecap="round" stroke-linejoin="round"/>
<path d="M2624.44 3629.48L2715.62 3619.94" stroke="#263238" stroke-linecap="round" stroke-linejoin="round"/>
<path d="M2627.14 3655.13L2681.69 3649.37" stroke="#263238" stroke-linecap="round" stroke-linejoin="round"/>
<path d="M2629.84 3680.69L2749.55 3668.18" stroke="#263238" stroke-linecap="round" stroke-linejoin="round"/>
<path d="M2632.45 3706.34L2688.71 3700.49" stroke="#263238" stroke-linecap="round" stroke-linejoin="round"/>
<path d="M2674.76 3456.77C2665.44 3457.88 2656.92 3462.58 2651.02 3469.88C2645.12 3477.17 2642.3 3486.48 2643.16 3495.83C2643.27 3496.68 2643.42 3497.52 2643.61 3498.35L2651.89 3497.45L2660.9 3496.55C2660.62 3495.73 2660.44 3494.89 2660.36 3494.03C2660.18 3489.32 2661.8 3484.72 2664.88 3481.16C2667.97 3477.61 2672.3 3475.36 2676.99 3474.88C2681.67 3474.4 2686.37 3475.72 2690.12 3478.57C2693.86 3481.43 2696.38 3485.6 2697.17 3490.25C2697.52 3493.47 2696.99 3496.72 2695.64 3499.67C2694.3 3502.62 2692.18 3505.14 2689.52 3506.99C2690.56 3509.88 2692.42 3512.42 2694.86 3514.3C2697.29 3516.18 2700.22 3517.33 2703.29 3517.61C2708.62 3512.49 2712.21 3505.83 2713.57 3498.57C2714.94 3491.31 2713.99 3483.8 2710.88 3477.1C2707.77 3470.39 2702.64 3464.83 2696.21 3461.19C2689.78 3457.54 2682.38 3456 2675.03 3456.77H2674.76Z" fill="white" stroke="#263238" stroke-linecap="round" stroke-linejoin="round"/>
<path d="M2644.52 3459.92C2635.2 3461.03 2626.68 3465.73 2620.78 3473.03C2614.88 3480.32 2612.06 3489.63 2612.92 3498.98C2612.92 3499.88 2612.92 3500.6 2612.92 3501.5L2621.2 3500.6L2630.2 3499.7C2629.98 3498.9 2629.8 3498.09 2629.66 3497.27C2629.3 3494.02 2629.79 3490.74 2631.1 3487.75C2632.41 3484.76 2634.48 3482.17 2637.11 3480.23C2639.75 3478.3 2642.84 3477.1 2646.09 3476.75C2649.33 3476.39 2652.61 3476.9 2655.6 3478.23C2658.58 3479.55 2661.16 3481.64 2663.08 3484.28C2665 3486.92 2666.19 3490.02 2666.53 3493.27C2666.87 3496.51 2666.34 3499.79 2665 3502.77C2663.66 3505.75 2661.57 3508.32 2658.92 3510.23C2659.93 3513.12 2661.77 3515.65 2664.19 3517.52C2666.62 3519.39 2669.54 3520.51 2672.6 3520.76C2676.53 3517.07 2679.56 3512.51 2681.43 3507.45C2683.3 3502.39 2683.98 3496.96 2683.4 3491.6C2682.31 3482.3 2677.64 3473.79 2670.38 3467.87C2663.12 3461.96 2653.84 3459.1 2644.52 3459.92Z" fill="white" stroke="#263238" stroke-linecap="round" stroke-linejoin="round"/>
<path d="M2614.36 3463.07C2605.03 3464.16 2596.49 3468.85 2590.57 3476.15C2584.65 3483.45 2581.82 3492.77 2582.68 3502.13C2582.81 3502.98 2582.99 3503.82 2583.22 3504.65L2591.41 3503.75L2600.41 3502.85C2600.22 3502.05 2600.07 3501.24 2599.96 3500.42C2599.61 3497.2 2600.12 3493.94 2601.43 3490.97C2602.74 3488.01 2604.81 3485.44 2607.43 3483.53C2610.05 3481.62 2613.13 3480.43 2616.35 3480.09C2619.58 3479.74 2622.84 3480.26 2625.8 3481.57C2628.76 3482.89 2631.33 3484.96 2633.23 3487.59C2635.14 3490.21 2636.32 3493.29 2636.66 3496.51C2636.99 3499.74 2636.48 3503 2635.15 3505.96C2633.83 3508.92 2631.75 3511.48 2629.12 3513.38C2630.18 3516.26 2632.03 3518.79 2634.47 3520.65C2636.91 3522.52 2639.83 3523.65 2642.89 3523.91C2646.8 3520.19 2649.8 3515.63 2651.67 3510.58C2653.54 3505.53 2654.24 3500.11 2653.7 3494.75C2652.61 3485.36 2647.87 3476.78 2640.52 3470.85C2633.16 3464.93 2623.77 3462.13 2614.36 3463.07Z" fill="white" stroke="#263238" stroke-linecap="round" stroke-linejoin="round"/>
<path d="M2569.45 3503.57C2569.07 3500.32 2569.56 3497.03 2570.87 3494.03C2572.17 3491.02 2574.25 3488.42 2576.88 3486.48C2579.52 3484.55 2582.62 3483.34 2585.87 3482.99C2589.12 3482.63 2592.41 3483.15 2595.4 3484.48C2598.39 3485.8 2600.97 3487.9 2602.89 3490.55C2604.81 3493.2 2605.99 3496.31 2606.32 3499.57C2606.64 3502.82 2606.1 3506.11 2604.75 3509.08C2603.4 3512.06 2601.28 3514.63 2598.61 3516.53C2599.67 3519.41 2601.52 3521.94 2603.96 3523.8C2606.4 3525.67 2609.32 3526.8 2612.38 3527.06C2617.5 3522.16 2621.03 3515.85 2622.52 3508.93C2624.01 3502.01 2623.4 3494.8 2620.76 3488.23C2618.13 3481.66 2613.58 3476.03 2607.72 3472.07C2601.85 3468.1 2594.94 3465.98 2587.86 3465.98C2580.78 3465.98 2573.86 3468.1 2568 3472.07C2562.13 3476.03 2557.59 3481.66 2554.95 3488.23C2552.31 3494.8 2551.7 3502.01 2553.2 3508.93C2554.69 3515.85 2558.22 3522.16 2563.33 3527.06L2561.26 3506.81L2570.26 3505.91C2569.91 3505.16 2569.64 3504.37 2569.45 3503.57Z" fill="white" stroke="#263238" stroke-linecap="round" stroke-linejoin="round"/>
<path d="M2542.36 3569.54C2543.89 3572.93 2545.67 3576.21 2547.67 3579.35C2545.94 3585.55 2545.62 3592.06 2546.74 3598.4C2547.86 3604.74 2550.39 3610.75 2554.15 3615.98C2554.15 3615.98 2554.87 3641.63 2563.96 3645.68C2573.05 3649.73 2587.54 3654.68 2587.27 3647.48C2587 3640.28 2582.77 3618.77 2566.39 3614C2566.39 3614 2585.2 3617.69 2583.13 3607.25C2581.06 3596.81 2577.46 3581.69 2565.94 3577.37L2559.73 3574.67C2559.73 3574.67 2574.67 3577.37 2573.41 3566.12C2572.15 3554.87 2570.89 3541.64 2562.34 3538.49C2560.36 3537.77 2558.11 3537.14 2555.77 3536.51C2543.17 3533.54 2535.07 3553.34 2542.36 3569.54Z" fill="white" stroke="#263238" stroke-linecap="round" stroke-linejoin="round"/>
<path d="M2808.77 3577.19C2808.77 3577.19 2791.22 3538.31 2762.51 3518.06C2733.8 3497.81 2723 3458.39 2711.3 3467.93C2699.6 3477.47 2710.22 3519.32 2728.4 3533.63C2746.58 3547.94 2726.24 3579.89 2770.97 3619.31" fill="white"/>
<path d="M2808.77 3577.19C2808.77 3577.19 2791.22 3538.31 2762.51 3518.06C2733.8 3497.81 2723 3458.39 2711.3 3467.93C2699.6 3477.47 2710.22 3519.32 2728.4 3533.63C2746.58 3547.94 2726.24 3579.89 2770.97 3619.31" stroke="#263238" stroke-linecap="round" stroke-linejoin="round"/>
<path d="M3866.02 3690.68C3862.06 3715.16 3857.83 3740.57 3853.33 3766.91H3236.1C3235.11 3758.63 3240.96 3741.98 3246.54 3712.91C3177.78 3736.22 3057.53 3700.04 3057.53 3700.04C3072.47 3660.71 3062.12 3560.81 3062.12 3560.81L3132.15 3545.96C3132.15 3545.96 3161.22 3241.57 3183.36 3154.36C3206.85 3061.84 3335.37 2960.85 3767.65 2990.65C3767.65 2990.65 3967.09 2986.87 3998.05 3119.08C4027.21 3242.47 3874.3 3685.01 3866.02 3690.68Z" fill="#EF86E8"/>
<mask id="mask5_1067_3934" style="mask-type:luminance" maskUnits="userSpaceOnUse" x="3057" y="2985" width="945" height="782">
<path d="M3866.02 3690.68C3862.06 3715.16 3857.83 3740.57 3853.33 3766.91H3236.1C3235.11 3758.63 3240.96 3741.98 3246.54 3712.91C3177.78 3736.22 3057.53 3700.04 3057.53 3700.04C3072.47 3660.71 3062.12 3560.81 3062.12 3560.81L3132.15 3545.96C3132.15 3545.96 3161.22 3241.57 3183.36 3154.36C3206.85 3061.84 3335.37 2960.85 3767.65 2990.65C3767.65 2990.65 3967.09 2986.87 3998.05 3119.08C4027.21 3242.47 3874.3 3685.01 3866.02 3690.68Z" fill="white"/>
</mask>
<g mask="url(#mask5_1067_3934)">
<path opacity="0.2" d="M3246.54 3713C3198.75 3729.2 3126.3 3716.69 3086.51 3707.51C3096.86 3699.59 3103.34 3683.39 3105.77 3662.51C3138.18 3657.47 3170.58 3605.99 3191.91 3371.99C3196.95 3317.09 3207.75 3282.62 3221.61 3259.39C3207.63 3312.06 3207.07 3367.38 3219.99 3420.32C3227.73 3451.73 3252.03 3527.33 3254.19 3558.65C3258.51 3610.21 3255.94 3662.12 3246.54 3713Z" fill="black"/>
<path opacity="0.2" d="M3865.93 3690.77C3862.09 3715.25 3857.89 3740.63 3853.33 3766.91H3236.1C3247.17 3733.07 3274.35 3571.97 3236.1 3474.05C3234.57 3470.09 3368.67 3413.75 3458.49 3436.79C3839.2 3534.44 3708.07 3219.79 3816.79 3162.55L3723.01 3530.39L3671.8 3546.68C3782.68 3553.52 3750.64 3719.75 3750.64 3719.75C3791.36 3725.16 3832.61 3714.79 3865.93 3690.77Z" fill="black"/>
</g>
<path d="M3866.02 3690.68C3862.06 3715.16 3857.83 3740.57 3853.33 3766.91H3236.1C3235.11 3758.63 3240.96 3741.98 3246.54 3712.91C3177.78 3736.22 3057.53 3700.04 3057.53 3700.04C3072.47 3660.71 3062.12 3560.81 3062.12 3560.81L3132.15 3545.96C3132.15 3545.96 3161.22 3241.57 3183.36 3154.36C3206.85 3061.84 3335.37 2960.85 3767.65 2990.65C3767.65 2990.65 3967.09 2986.87 3998.05 3119.08C4027.21 3242.47 3874.3 3685.01 3866.02 3690.68Z" stroke="#263238" stroke-linecap="round" stroke-linejoin="round"/>
<path d="M3073.64 3543.71C3073.64 3543.71 3097.04 3556.22 3104.69 3611.21C3112.34 3666.2 3100.55 3713.54 3070.04 3712.82C3039.53 3712.1 3034.04 3700.13 3040.34 3688.79C3046.64 3677.45 3059.96 3662.24 3049.79 3615.17C3037.01 3556.22 3010.73 3561.62 3010.73 3561.62C3010.73 3561.62 3045.74 3528.05 3073.64 3543.71Z" fill="#EF86E8" stroke="#263238" stroke-linecap="round" stroke-linejoin="round"/>
<path opacity="0.2" d="M3105.77 3662.87C3103.34 3683.39 3096.77 3699.59 3086.51 3707.87C3081.83 3711.54 3075.99 3713.42 3070.04 3713.18C3039.44 3712.46 3034.04 3700.49 3040.34 3689.15C3046.64 3677.81 3059.96 3662.6 3049.79 3615.53C3037.01 3556.58 3010.73 3561.98 3010.73 3561.98C3010.73 3561.98 3045.83 3528.41 3073.73 3543.98C3073.73 3543.98 3097.13 3556.49 3104.78 3611.48C3107.22 3628.51 3107.55 3645.77 3105.77 3662.87Z" fill="black"/>
<path d="M3661.63 2880.66C3661.63 2880.66 3506.46 2927.74 3435.9 2902.62L3421.23 2996.86C3421.23 2996.86 3489.9 3056.62 3709.87 2983.09L3661.63 2880.66Z" fill="#EF86E8" stroke="#263238" stroke-linecap="round" stroke-linejoin="round"/>
<path d="M3110.28 3516.26C3128.73 3576.29 3145.2 3624.26 3128.91 3629.57C3112.61 3634.88 3099.2 3585.38 3080.75 3525.26C3062.3 3465.14 3045.83 3417.26 3062.12 3412.04C3078.41 3406.82 3091.82 3456.14 3110.28 3516.26Z" fill="#EF86E8" stroke="#263238" stroke-linecap="round" stroke-linejoin="round"/>
<path d="M3078.41 3517.7L3107.93 3508.7C3103.61 3494.57 3099.56 3481.07 3095.69 3469.01L3066.26 3478.01C3069.86 3490.16 3074 3503.48 3078.41 3517.7Z" fill="#263238"/>
<path d="M3075.71 3440.47C3075.71 3440.47 3089.48 3412.84 3102.17 3432.37C3114.86 3451.91 3117.48 3511.22 3126.48 3511.31" stroke="#263238" stroke-linecap="round" stroke-linejoin="round"/>
<path d="M3258.78 3146.53C3247.53 3181 3231.78 3218.53 3221.61 3259.84C3207.63 3312.51 3207.07 3367.83 3219.99 3420.77C3227.73 3452.18 3252.03 3527.78 3254.19 3559.1C3258.48 3610.54 3255.91 3662.33 3246.54 3713.09C3240.96 3742.07 3235.11 3758.72 3236.1 3767.09" stroke="#263238" stroke-linecap="round" stroke-linejoin="round"/>
<path d="M3640.84 3556.94C3640.84 3556.94 3389.73 3591.23 3305.04 3592.94C3292.08 3592.94 3253.2 3588.44 3253.2 3588.44L3192.99 3548.21C3192.99 3548.21 3146.64 3541.37 3123.86 3546.5L3097.94 3580.43C3097.94 3580.43 3065.63 3590.87 3084.08 3615.35C3082.16 3621.09 3081.95 3627.27 3083.47 3633.13C3084.98 3638.99 3088.17 3644.29 3092.63 3648.38C3092.63 3648.38 3094.07 3669.71 3108.29 3678.26C3108.29 3678.26 3111.08 3698.15 3126.75 3703.82C3142.41 3709.49 3240.42 3693.83 3270.3 3685.37C3300.18 3676.91 3589.99 3722.27 3703.66 3719.48C3703.66 3719.66 3801.04 3605.54 3640.84 3556.94Z" fill="white" stroke="#263238" stroke-linecap="round" stroke-linejoin="round"/>
<path d="M3644.71 2606.52C3644.71 2606.52 3578.46 2632.35 3539.22 2560.89C3522.21 2529.93 3487.83 2465.4 3487.83 2465.4C3478.02 2490.69 3490.08 2529.21 3490.08 2529.21C3467.58 2519.4 3424.2 2517.06 3424.2 2517.06C3408.81 2491.32 3404.31 2432.82 3404.31 2432.82C3382.98 2468.82 3389.1 2519.58 3389.1 2519.58C3354.28 2522.93 3321.33 2536.88 3294.69 2559.54C3300.36 2582.49 3302.34 2618.31 3300.45 2692.74C3298.02 2789.85 3344.73 2816.49 3390.45 2852.86C3436.17 2889.22 3560.64 2907.94 3603.67 2717.85C3603.67 2717.85 3693.67 2684.28 3649.75 2613.81L3644.71 2606.52Z" fill="white" stroke="#263238" stroke-linecap="round" stroke-linejoin="round"/>
<path d="M3570.9 2489.52C3584.31 2518.45 3603.85 2544.13 3628.17 2564.75C3652.5 2585.37 3681.02 2600.46 3711.76 2608.95" stroke="#BFBFBF" stroke-miterlimit="10"/>
<path d="M3547.23 2417.52C3549.34 2429.34 3552.35 2440.98 3556.23 2452.35" stroke="#BFBFBF" stroke-miterlimit="10"/>
<path d="M3592.24 2421.93C3592.24 2421.93 3643.36 2519.49 3723.28 2521.83" stroke="#BFBFBF" stroke-miterlimit="10"/>
<path d="M3748.93 2670.06C3748.93 2670.06 3878.98 2880.66 3878.98 3003.07" stroke="#BFBFBF" stroke-miterlimit="10"/>
<path d="M3714.55 2726.22C3714.55 2726.22 3746.68 2843.67 3798.43 2902.62" stroke="#BFBFBF" stroke-miterlimit="10"/>
<path d="M3305.85 2420.84C3301.96 2438.17 3299.4 2455.77 3298.2 2473.49" stroke="#BFBFBF" stroke-miterlimit="10"/>
<path d="M3412.32 2310.5C3412.32 2310.5 3351.75 2321.84 3312.24 2393.21" stroke="#BFBFBF" stroke-miterlimit="10"/>
<path d="M3335.64 2855.82C3335.64 2855.82 3333.66 2950.33 3381.9 3003.43" stroke="#BFBFBF" stroke-miterlimit="10"/>
<path d="M3421.23 2566.65C3486.84 2553.78 3515.55 2587.17 3515.55 2587.17" stroke="#263238" stroke-linecap="round" stroke-linejoin="round"/>
<path d="M3311.97 2594.28C3319.21 2586.97 3327.88 2581.24 3337.43 2577.43C3346.98 2573.62 3357.22 2571.82 3367.5 2572.14" stroke="#263238" stroke-linecap="round" stroke-linejoin="round"/>
<path d="M3463.98 2786.52C3484.23 2775 3495.48 2744.94 3495.48 2744.94L3491.25 2747.28C3464.85 2761.4 3436.08 2770.55 3406.38 2774.28C3413.32 2782.34 3422.71 2787.91 3433.12 2790.12C3443.52 2792.33 3454.36 2791.07 3463.98 2786.52Z" stroke="#263238" stroke-linecap="round" stroke-linejoin="round"/>
<path d="M3383.7 2724.06C3375.15 2722.98 3350.76 2711.46 3348.69 2694.9C3348.06 2689.95 3351.66 2685.45 3356.97 2681.49C3367.48 2674.11 3375.93 2664.17 3381.52 2652.61C3387.11 2641.04 3389.66 2628.25 3388.92 2615.43C3388.92 2613.63 3388.92 2612.55 3388.92 2612.55" stroke="#263238" stroke-linecap="round" stroke-linejoin="round"/>
<path d="M3467.58 2593.02C3473.79 2592.21 3480.18 2602.56 3481.8 2615.97C3483.42 2629.38 3479.82 2640.81 3473.52 2641.62C3467.22 2642.43 3461.01 2632.08 3459.3 2618.67C3457.59 2605.26 3461.37 2593.74 3467.58 2593.02Z" fill="#263238"/>
<path d="M3359.4 2631.81C3361.02 2644.95 3357.42 2656.2 3351.3 2656.92C3345.18 2657.64 3338.97 2647.92 3337.35 2634.51C3335.73 2621.1 3339.33 2610.03 3345.45 2609.31C3351.57 2608.59 3357.78 2618.58 3359.4 2631.81Z" fill="#263238"/>
<path d="M3560.82 2604.27C3560.82 2604.27 3552.45 2580.51 3561.99 2568.27" stroke="#263238" stroke-linecap="round" stroke-linejoin="round"/>
<path d="M3865.93 3690.77C3832.59 3714.83 3791.3 3725.2 3750.55 3719.75C3750.55 3719.75 3782.59 3553.52 3671.71 3546.68L3722.92 3530.39L3816.7 3162.55" stroke="#263238" stroke-linecap="round" stroke-linejoin="round"/>
<path d="M3750.55 3530.39C3750.55 3530.39 3809.95 3546.05 3826.6 3597.17" stroke="#263238" stroke-linecap="round" stroke-linejoin="round"/>
<path d="M3508.17 2938.45C3564.69 2938.06 3620.5 2925.79 3671.98 2902.45" stroke="#263238" stroke-linecap="round" stroke-linejoin="round"/>
<path d="M3431.67 2929.62C3444.37 2932.94 3457.31 2935.22 3470.37 2936.47" stroke="#263238" stroke-linecap="round" stroke-linejoin="round"/>
<path d="M3684.76 3035.11C3700.78 3029.47 3717.58 3022.84 3735.16 3015.22" stroke="#263238" stroke-linecap="round" stroke-linejoin="round"/>
<path d="M3406.74 3036.46C3406.74 3036.46 3467.13 3093.79 3626.89 3052.84" stroke="#263238" stroke-linecap="round" stroke-linejoin="round"/>
<path d="M3458.94 3321.4C3458.94 3321.4 3467.94 3459.74 3570.9 3511.31" stroke="#263238" stroke-linecap="round" stroke-linejoin="round"/>
<path d="M3638.32 3559.1C3638.32 3559.1 3658.48 3514.64 3718.78 3536.6C3718.78 3536.6 3775.75 3556.22 3792.85 3614.81C3809.95 3673.4 3788.53 3725.69 3746.95 3727.85C3705.37 3730.01 3697.81 3726.77 3704.83 3713.99C3712.21 3700.04 3716.33 3684.6 3716.89 3668.82C3717.45 3653.05 3714.44 3637.35 3708.07 3622.91C3682.24 3561.08 3638.32 3559.1 3638.32 3559.1Z" fill="#EF86E8"/>
<mask id="mask6_1067_3934" style="mask-type:luminance" maskUnits="userSpaceOnUse" x="3638" y="3530" width="161" height="199">
<path d="M3638.32 3559.1C3638.32 3559.1 3658.48 3514.64 3718.78 3536.6C3718.78 3536.6 3775.75 3556.22 3792.85 3614.81C3809.95 3673.4 3788.53 3725.69 3746.95 3727.85C3705.37 3730.01 3697.81 3726.77 3704.83 3713.99C3712.21 3700.04 3716.33 3684.6 3716.89 3668.82C3717.45 3653.05 3714.44 3637.35 3708.07 3622.91C3682.24 3561.08 3638.32 3559.1 3638.32 3559.1Z" fill="white"/>
</mask>
<g mask="url(#mask6_1067_3934)">
<g opacity="0.2">
<path d="M3638.32 3559.1C3638.32 3559.1 3658.48 3514.64 3718.78 3536.6C3718.78 3536.6 3775.75 3556.22 3792.85 3614.81C3809.95 3673.4 3788.53 3725.69 3746.95 3727.85C3705.37 3730.01 3697.81 3726.77 3704.83 3713.99C3712.21 3700.04 3716.33 3684.6 3716.89 3668.82C3717.45 3653.05 3714.44 3637.35 3708.07 3622.91C3682.24 3561.08 3638.32 3559.1 3638.32 3559.1Z" fill="black"/>
</g>
</g>
<path d="M3638.32 3559.1C3638.32 3559.1 3658.48 3514.64 3718.78 3536.6C3718.78 3536.6 3775.75 3556.22 3792.85 3614.81C3809.95 3673.4 3788.53 3725.69 3746.95 3727.85C3705.37 3730.01 3697.81 3726.77 3704.83 3713.99C3712.21 3700.04 3716.33 3684.6 3716.89 3668.82C3717.45 3653.05 3714.44 3637.35 3708.07 3622.91C3682.24 3561.08 3638.32 3559.1 3638.32 3559.1Z" stroke="#263238" stroke-linecap="round" stroke-linejoin="round"/>
<path d="M880.657 3376.12C880.657 3376.12 849.696 3111.43 576 3218.53C576 3218.53 808.925 3216.82 848.346 3416.53L884.347 3412.66L880.657 3376.12Z" fill="#92E3A9"/>
<path opacity="0.1" d="M880.657 3376.12C880.657 3376.12 849.696 3111.43 576 3218.53C576 3218.53 808.925 3216.82 848.346 3416.53L884.347 3412.66L880.657 3376.12Z" fill="black"/>
<path d="M884.437 3371.53C884.437 3371.53 860.766 3089.29 809.195 2869.95C809.195 2869.95 966.698 3036.55 930.698 3350.2L884.437 3371.53Z" fill="#92E3A9"/>
<path opacity="0.1" d="M884.437 3371.53C884.437 3371.53 860.766 3089.29 809.195 2869.95C809.195 2869.95 966.698 3036.55 930.698 3350.2L884.437 3371.53Z" fill="black"/>
<path d="M869.136 3558.56C869.136 3558.56 824.135 3169.75 672.662 3036.55C672.662 3036.55 942.668 3103.78 902.887 3516.71L869.136 3558.56Z" fill="#92E3A9"/>
<path d="M916.657 3542.54C916.657 3542.54 982.809 3156.7 1140.85 3031.51C1140.85 3031.51 867.426 3084.07 885.247 3498.62L916.657 3542.54Z" fill="#92E3A9"/>
<path d="M1055.35 3416H735.844V3471.53H746.464V3667.46C746.463 3693.76 756.88 3718.99 775.433 3737.63C793.987 3756.26 819.168 3766.79 845.466 3766.91H944.468C970.853 3766.91 996.158 3756.44 1014.82 3737.79C1033.49 3719.14 1043.99 3693.85 1044.01 3667.46V3471.53H1054.63L1055.35 3416Z" fill="white" stroke="#263238" stroke-miterlimit="10"/>
<path d="M956.348 3468.91H998.829Z" fill="white"/>
<path d="M956.348 3468.91H998.829" stroke="#263238" stroke-miterlimit="10"/>
<path d="M789.755 3468.91H912.697Z" fill="white"/>
<path d="M789.755 3468.91H912.697" stroke="#263238" stroke-miterlimit="10"/>
<path d="M2136.72 3522.47L2054.82 2855.55C2053.27 2845.12 2048.1 2835.57 2040.22 2828.56C2032.34 2821.56 2022.25 2817.54 2011.71 2817.21H1917.93L2026.47 3560.54H2103.24C2108.07 3560.63 2112.85 3559.67 2117.27 3557.72C2121.69 3555.77 2125.62 3552.89 2128.81 3549.26C2132 3545.64 2134.36 3541.37 2135.72 3536.74C2137.09 3532.11 2137.43 3527.24 2136.72 3522.47Z" fill="#202225" stroke="#263238" stroke-linecap="round" stroke-linejoin="round"/>
<path d="M2082.72 3560.54H1139.14C1128.62 3560.19 1118.55 3556.16 1110.69 3549.16C1102.83 3542.15 1097.67 3532.61 1096.12 3522.2L1014.22 2855.28C1013.5 2850.51 1013.83 2845.63 1015.19 2840.99C1016.55 2836.36 1018.91 2832.08 1022.1 2828.45C1025.29 2824.82 1029.23 2821.94 1033.65 2820C1038.08 2818.05 1042.87 2817.1 1047.7 2817.21H1991.64C2002.16 2817.56 2012.23 2821.59 2020.09 2828.59C2027.95 2835.6 2033.11 2845.14 2034.66 2855.55L2116.56 3522.47C2117.28 3527.27 2116.93 3532.17 2115.54 3536.83C2114.15 3541.48 2111.76 3545.78 2108.53 3549.41C2105.31 3553.04 2101.32 3555.91 2096.86 3557.84C2092.4 3559.76 2087.58 3560.68 2082.72 3560.54Z" fill="#263238"/>
<mask id="mask7_1067_3934" style="mask-type:luminance" maskUnits="userSpaceOnUse" x="1013" y="2817" width="1104" height="744">
<path d="M2082.72 3560.54H1139.14C1128.62 3560.19 1118.55 3556.16 1110.69 3549.16C1102.83 3542.15 1097.67 3532.61 1096.12 3522.2L1014.22 2855.28C1013.5 2850.51 1013.83 2845.63 1015.19 2840.99C1016.55 2836.36 1018.91 2832.08 1022.1 2828.45C1025.29 2824.82 1029.23 2821.94 1033.65 2820C1038.08 2818.05 1042.87 2817.1 1047.7 2817.21H1991.64C2002.16 2817.56 2012.23 2821.59 2020.09 2828.59C2027.95 2835.6 2033.11 2845.14 2034.66 2855.55L2116.56 3522.47C2117.28 3527.27 2116.93 3532.17 2115.54 3536.83C2114.15 3541.48 2111.76 3545.78 2108.53 3549.41C2105.31 3553.04 2101.32 3555.91 2096.86 3557.84C2092.4 3559.76 2087.58 3560.68 2082.72 3560.54Z" fill="white"/>
</mask>
<g mask="url(#mask7_1067_3934)">
<path opacity="0.1" d="M2082.72 3560.54H1139.14C1128.62 3560.19 1118.55 3556.16 1110.69 3549.16C1102.83 3542.15 1097.67 3532.61 1096.12 3522.2L1014.22 2855.28C1013.5 2850.51 1013.83 2845.63 1015.19 2840.99C1016.55 2836.36 1018.91 2832.08 1022.1 2828.45C1025.29 2824.82 1029.23 2821.94 1033.65 2820C1038.08 2818.05 1042.87 2817.1 1047.7 2817.21H1991.64C2002.16 2817.56 2012.23 2821.59 2020.09 2828.59C2027.95 2835.6 2033.11 2845.14 2034.66 2855.55L2116.56 3522.47C2117.28 3527.27 2116.93 3532.17 2115.54 3536.83C2114.15 3541.48 2111.76 3545.78 2108.53 3549.41C2105.31 3553.04 2101.32 3555.91 2096.86 3557.84C2092.4 3559.76 2087.58 3560.68 2082.72 3560.54Z" fill="white"/>
</g>
<path d="M2082.72 3560.54H1139.14C1128.62 3560.19 1118.55 3556.16 1110.69 3549.16C1102.83 3542.15 1097.67 3532.61 1096.12 3522.2L1014.22 2855.28C1013.5 2850.51 1013.83 2845.63 1015.19 2840.99C1016.55 2836.36 1018.91 2832.08 1022.1 2828.45C1025.29 2824.82 1029.23 2821.94 1033.65 2820C1038.08 2818.05 1042.87 2817.1 1047.7 2817.21H1991.64C2002.16 2817.56 2012.23 2821.59 2020.09 2828.59C2027.95 2835.6 2033.11 2845.14 2034.66 2855.55L2116.56 3522.47C2117.28 3527.27 2116.93 3532.17 2115.54 3536.83C2114.15 3541.48 2111.76 3545.78 2108.53 3549.41C2105.31 3553.04 2101.32 3555.91 2096.86 3557.84C2092.4 3559.76 2087.58 3560.68 2082.72 3560.54Z" stroke="#263238" stroke-linecap="round" stroke-linejoin="round"/>
<path d="M1642.88 3712.37L1680.59 3282.79C1680.75 3280.33 1680.41 3277.86 1679.57 3275.54C1678.74 3273.22 1677.44 3271.1 1675.75 3269.3C1674.07 3267.5 1672.03 3266.07 1669.76 3265.09C1667.5 3264.12 1665.06 3263.62 1662.59 3263.62H1424.72C1420.25 3263.6 1415.94 3265.23 1412.61 3268.21C1409.29 3271.19 1407.19 3275.29 1406.72 3279.73L1365.68 3747.74C1365.52 3750.2 1365.86 3752.67 1366.7 3754.99C1367.53 3757.31 1368.83 3759.44 1370.52 3761.23C1372.2 3763.03 1374.24 3764.46 1376.51 3765.44C1378.77 3766.42 1381.21 3766.92 1383.68 3766.91H1855.65C1860.42 3766.91 1865 3765.02 1868.38 3761.64C1871.75 3758.26 1873.65 3753.69 1873.65 3748.91C1873.65 3744.14 1871.75 3739.56 1868.38 3736.18C1865 3732.81 1860.42 3730.91 1855.65 3730.91H1660.43C1658.06 3730.85 1655.72 3730.33 1653.56 3729.36C1651.39 3728.4 1649.43 3727.01 1647.8 3725.29C1646.17 3723.57 1644.9 3721.54 1644.05 3719.32C1643.21 3717.1 1642.81 3714.74 1642.88 3712.37Z" fill="#263238" stroke="#263238" stroke-linecap="round" stroke-linejoin="round"/>
<path d="M1873.29 3749.54C1873.29 3744.77 1871.39 3740.19 1868.02 3736.81C1864.64 3733.44 1860.06 3731.54 1855.29 3731.54H1660.43C1657.96 3731.55 1655.51 3731.04 1653.24 3730.06C1650.97 3729.08 1648.93 3727.64 1647.24 3725.83C1645.55 3724.02 1644.25 3721.89 1643.42 3719.56C1642.6 3717.22 1642.26 3714.75 1642.43 3712.28L1680.14 3282.7C1680.92 3280.14 1681.11 3277.43 1680.71 3274.79C1680.31 3272.14 1679.32 3269.62 1677.82 3267.4C1676.32 3265.18 1674.34 3263.33 1672.04 3261.97C1669.73 3260.61 1667.15 3259.79 1664.48 3259.56C1661.81 3259.32 1659.12 3259.69 1656.62 3260.63C1654.11 3261.56 1651.84 3263.05 1649.98 3264.97C1648.12 3266.9 1646.71 3269.21 1645.85 3271.75C1645 3274.29 1644.72 3276.98 1645.04 3279.64L1604 3747.65C1603.84 3750.07 1604.18 3752.5 1604.98 3754.79C1605.79 3757.08 1607.05 3759.19 1608.69 3760.98C1610.33 3762.77 1612.31 3764.21 1614.52 3765.22C1616.73 3766.22 1619.13 3766.77 1621.55 3766.82H1855.56C1860.16 3766.76 1864.57 3764.93 1867.87 3761.71C1871.16 3758.5 1873.1 3754.14 1873.29 3749.54Z" fill="#202225" stroke="#263238" stroke-linecap="round" stroke-linejoin="round"/>
<path d="M791.195 3766.91H4166.27" stroke="#263238" stroke-linecap="round" stroke-linejoin="round"/>
<path d="M3940.45 2132.48H3763.06C3752.01 2132.48 3741.41 2136.87 3733.59 2144.69C3725.78 2152.5 3721.39 2163.1 3721.39 2174.15V2260.55C3721.39 2271.61 3725.78 2282.2 3733.59 2290.02C3741.41 2297.83 3752.01 2302.22 3763.06 2302.22H3809.41L3823 2381.88L3894.1 2302.22H3940.45C3945.93 2302.24 3951.36 2301.17 3956.43 2299.08C3961.49 2296.99 3966.1 2293.92 3969.98 2290.05C3973.86 2286.18 3976.93 2281.58 3979.03 2276.52C3981.13 2271.46 3982.21 2266.03 3982.21 2260.55V2174.51C3982.25 2169 3981.2 2163.55 3979.11 2158.45C3977.03 2153.35 3973.96 2148.71 3970.08 2144.81C3966.2 2140.9 3961.58 2137.8 3956.5 2135.68C3951.41 2133.57 3945.96 2132.48 3940.45 2132.48Z" fill="white" stroke="#263238" stroke-linecap="round" stroke-linejoin="round"/>
<path d="M3323.22 1966.7H3155.64C3145.18 1966.7 3135.15 1970.85 3127.76 1978.24C3120.37 1985.63 3116.21 1995.66 3116.21 2006.12V2087.66C3116.21 2098.11 3120.37 2108.14 3127.76 2115.53C3135.15 2122.93 3145.18 2127.08 3155.64 2127.08H3199.47L3245.19 2202.23L3279.39 2127.08H3323.22C3333.67 2127.08 3343.7 2122.93 3351.09 2115.53C3358.49 2108.14 3362.64 2098.11 3362.64 2087.66V2006.12C3362.64 1995.66 3358.49 1985.63 3351.09 1978.24C3343.7 1970.85 3333.67 1966.7 3323.22 1966.7Z" fill="white" stroke="#263238" stroke-linecap="round" stroke-linejoin="round"/>
<path d="M3179.06 2058.26V2046.73L3227.21 2028.73V2040.43L3194.27 2052.13L3227.3 2063.93V2075.63L3179.06 2058.26Z" fill="#263238"/>
<path d="M3254.06 2075.82V2064.12L3287.09 2052.33L3254.06 2040.54V2028.84L3302.21 2046.84V2058.36L3254.06 2075.82Z" fill="#263238"/>
<path d="M3768.55 2225.63V2214.11L3816.7 2196.11V2207.81L3783.76 2219.51L3816.79 2231.3V2243L3768.55 2225.63Z" fill="#263238"/>
<path d="M3864.04 2168.21H3877.99L3837.76 2271.53H3823.72L3864.04 2168.21Z" fill="#263238"/>
<path d="M3884.65 2243.36V2231.66L3917.68 2219.87L3884.65 2208.08V2196.38L3932.8 2214.38V2225.9L3884.65 2243.36Z" fill="#263238"/>
<circle cx="1158.06" cy="780.262" r="26" fill="#D23636"/>
<circle cx="1225.95" cy="780.262" r="26" fill="#FDB600"/>
<circle cx="1293.84" cy="780.262" r="26" fill="#27E908"/>
</svg>
