<svg width="5870" height="5378" viewBox="0 0 5870 5378" fill="none" xmlns="http://www.w3.org/2000/svg">
<path d="M1561.78 4319.5C2320.16 4716.05 3549.82 4716.05 4308.2 4319.5C5066.58 3922.95 5066.58 3280.89 4308.2 2884.69C3549.82 2488.5 2320.16 2488.14 1561.78 2884.69C803.405 3281.24 803.405 3923.3 1561.78 4319.5Z" fill="#F5F5F5"/>
<path d="M3618.2 4010.1C3817.21 4010.1 3978.53 3916.95 3978.53 3802.05C3978.53 3687.14 3817.21 3593.99 3618.2 3593.99C3419.2 3593.99 3257.87 3687.14 3257.87 3802.05C3257.87 3916.95 3419.2 4010.1 3618.2 4010.1Z" fill="#E0E0E0"/>
<path d="M4276.65 3651.01C4452.68 3651.01 4595.39 3568.63 4595.39 3467.01C4595.39 3365.39 4452.68 3283.01 4276.65 3283.01C4100.62 3283.01 3957.91 3365.39 3957.91 3467.01C3957.91 3568.63 4100.62 3651.01 4276.65 3651.01Z" fill="#E0E0E0"/>
<path d="M3993.51 1105.51L4049.91 1138.03C4049.56 1135.54 4049.39 1133.04 4049.38 1130.53V1114.23C4049.38 1085.15 4069.83 1073.43 4094.94 1087.8C4105.83 1094.49 4115.1 1103.52 4122.08 1114.23C4126.23 1077.66 4154.87 1064.09 4189.67 1084.18C4209.5 1097.11 4226 1114.54 4237.84 1135.04C4249.67 1155.54 4256.51 1178.54 4257.79 1202.18V1226.59C4258.06 1236.36 4256.1 1246.06 4252.06 1254.96L4298.86 1281.93C4306.24 1286.76 4312.39 1293.27 4316.78 1300.93C4321.18 1308.59 4323.7 1317.17 4324.15 1325.99C4324.15 1342.12 4312.78 1348.64 4298.86 1340.53L3993.51 1164.29C3986.14 1159.45 3980.01 1152.93 3975.63 1145.28C3971.25 1137.62 3968.74 1129.04 3968.31 1120.22C3968.31 1103.92 3979.59 1097.4 3993.51 1105.51Z" fill="#EBEBEB"/>
<path d="M3752.41 1269.68L3794.97 1294.18C3794.7 1292.31 3794.55 1290.43 3794.53 1288.54V1276.29C3794.53 1254.35 3809.96 1245.45 3828.99 1256.37C3837.12 1261.44 3844.09 1268.16 3849.43 1276.11C3852.52 1248.53 3874.2 1238.31 3900.46 1253.46C3915.42 1263.23 3927.88 1276.38 3936.8 1291.86C3945.73 1307.34 3950.88 1324.71 3951.83 1342.56V1360.97C3952.04 1368.32 3950.56 1375.61 3947.51 1382.3L3982.76 1402.66C3988.3 1406.29 3992.91 1411.17 3996.22 1416.91C3999.52 1422.65 4001.43 1429.09 4001.8 1435.7C4001.8 1447.86 3992.98 1452.8 3982.76 1446.72L3752.32 1313.65C3746.77 1310.05 3742.15 1305.19 3738.84 1299.46C3735.54 1293.73 3733.63 1287.3 3733.29 1280.69C3733.38 1268.53 3741.84 1263.6 3752.41 1269.68Z" fill="#EBEBEB"/>
<path d="M1406.25 3898.45C1400.7 3901.45 1296.89 3930.97 1258.47 3880.12C1220.05 3829.28 1283.85 3750.23 1247.72 3721.06C1211.59 3691.89 1110.69 3721.06 1086.37 3659.82C1062.04 3598.57 1134.13 3571.69 1093.59 3510.01C1068.04 3471.06 996.657 3449.56 999.918 3413.07C1004.68 3360.2 1102.23 3345.75 1187.53 3402.59C1272.83 3459.43 1312.49 3412.81 1339.63 3409.02C1366.77 3405.23 1425.02 3413.6 1423.08 3508.6C1421.14 3603.59 1406.25 3898.45 1406.25 3898.45Z" fill="#455A64"/>
<path d="M1413.12 3763.36C1411.78 3763.36 1410.49 3762.88 1409.47 3762C1408.45 3761.13 1407.78 3759.93 1407.57 3758.6C1377.87 3578.31 1168.32 3431.58 1059.31 3400.12C1057.88 3399.67 1056.68 3398.69 1055.96 3397.38C1055.23 3396.06 1055.05 3394.52 1055.43 3393.07C1055.65 3392.36 1056 3391.7 1056.47 3391.12C1056.94 3390.54 1057.52 3390.06 1058.17 3389.71C1058.83 3389.36 1059.54 3389.14 1060.28 3389.07C1061.02 3388.99 1061.77 3389.07 1062.48 3389.28C1173.87 3421.45 1388.54 3571.78 1418.76 3756.75C1418.99 3758.24 1418.63 3759.75 1417.76 3760.97C1416.89 3762.19 1415.57 3763.01 1414.09 3763.27L1413.12 3763.36Z" fill="white"/>
<path d="M1166.03 3612.41C1165.05 3612.41 1164.09 3612.16 1163.24 3611.68C1162.39 3611.2 1161.68 3610.51 1161.18 3609.68C1160.43 3608.39 1160.21 3606.85 1160.57 3605.4C1160.94 3603.96 1161.85 3602.71 1163.12 3601.92C1166.56 3599.89 1247.19 3552.75 1326.59 3574.78C1327.31 3574.97 1327.98 3575.31 1328.57 3575.76C1329.16 3576.22 1329.65 3576.79 1330.02 3577.43C1330.39 3578.08 1330.63 3578.8 1330.72 3579.53C1330.81 3580.27 1330.75 3581.02 1330.55 3581.74C1330.37 3582.47 1330.04 3583.15 1329.59 3583.74C1329.14 3584.34 1328.57 3584.84 1327.92 3585.21C1327.27 3585.58 1326.55 3585.81 1325.8 3585.9C1325.06 3585.99 1324.31 3585.92 1323.59 3585.71C1248.86 3565 1169.73 3611.17 1168.94 3611.61C1168.06 3612.14 1167.05 3612.42 1166.03 3612.41Z" fill="white"/>
<path d="M4443.11 3419.77L4415.8 3406.91C4415.8 3406.91 4406.98 3308.3 4415.8 3242.47C4433.42 3119.89 4518.99 3014.23 4595.21 3001.81C4693.38 2985.86 4675.93 3076.18 4619.8 3115.22C4530.35 3177.79 4460.74 3272.34 4443.11 3419.77Z" fill="#92E3A9"/>
<g opacity="0.1">
<path d="M4443.11 3419.77L4415.8 3406.91C4415.8 3406.91 4406.98 3308.3 4415.8 3242.47C4433.42 3119.89 4518.99 3014.23 4595.21 3001.81C4693.38 2985.86 4675.93 3076.18 4619.8 3115.22C4530.35 3177.79 4460.74 3272.34 4443.11 3419.77Z" fill="black"/>
</g>
<path d="M4432.72 3380.47H4433.42C4434.66 3380.24 4435.75 3379.52 4436.46 3378.48C4437.17 3377.44 4437.44 3376.16 4437.21 3374.92C4418.17 3274.2 4501.1 3087.46 4612.04 3034.42C4613.21 3033.87 4614.11 3032.88 4614.55 3031.66C4614.99 3030.45 4614.93 3029.11 4614.38 3027.94C4613.83 3026.77 4612.84 3025.87 4611.62 3025.43C4610.41 3024.99 4609.07 3025.05 4607.9 3025.6C4493.34 3080.24 4408.22 3272.34 4427.78 3376.51C4427.97 3377.66 4428.58 3378.7 4429.49 3379.43C4430.4 3380.16 4431.55 3380.53 4432.72 3380.47Z" fill="white"/>
<path d="M4415.8 3406.91C4413.77 3392.28 4412.89 3370.95 4412.62 3365.67C4411.48 3347.1 4414.21 3328.49 4420.64 3311.03C4429.09 3287.96 4445.16 3268.46 4466.2 3255.78C4477.66 3249.17 4491.05 3244.41 4498.45 3233.48C4503.82 3223.41 4506.7 3212.2 4506.83 3200.79C4509.12 3182.37 4514.85 3162.9 4529.65 3151.62C4544.45 3140.34 4564.9 3140.07 4582.52 3142.01C4608.96 3144.83 4633.72 3148.36 4658.4 3136.29C4678.11 3125.82 4698.48 3116.63 4719.38 3108.79C4745.81 3099.98 4804.94 3086.76 4817.37 3123.86C4818.78 3128.98 4819.03 3134.35 4818.1 3139.58C4817.17 3144.81 4815.08 3149.76 4811.99 3154.09C4805.74 3162.68 4798.26 3170.32 4789.79 3176.73L4748.46 3211.1C4743.53 3214.72 4739.27 3219.16 4735.86 3224.23C4727.84 3237.98 4733.56 3255.34 4731.8 3271.11C4730.68 3279.14 4727.83 3286.82 4723.45 3293.64C4719.07 3300.46 4713.26 3306.24 4706.42 3310.59C4692.65 3319.22 4676.44 3323.14 4660.25 3321.78C4638.66 3320.28 4603.41 3303.72 4590.19 3329.18C4586.53 3337.86 4584.38 3347.1 4583.84 3356.5C4583.32 3365.94 4580.28 3375.07 4575.03 3382.94C4566.22 3393.69 4551.5 3396.77 4537.76 3398.18C4518.5 3398.53 4499.38 3401.49 4480.92 3407C4473.52 3409.9 4468.85 3419.33 4464.53 3425.59C4451.04 3421.1 4436.24 3415.72 4415.8 3406.91Z" fill="#92E3A9"/>
<path d="M4427.87 3399.51C4427.2 3399.67 4426.51 3399.67 4425.84 3399.51C4424.75 3399.06 4423.88 3398.19 4423.41 3397.1C4422.95 3396.02 4422.94 3394.79 4423.37 3393.69C4478.89 3255.78 4656.02 3156.99 4761.59 3124.21C4762.15 3124.04 4762.74 3123.98 4763.32 3124.03C4763.91 3124.09 4764.48 3124.26 4764.99 3124.54C4765.51 3124.82 4765.97 3125.2 4766.34 3125.66C4766.7 3126.12 4766.98 3126.64 4767.14 3127.21C4767.47 3128.33 4767.35 3129.54 4766.81 3130.57C4766.27 3131.61 4765.34 3132.4 4764.23 3132.76C4660.33 3165.01 4486.03 3261.95 4431.66 3397.13C4431.28 3397.81 4430.74 3398.39 4430.07 3398.81C4429.41 3399.23 4428.65 3399.47 4427.87 3399.51Z" fill="white"/>
<path d="M3171.86 3153.11C3172.79 3170.26 3177.75 3186.95 3186.34 3201.82C3194.93 3216.68 3206.91 3229.31 3221.3 3238.68C3229.67 3244.18 3239.8 3246.32 3249.68 3244.67C3248.09 3246.32 3246.28 3247.75 3244.3 3248.9L3256.2 3242.12L3256.81 3241.68L3258.58 3240.53C3259.37 3239.95 3260.11 3239.3 3260.78 3238.59L3262.1 3237.27C3262.1 3236.83 3262.89 3236.39 3263.25 3235.86C3264.89 3233.56 3266.25 3231.08 3267.3 3228.46L3268.18 3226.08C3268.22 3225.67 3268.22 3225.25 3268.18 3224.84C3268.4 3224.15 3268.57 3223.44 3268.71 3222.73C3269.63 3218.68 3270.07 3214.54 3270.03 3210.39C3269.1 3193.27 3264.15 3176.61 3255.58 3161.75C3247 3146.9 3235.05 3134.28 3220.68 3124.91C3214.05 3120.72 3206.41 3118.38 3198.56 3118.13H3195.48L3192.66 3118.66L3190.99 3119.1H3189.93C3189.22 3119.28 3188.54 3119.55 3187.9 3119.89L3186.05 3120.86L3175.74 3126.76C3177.41 3125.91 3179.19 3125.29 3181.03 3124.91C3174.41 3132.76 3171.12 3142.88 3171.86 3153.11Z" fill="#2824D5"/>
<path d="M2146.03 3721.68L2215.74 3842.76L2227.55 3835.88L3244.3 3248.9C3246.28 3247.75 3248.09 3246.33 3249.67 3244.67C3256.06 3236.89 3259.21 3226.96 3258.49 3216.92C3257.53 3199.77 3252.56 3183.1 3243.98 3168.23C3235.39 3153.37 3223.42 3140.73 3209.05 3131.35C3202.39 3127.22 3194.76 3124.91 3186.93 3124.65C3184.82 3124.62 3182.72 3124.86 3180.67 3125.36C3178.84 3125.73 3177.06 3126.36 3175.39 3127.21L3174.51 3127.65L2146.03 3721.68Z" fill="#EBEBEB"/>
<path d="M2181.02 3725.11C2153.7 3709.34 2131.58 3722.12 2131.58 3753.58C2132.51 3770.72 2137.47 3787.41 2146.06 3802.28C2154.65 3817.15 2166.62 3829.78 2181.02 3839.14C2208.25 3854.92 2230.37 3842.14 2230.37 3810.59C2229.44 3793.47 2224.49 3776.8 2215.91 3761.95C2207.34 3747.1 2195.38 3734.48 2181.02 3725.11Z" fill="#2824D5"/>
<path d="M2074.83 3798.52C2075.17 3797.99 2075.59 3797.52 2076.06 3797.11L2139.07 3727.76L2139.6 3727.23L2140.75 3725.99L2141.36 3725.29C2150.17 3716.48 2164.63 3715.95 2180.84 3725.29C2195.21 3734.66 2207.16 3747.28 2215.73 3762.13C2224.31 3776.98 2229.26 3793.64 2230.19 3810.77C2230.19 3829.1 2222.7 3840.99 2211.16 3844.78H2210.45C2209.27 3845.13 2208.06 3845.4 2206.84 3845.58H2206.04L2114.75 3865.49C2109.19 3866.42 2103.48 3865.19 2098.8 3862.05C2090.58 3856.72 2083.73 3849.51 2078.81 3841.03C2073.9 3832.55 2071.05 3823.02 2070.51 3813.24C2070.22 3807.98 2071.74 3802.78 2074.83 3798.52Z" fill="#E0E0E0"/>
<path d="M2882.47 3348.74L2884.14 3347.77C2886.05 3347.13 2888.08 3346.95 2890.07 3347.24C2892.06 3347.53 2893.96 3348.29 2895.6 3349.45C2900.72 3352.77 2904.99 3357.26 2908.05 3362.54C2911.12 3367.82 2912.89 3373.75 2913.22 3379.85C2913.38 3381.81 2913.09 3383.78 2912.37 3385.62C2911.66 3387.45 2910.53 3389.09 2909.08 3390.43L2906.88 3391.66L2156.34 3824.96L2107 3796.4L2882.47 3348.74Z" fill="#455A64"/>
<path d="M2225.96 3784.6L2156.26 3824.87L2106.91 3796.32L2201.29 3741.77C2212.4 3754.17 2220.81 3768.76 2225.96 3784.6Z" fill="#37474F"/>
<path d="M2049.98 3831.39L2107 3768.21L2108.49 3766.53C2114.84 3760.19 2125.06 3759.66 2136.69 3766.53C2146.92 3773.11 2155.45 3782.02 2161.58 3792.52C2167.71 3803.03 2171.26 3814.84 2171.94 3826.98C2171.94 3839.85 2166.74 3848.22 2158.63 3850.95H2158.11L2155.81 3851.48L2071.75 3869.99C2068.67 3870.37 2065.56 3869.69 2062.93 3868.05C2058.31 3865.02 2054.47 3860.94 2051.71 3856.15C2048.96 3851.36 2047.37 3845.99 2047.07 3840.47C2046.81 3837.18 2047.85 3833.91 2049.98 3831.39Z" fill="#2824D5"/>
<path opacity="0.1" d="M2049.98 3831.39L2107 3768.21L2108.49 3766.53C2114.84 3760.19 2125.06 3759.66 2136.69 3766.53C2146.92 3773.11 2155.45 3782.02 2161.58 3792.52C2167.71 3803.03 2171.26 3814.84 2171.94 3826.98C2171.94 3839.85 2166.74 3848.22 2158.63 3850.95H2158.11L2155.81 3851.48L2071.75 3869.99C2068.67 3870.37 2065.56 3869.69 2062.93 3868.05C2058.31 3865.02 2054.47 3860.94 2051.71 3856.15C2048.96 3851.36 2047.37 3845.99 2047.07 3840.47C2046.81 3837.18 2047.85 3833.91 2049.98 3831.39Z" fill="black"/>
<path d="M2046.81 3840.47C2047.1 3845.99 2048.69 3851.36 2051.45 3856.15C2054.21 3860.94 2058.05 3865.02 2062.67 3868.05C2065.29 3869.72 2068.42 3870.37 2071.48 3869.9L2113.78 3860.65C2120.48 3859.24 2124.88 3852.98 2124.88 3843.02C2124.42 3834.2 2121.88 3825.61 2117.47 3817.95C2113.06 3810.3 2106.9 3803.79 2099.51 3798.96C2096.62 3796.65 2093.03 3795.39 2089.33 3795.39C2085.63 3795.39 2082.04 3796.65 2079.15 3798.96L2078 3800.2L2049.63 3831.39C2048.57 3832.64 2047.78 3834.08 2047.29 3835.64C2046.81 3837.2 2046.64 3838.84 2046.81 3840.47Z" fill="#2824D5"/>
<path opacity="0.1" d="M2062.93 3831.3C2054.12 3826.28 2047.07 3830.33 2047.07 3840.11C2047.37 3845.63 2048.96 3851.01 2051.71 3855.8C2054.47 3860.59 2058.31 3864.66 2062.93 3867.7C2071.75 3872.72 2078.8 3868.58 2078.8 3858.44C2078.43 3853 2076.81 3847.72 2074.06 3843.01C2071.31 3838.3 2067.5 3834.29 2062.93 3831.3Z" fill="black"/>
<path d="M3069.02 3240.79C3071.02 3239.87 3073.22 3239.49 3075.41 3239.71C3077.59 3239.93 3079.68 3240.73 3081.45 3242.03C3086.56 3245.33 3090.81 3249.78 3093.87 3255.03C3096.94 3260.29 3098.72 3266.18 3099.07 3272.25C3099.32 3274.42 3098.97 3276.61 3098.07 3278.6C3097.17 3280.58 3095.75 3282.29 3093.96 3283.53L2908.91 3390.16C2910.35 3388.83 2911.48 3387.18 2912.2 3385.35C2912.92 3383.52 2913.21 3381.55 2913.05 3379.59C2912.71 3373.49 2910.94 3367.56 2907.88 3362.27C2904.82 3356.99 2900.55 3352.51 2895.42 3349.18C2893.78 3348.02 2891.89 3347.27 2889.9 3346.97C2887.91 3346.68 2885.87 3346.87 2883.97 3347.51L3069.02 3240.79Z" fill="#FAFAFA"/>
<path d="M3063.91 3252.08C3064.27 3258.16 3066.05 3264.07 3069.11 3269.33C3072.17 3274.6 3076.43 3279.07 3081.54 3282.39C3083.21 3283.92 3085.32 3284.88 3087.57 3285.13C3089.82 3285.38 3092.1 3284.9 3094.06 3283.78C3096.02 3282.65 3097.58 3280.92 3098.5 3278.85C3099.41 3276.78 3099.65 3274.47 3099.16 3272.26C3098.81 3266.19 3097.03 3260.29 3093.96 3255.04C3090.9 3249.78 3086.64 3245.33 3081.54 3242.03C3079.87 3240.51 3077.77 3239.56 3075.53 3239.31C3073.29 3239.06 3071.03 3239.53 3069.07 3240.65C3067.12 3241.76 3065.56 3243.47 3064.64 3245.52C3063.71 3247.58 3063.46 3249.87 3063.91 3252.08Z" fill="#F5F5F5"/>
<path d="M3102.78 3177.79H3103.39L3104.1 3177.35L3176.97 3135.31L3178.74 3134.34C3183.68 3132.42 3189.02 3131.76 3194.29 3132.42C3199.55 3133.08 3204.56 3135.05 3208.87 3138.13C3221.75 3146.59 3232.45 3157.96 3240.1 3171.33C3247.76 3184.7 3252.15 3199.68 3252.94 3215.06C3253.52 3220.61 3252.62 3226.22 3250.31 3231.31C3248 3236.39 3244.37 3240.76 3239.81 3243.97L3166.05 3286.53H3165.61C3160.6 3288.63 3155.14 3289.42 3149.74 3288.82C3144.34 3288.21 3139.19 3286.24 3134.76 3283.09C3121.9 3274.61 3111.21 3263.21 3103.55 3249.84C3095.9 3236.46 3091.5 3221.47 3090.7 3206.08C3090.16 3200.72 3090.98 3195.32 3093.09 3190.38C3095.2 3185.43 3098.54 3181.1 3102.78 3177.79Z" fill="#2824D5"/>
<path opacity="0.05" d="M3102.78 3177.79H3103.39L3104.1 3177.35L3176.97 3135.31L3178.74 3134.34C3183.68 3132.42 3189.02 3131.76 3194.29 3132.42C3199.55 3133.08 3204.56 3135.05 3208.87 3138.13C3221.75 3146.59 3232.45 3157.96 3240.1 3171.33C3247.76 3184.7 3252.15 3199.68 3252.94 3215.06C3253.52 3220.61 3252.62 3226.22 3250.31 3231.31C3248 3236.39 3244.37 3240.76 3239.81 3243.97L3166.05 3286.53H3165.61C3160.6 3288.63 3155.14 3289.42 3149.74 3288.82C3144.34 3288.21 3139.19 3286.24 3134.76 3283.09C3121.9 3274.61 3111.21 3263.21 3103.55 3249.84C3095.9 3236.46 3091.5 3221.47 3090.7 3206.08C3090.16 3200.72 3090.98 3195.32 3093.09 3190.38C3095.2 3185.43 3098.54 3181.1 3102.78 3177.79Z" fill="black"/>
<path opacity="0.1" d="M3135.29 3179.81C3110.79 3165.62 3091.23 3177.17 3091.23 3205.46C3092.03 3220.85 3096.43 3235.84 3104.08 3249.22C3111.74 3262.6 3122.43 3273.99 3135.29 3282.47C3159.88 3296.66 3179.79 3285.12 3179.79 3256.83C3178.96 3241.4 3174.49 3226.38 3166.76 3213C3159.03 3199.62 3148.25 3188.25 3135.29 3179.81Z" fill="black"/>
<path d="M2026.63 3857.91L2056.77 3839.76C2057.69 3839.26 2058.74 3839.03 2059.78 3839.11C2060.83 3839.19 2061.83 3839.57 2062.67 3840.2C2065.07 3841.72 2067.07 3843.79 2068.5 3846.25C2069.92 3848.7 2070.74 3851.47 2070.87 3854.3C2070.95 3855.31 2070.77 3856.33 2070.36 3857.25C2069.94 3858.18 2069.3 3858.98 2068.49 3859.59L2038.44 3877.74C2036.7 3878.66 2034.76 3879.14 2032.8 3879.15C2029.74 3879.15 2026.8 3877.94 2024.63 3875.77C2022.47 3873.61 2021.25 3870.67 2021.25 3867.61C2021.26 3865.67 2021.75 3863.76 2022.69 3862.07C2023.63 3860.37 2024.99 3858.94 2026.63 3857.91Z" fill="#455A64"/>
<path d="M2024.87 3859.23L2026.45 3857.91C2027.34 3857.65 2028.28 3857.59 2029.2 3857.74C2030.11 3857.89 2030.98 3858.25 2031.74 3858.79C2034.12 3860.32 2036.11 3862.4 2037.52 3864.85C2038.93 3867.31 2039.73 3870.06 2039.85 3872.89C2039.95 3873.88 2039.79 3874.89 2039.39 3875.8C2038.99 3876.71 2038.36 3877.5 2037.55 3878.09H2036.94H2036.32C2035.15 3878.56 2033.88 3878.77 2032.62 3878.71C2029.56 3878.71 2026.62 3877.49 2024.46 3875.33C2022.29 3873.16 2021.08 3870.23 2021.08 3867.17C2021.26 3864.13 2022.62 3861.29 2024.87 3859.23Z" fill="#263238"/>
<path d="M1443.17 3938.37L1412.42 3920.75C1407.3 3917.42 1403.03 3912.94 1399.97 3907.65C1396.91 3902.37 1395.14 3896.44 1394.79 3890.35V1611.77C1395.13 1605.67 1396.9 1599.74 1399.96 1594.46C1403.03 1589.18 1407.29 1584.69 1412.42 1581.37L2825.9 765.271C2831.35 762.479 2837.39 761.023 2843.52 761.023C2849.65 761.023 2855.69 762.479 2861.14 765.271L2891.9 782.896C2897.02 786.223 2901.28 790.709 2904.34 795.991C2907.41 801.273 2909.18 807.202 2909.52 813.298V3091.87C2909.2 3097.97 2907.43 3103.91 2904.36 3109.19C2901.3 3114.47 2897.03 3118.96 2891.9 3122.27L1478.24 3938.37C1472.82 3941.15 1466.81 3942.6 1460.71 3942.6C1454.61 3942.6 1448.6 3941.15 1443.17 3938.37Z" fill="#455A64"/>
<path opacity="0.4" d="M2908.91 810.565C2907.76 801.752 2900.1 798.139 2891.28 803.25L1478.24 1619.35C1473.09 1622.6 1468.82 1627.09 1465.82 1632.39L1399.9 1594.41C1402.91 1589.1 1407.17 1584.62 1412.33 1581.37L2825.9 765.27C2831.35 762.464 2837.39 761 2843.52 761C2849.65 761 2855.69 762.464 2861.15 765.27L2891.99 782.894C2896.63 786.024 2900.54 790.115 2903.46 794.889C2906.38 799.663 2908.24 805.009 2908.91 810.565Z" fill="white"/>
<path opacity="0.15" d="M1475.16 3939.78C1474.81 3939.85 1474.45 3939.85 1474.1 3939.78L1472.34 3940.4H1471.64C1470.58 3940.4 1469.52 3940.92 1468.37 3941.19C1461.39 3942.51 1454.18 3941.93 1447.49 3939.51C1446.16 3939.01 1444.86 3938.43 1443.61 3937.75L1412.77 3920.13C1407.67 3916.79 1403.41 3912.3 1400.35 3907.02C1397.29 3901.74 1395.51 3895.82 1395.15 3889.73V1611.77C1395.35 1605.56 1397.1 1599.5 1400.26 1594.14L1466.17 1632.13C1462.91 1637.44 1461.12 1643.52 1460.97 1649.75V3928.32C1460.78 3931.63 1461.75 3934.9 1463.7 3937.58C1464.79 3938.94 1466.26 3939.96 1467.92 3940.49C1469.58 3941.03 1471.37 3941.05 1473.05 3940.57C1473.77 3940.38 1474.48 3940.11 1475.16 3939.78Z" fill="black"/>
<path d="M2467.77 1184.82L2465.21 1183.23L2436.04 1166.49C2425.44 1160.57 2413.91 1156.49 2401.94 1154.42C2396.92 1153.27 2392.42 1151.95 2388.46 1150.63C2384.06 1149.19 2379.76 1147.45 2375.59 1145.43L2377.71 1142.7L2344.93 1123.57C2342.16 1122.03 2339.19 1120.87 2336.11 1120.14C2323.69 1117.05 2305.09 1124.28 2286.59 1122.16C2279.85 1121.51 2273.34 1119.37 2267.53 1115.91C2261.71 1112.46 2256.72 1107.76 2252.93 1102.16C2241.65 1087 2234.86 1060.48 2224.9 1038.45L2233.72 1025.67C2232.83 1025.12 2231.92 1024.62 2230.98 1024.17L2200.76 1006.55C2195.66 1003.54 2189.85 1001.96 2183.93 1001.96C2172.63 1002.56 2161.69 1006.12 2152.2 1012.28C2079.85 1054.13 2077.39 1153.27 2051.3 1218.66C2025.22 1284.04 1988.3 1304.4 1968.2 1332.51C1948.11 1360.62 1946.7 1381.42 1902.2 1442.75C1857.7 1504.08 1855.94 1519.07 1855.94 1530.87V1622.26L1888.89 1641.29L2481.25 1299.11L2467.77 1184.82ZM1924.58 1537.31C1916.92 1541.62 1910.57 1535.72 1910.57 1523.82C1910.5 1518.13 1911.72 1512.5 1914.15 1507.36C1916.58 1502.21 1920.14 1497.69 1924.58 1494.13C1932.25 1489.72 1938.51 1495.8 1938.51 1507.7C1938.57 1513.34 1937.35 1518.92 1934.94 1524.02C1932.52 1529.12 1928.98 1533.6 1924.58 1537.13V1537.31ZM2184.81 1280.78C2181.07 1283.51 2176.76 1285.32 2172.2 1286.09C2167.64 1286.86 2162.97 1286.56 2158.55 1285.2C2154.13 1283.85 2150.08 1281.49 2146.73 1278.31C2143.38 1275.13 2140.82 1271.21 2139.25 1266.86C2116.25 1271.27 2099.15 1249.24 2099.15 1210.99C2099.15 1166.05 2122.86 1116.08 2152.03 1099.16C2155.77 1096.44 2160.09 1094.63 2164.65 1093.87C2169.21 1093.11 2173.89 1093.42 2178.31 1094.78C2182.73 1096.14 2186.77 1098.51 2190.12 1101.7C2193.47 1104.89 2196.02 1108.82 2197.59 1113.17C2220.58 1108.59 2237.59 1130.8 2237.59 1168.96C2237.59 1213.72 2214.06 1263.69 2184.81 1280.61V1280.78ZM2381.58 1273.38C2373.83 1277.88 2367.57 1271.88 2367.57 1259.99C2367.43 1254.29 2368.63 1248.63 2371.06 1243.48C2373.49 1238.32 2377.1 1233.8 2381.58 1230.29C2389.34 1225.8 2395.6 1231.79 2395.6 1243.68C2395.7 1249.35 2394.49 1254.97 2392.06 1260.09C2389.63 1265.21 2386.04 1269.7 2381.58 1273.2V1273.38Z" fill="#455A64"/>
<path opacity="0.5" d="M1921.94 1553.43L1858.23 1516.69C1856.78 1521.28 1856.06 1526.06 1856.11 1530.88V1622.26L1889.07 1641.29L1921.94 1622.26V1553.43Z" fill="#37474F"/>
<path opacity="0.5" d="M1987.41 1439.4L2020.37 1363.35L1968.03 1332.69C1952.69 1353.92 1948.2 1371.11 1927.58 1404.86L1987.41 1439.4Z" fill="#37474F"/>
<path opacity="0.5" d="M2119.16 1287.39L2123.39 1265.19C2108.85 1259.11 2099.15 1239.46 2099.15 1210.82C2099.15 1172.66 2116.25 1130.98 2139.25 1108.86L2093.6 1082.42C2074.21 1126.48 2067.16 1179.36 2051.13 1218.75C2047.78 1227.56 2044.16 1234.87 2040.55 1241.92L2119.16 1287.39Z" fill="#37474F"/>
<path d="M2467.77 1184.82L2465.21 1183.23C2455.51 1178.73 2445.31 1175.42 2434.81 1173.36C2417.59 1170.34 2401.54 1162.59 2388.46 1150.98C2385.15 1147.99 2381.54 1145.33 2377.71 1143.05C2374.97 1141.42 2372 1140.23 2368.9 1139.52C2348.98 1134.68 2312.67 1156.44 2286.59 1122.6C2286.28 1122.29 2286.01 1121.93 2285.8 1121.55C2267.55 1097.05 2260.86 1042.24 2233.54 1026.11C2232.66 1025.56 2231.75 1025.06 2230.81 1024.61C2219.53 1019.33 2204.9 1020.29 2184.81 1031.75C2112.46 1073.61 2109.99 1172.75 2083.91 1238.13C2057.82 1303.52 2020.99 1323.88 2000.9 1351.99C1980.81 1380.1 1979.48 1400.89 1934.89 1462.23C1890.3 1523.56 1888.72 1538.63 1888.72 1550.35V1641.82L2481.07 1299.64V1207.82C2481.52 1203.08 2480.48 1198.32 2478.1 1194.19C2475.71 1190.07 2472.1 1186.79 2467.77 1184.82ZM1957.19 1556.34C1949.43 1560.84 1943.18 1554.84 1943.18 1542.86C1943.07 1537.18 1944.28 1531.55 1946.71 1526.41C1949.14 1521.27 1952.73 1516.77 1957.19 1513.25C1964.94 1508.76 1971.11 1514.84 1971.11 1526.73C1971.23 1532.41 1970.03 1538.03 1967.62 1543.17C1965.2 1548.3 1961.63 1552.81 1957.19 1556.34ZM2184.54 1280.87C2180.81 1283.6 2176.49 1285.41 2171.94 1286.18C2167.38 1286.95 2162.71 1286.64 2158.29 1285.29C2153.87 1283.94 2149.82 1281.58 2146.47 1278.4C2143.12 1275.21 2140.56 1271.29 2138.98 1266.95C2133.81 1255.35 2131.34 1242.72 2131.76 1230.03C2131.76 1185.17 2155.38 1135.12 2184.63 1118.29C2188.58 1115.92 2192.9 1114.22 2197.41 1113.26C2220.41 1108.68 2237.42 1130.89 2237.42 1169.05C2237.59 1213.72 2214.06 1263.69 2184.81 1280.61L2184.54 1280.87ZM2414.45 1291.98C2406.7 1296.47 2400.44 1290.48 2400.44 1278.67C2400.32 1272.98 2401.52 1267.35 2403.95 1262.21C2406.38 1257.07 2409.98 1252.57 2414.45 1249.06C2422.12 1244.57 2428.38 1250.56 2428.38 1262.45C2428.49 1268.12 2427.29 1273.72 2424.87 1278.85C2422.46 1283.97 2418.89 1288.46 2414.45 1291.98Z" fill="#37474F"/>
<path d="M2237.59 1168.61C2237.59 1213.55 2214.06 1263.51 2184.72 1280.43C2180.99 1283.16 2176.67 1284.97 2172.11 1285.74C2167.55 1286.51 2162.88 1286.2 2158.46 1284.85C2154.04 1283.5 2150 1281.14 2146.65 1277.96C2143.3 1274.77 2140.73 1270.86 2139.16 1266.51C2143.66 1265.51 2147.97 1263.82 2151.94 1261.49C2181.11 1244.57 2204.81 1194.6 2204.81 1149.66C2205.19 1136.99 2202.72 1124.41 2197.59 1112.82C2220.59 1108.42 2237.59 1130.54 2237.59 1168.61Z" fill="#263238"/>
<path d="M1957.19 1556.34C1949.43 1560.75 1943.18 1554.75 1943.18 1542.95C1943.07 1537.25 1944.28 1531.61 1946.71 1526.46C1949.14 1521.31 1952.72 1516.79 1957.19 1513.25C1964.85 1508.75 1971.11 1514.92 1971.11 1526.73C1971.21 1532.4 1970 1538.02 1967.59 1543.15C1965.18 1548.29 1961.62 1552.8 1957.19 1556.34Z" fill="#263238"/>
<path d="M2414.45 1291.98C2406.7 1296.38 2400.44 1290.48 2400.44 1278.58C2400.34 1272.89 2401.54 1267.24 2403.97 1262.09C2406.4 1256.94 2409.99 1252.42 2414.45 1248.88C2422.12 1244.48 2428.38 1250.56 2428.38 1262.46C2428.47 1268.11 2427.26 1273.72 2424.85 1278.83C2422.43 1283.95 2418.88 1288.45 2414.45 1291.98Z" fill="#263238"/>
<path d="M1569.98 1832.52L2799.99 1122.34C2803.25 1120.69 2806.86 1119.83 2810.52 1119.83C2814.18 1119.83 2817.78 1120.69 2821.05 1122.34L2832.95 1129.21C2836 1131.22 2838.55 1133.91 2840.37 1137.08C2842.19 1140.25 2843.24 1143.81 2843.43 1147.46V3023.93C2843.25 3027.58 2842.21 3031.14 2840.39 3034.31C2838.56 3037.48 2836.01 3040.18 2832.95 3042.17L1602.94 3752.35C1599.67 3754 1596.07 3754.85 1592.41 3754.85C1588.75 3754.85 1585.14 3754 1581.88 3752.35L1569.98 3745.47C1566.9 3743.48 1564.34 3740.79 1562.5 3737.62C1560.66 3734.45 1559.6 3730.89 1559.41 3727.23V1850.76C1559.61 1847.1 1560.68 1843.55 1562.52 1840.38C1564.35 1837.21 1566.91 1834.52 1569.98 1832.52Z" fill="#F5F5F5"/>
<path d="M2843.08 1144.28C2841.76 1139.97 2837.7 1138.56 2832.95 1141.38L1602.94 1851.55C1599.77 1853.43 1597.18 1856.14 1595.45 1859.39L1562.49 1840.45C1564.27 1837.21 1566.85 1834.48 1569.98 1832.52L2799.99 1122.34C2803.25 1120.69 2806.86 1119.83 2810.52 1119.83C2814.18 1119.83 2817.78 1120.69 2821.05 1122.34L2832.95 1129.21C2835.56 1130.92 2837.8 1133.14 2839.54 1135.72C2841.28 1138.31 2842.48 1141.22 2843.08 1144.28Z" fill="#FAFAFA"/>
<path d="M1600.38 3753.49C1599.12 3753.95 1597.82 3754.3 1596.5 3754.55H1594.48C1592.34 3754.77 1590.18 3754.77 1588.04 3754.55C1586.73 3754.29 1585.43 3753.94 1584.17 3753.49L1581.79 3752.35L1569.98 3745.56C1566.93 3743.55 1564.39 3740.86 1562.57 3737.69C1560.74 3734.52 1559.69 3730.97 1559.49 3727.32V1850.76C1559.56 1847.12 1560.59 1843.56 1562.49 1840.45L1595.45 1859.4C1593.57 1862.55 1592.51 1866.13 1592.36 1869.79V3746.27C1592.36 3751.99 1595.89 3754.81 1600.38 3753.49Z" fill="#E0E0E0"/>
<path d="M2566.38 1388.12L2533.6 1369.17C2528.45 1366.65 2522.77 1365.42 2517.04 1365.59C2511.31 1365.76 2505.71 1367.32 2500.73 1370.14C2462.48 1386.97 2445.91 1394.64 2426.17 1402.92L2411.9 1408.65C2404.14 1411.73 2388.72 1409.09 2393.48 1382.21L2444.33 1245.36H2443.53L2411.37 1226.77C2409.74 1225.74 2407.9 1225.08 2405.99 1224.83C2405.02 1224.83 2403.79 1224.83 2402.47 1224.83C2381.67 1224.3 2376.03 1090.09 2375.59 1085.95L2374.09 1085.15L2342.28 1066.82C2336.75 1063.69 2330.48 1062.11 2324.13 1062.24C2313.5 1062.73 2303.13 1065.75 2293.9 1071.05C2243.94 1097.49 2193.44 1175.13 2181.11 1245.01C2173.35 1289.07 2129.03 1356.92 2103.38 1381.95C2077.74 1406.98 2075.98 1427.77 2075.98 1427.77L2056.06 1540.75L2049.63 1576.96C2044.96 1603.93 2017.29 1629.84 2017.29 1629.84L1914.1 1706.15C1849.5 1759.73 1831.26 1813.92 1818.92 1880.9V1881.43C1818.92 1883.81 1818.92 1885.39 1820.07 1886.01C1820.24 1886.12 1820.44 1886.18 1820.64 1886.18C1820.85 1886.18 1821.05 1886.12 1821.22 1886.01L1834.43 1878.52L2544.35 1469.1C2546.02 1467.96 2547.44 1466.5 2548.55 1464.81C2549.65 1463.12 2550.41 1461.22 2550.78 1459.23C2554.83 1434.82 2566.64 1388.74 2566.64 1388.74L2566.38 1388.12ZM2361.14 1180.77C2353.47 1223.68 2322.54 1271.62 2291.79 1287.75C2270.55 1298.85 2255.04 1291.98 2249.84 1272.41C2246.02 1273.91 2241.89 1274.42 2237.83 1273.89C2233.76 1273.37 2229.89 1271.83 2226.58 1269.42C2216.71 1261.66 2307.12 1106.39 2314.7 1109.83C2318.22 1111.68 2321.28 1114.31 2323.65 1117.52C2326.01 1120.72 2327.62 1124.42 2328.36 1128.33C2353.74 1120.67 2367.93 1142.17 2361.14 1180.77Z" fill="#455A64"/>
<path opacity="0.5" d="M1921.94 1781.58L1870.21 1751.71C1840.25 1791.19 1828.18 1832.69 1819.28 1880.89V1881.42C1819.28 1883.8 1819.28 1885.39 1820.42 1886.01C1820.59 1886.12 1820.79 1886.17 1821 1886.17C1821.2 1886.17 1821.4 1886.12 1821.57 1886.01L1862.37 1853.75L1921.94 1781.58Z" fill="#37474F"/>
<path opacity="0.5" d="M2046.19 1587.45L2119.16 1629.48L2152.03 1439.4L2086.29 1401.42C2081.05 1408.94 2077.53 1417.51 2075.98 1426.54L2056.06 1539.51L2049.63 1575.73C2048.9 1579.75 2047.75 1583.67 2046.19 1587.45Z" fill="#37474F"/>
<path opacity="0.5" d="M2215.65 1153.01C2199.02 1181.06 2187.34 1211.76 2181.11 1243.77C2175.87 1266.46 2167.19 1288.21 2155.38 1308.28L2217.85 1344.41L2248.96 1272.59C2245.25 1273.93 2241.28 1274.34 2237.37 1273.78C2233.47 1273.23 2229.77 1271.73 2226.58 1269.42C2221.47 1265.36 2242.97 1222.45 2265.97 1182.09L2215.65 1153.01Z" fill="#37474F"/>
<path d="M2566.82 1388.38H2566.38C2561.22 1385.94 2555.56 1384.77 2549.86 1384.95C2544.16 1385.14 2538.58 1386.67 2533.6 1389.44C2486.71 1410.15 2472.53 1416.93 2444.68 1427.95C2437.28 1430.94 2422.21 1428.56 2426.17 1403.18C2426.13 1402.6 2426.13 1402.01 2426.17 1401.42L2432.61 1365.29L2450.23 1266.86C2450.23 1266.86 2454.29 1251.35 2444.06 1245.53H2443.27C2440.7 1244.35 2437.9 1243.75 2435.07 1243.77C2429.09 1243.05 2423.34 1240.99 2418.26 1237.74C2413.18 1234.49 2408.89 1230.14 2405.73 1225C2400.24 1216.82 2396.44 1207.63 2394.54 1197.96C2392.65 1188.29 2392.71 1178.34 2394.71 1168.69C2402.2 1126.48 2394.01 1096.87 2375.33 1085.86L2373.83 1084.98C2361.76 1078.54 2345.54 1079.6 2326.6 1089.56C2276.54 1115.99 2226.05 1193.63 2213.8 1263.51C2205.96 1307.57 2161.63 1375.51 2135.99 1400.45C2110.34 1425.39 2108.67 1446.28 2108.67 1446.28L2089.37 1558.63L2083.03 1594.76C2078.27 1621.73 2050.6 1647.64 2050.6 1647.64L1947.49 1725.01C1906.35 1757.76 1876.64 1802.71 1862.63 1853.4C1862.63 1853.4 1823.95 1883.45 1821.57 1885.83L1834.79 1878.34L2546.73 1469.1C2546.73 1469.1 2554.83 1464.61 2556.68 1463.46C2558.53 1462.31 2587.17 1435.26 2587.17 1435.26C2585.59 1412.17 2578.71 1395.52 2566.82 1388.38ZM2361.14 1180.76C2353.47 1223.68 2322.54 1271.62 2291.79 1287.74C2270.55 1298.85 2255.04 1291.97 2249.84 1272.41C2247.52 1261.43 2247.52 1250.08 2249.84 1239.1C2257.51 1196.1 2288.53 1148.25 2319.28 1132.21C2322.1 1130.66 2325.05 1129.37 2328.09 1128.33C2353.74 1120.67 2367.93 1142.17 2361.14 1180.76Z" fill="#37474F"/>
<path d="M2361.14 1180.77C2353.47 1223.68 2322.54 1271.62 2291.79 1287.75C2270.55 1298.85 2255.04 1291.98 2249.84 1272.41C2252.87 1271.41 2255.82 1270.17 2258.65 1268.71C2289.5 1252.59 2320.34 1204.65 2328.01 1161.64C2330.32 1150.66 2330.32 1139.32 2328.01 1128.33C2353.74 1120.67 2367.93 1142.17 2361.14 1180.77Z" fill="#263238"/>
<path d="M2331.44 1130.18C2334.32 1130.01 2337.2 1130.58 2339.8 1131.85C2342.39 1133.11 2344.61 1135.03 2346.25 1137.41C2359.03 1155.56 2346.78 1201.74 2341.49 1216.72C2334.18 1237.25 2286.41 1285.54 2273.28 1285.54C2268.93 1284.82 2264.77 1283.23 2261.06 1280.85C2257.35 1278.47 2254.16 1275.36 2251.69 1271.71C2249.53 1261.12 2249.53 1250.21 2251.69 1239.63C2259.18 1197.16 2289.85 1149.92 2320.08 1133.88C2322.77 1132.46 2325.57 1131.26 2328.45 1130.27H2331.36M2331.36 1128.24H2328.09C2325.05 1129.28 2322.1 1130.57 2319.28 1132.12C2288.53 1148.16 2257.6 1196.01 2249.84 1239.01C2247.52 1250 2247.52 1261.34 2249.84 1272.32C2252.5 1276.29 2255.94 1279.67 2259.96 1282.25C2263.98 1284.83 2268.48 1286.55 2273.19 1287.3C2287.47 1287.3 2335.5 1238.57 2343.16 1216.81C2350.83 1195.04 2367.49 1127.71 2331.18 1127.71L2331.36 1128.24Z" fill="#263238"/>
<path d="M1821.22 1886.09L2546.28 1469.28L2556.33 1463.72C2558.09 1462.67 2586.73 1435.44 2586.73 1435.44L1862.19 1853.67C1862.19 1853.67 1818.31 1887.68 1821.22 1886.09Z" fill="#263238"/>
<path d="M1724.02 2178.4V2194.88C1724.02 2203.69 1730.36 2207.48 1738.12 2202.98L2697.41 1649.05C2701.5 1646.38 2704.91 1642.79 2707.36 1638.57C2709.81 1634.34 2711.23 1629.6 2711.51 1624.73V1608.16C2711.51 1599.35 2705.17 1595.56 2697.41 1600.05L1738.12 2154.08C1734.02 2156.74 1730.61 2160.33 1728.16 2164.55C1725.71 2168.78 1724.29 2173.52 1724.02 2178.4Z" fill="#E0E0E0"/>
<path d="M1724.02 2278.06V2294.54C1724.02 2303.35 1730.36 2307.14 1738.12 2302.65L2697.41 1748.62C2701.51 1745.96 2704.92 1742.37 2707.37 1738.15C2709.82 1733.92 2711.24 1729.18 2711.51 1724.3V1707.73C2711.51 1698.92 2705.17 1695.22 2697.41 1699.63L1738.12 2253.74C1734.02 2256.4 1730.61 2259.99 1728.16 2264.22C1725.71 2268.44 1724.29 2273.18 1724.02 2278.06Z" fill="#E0E0E0"/>
<path d="M1724.02 2377.11V2393.5C1724.02 2402.32 1730.36 2406.1 1738.12 2401.61L2697.41 1847.76C2701.5 1845.1 2704.91 1841.5 2707.36 1837.28C2709.81 1833.06 2711.23 1828.32 2711.51 1823.44V1806.87C2711.51 1798.06 2705.17 1794.27 2697.41 1798.77L1738.12 2352.79C1734.02 2355.45 1730.61 2359.04 1728.16 2363.27C1725.71 2367.49 1724.29 2372.24 1724.02 2377.11Z" fill="#E0E0E0"/>
<path d="M1724.02 2596.62V2613.1C1724.02 2621.92 1730.36 2625.7 1738.12 2621.21L2697.41 2067.45C2701.51 2064.79 2704.92 2061.2 2707.37 2056.97C2709.82 2052.75 2711.24 2048.01 2711.51 2043.13V2026.56C2711.51 2017.75 2705.17 2014.05 2697.41 2018.45L1738.12 2572.3C1734.02 2574.96 1730.61 2578.55 1728.16 2582.78C1725.71 2587 1724.29 2591.75 1724.02 2596.62Z" fill="#E0E0E0"/>
<path d="M1724.02 2696.2V2712.77C1724.02 2721.58 1730.36 2725.28 1738.12 2720.88L2697.41 2166.85C2701.51 2164.19 2704.92 2160.6 2707.37 2156.38C2709.82 2152.15 2711.24 2147.41 2711.51 2142.53V2125.96C2711.51 2117.15 2705.17 2113.36 2697.41 2117.86L1738.12 2671.88C1734.03 2674.55 1730.62 2678.14 1728.17 2682.36C1725.72 2686.59 1724.3 2691.33 1724.02 2696.2Z" fill="#E0E0E0"/>
<path d="M1724.02 2795.34V2811.82C1724.02 2820.63 1730.36 2824.42 1738.12 2819.92L2697.41 2265.9C2701.51 2263.24 2704.92 2259.65 2707.37 2255.42C2709.82 2251.2 2711.24 2246.45 2711.51 2241.58V2225.01C2711.51 2216.2 2705.17 2212.5 2697.41 2216.9L1738.12 2771.02C1734.02 2773.68 1730.61 2777.27 1728.16 2781.49C1725.71 2785.72 1724.29 2790.46 1724.02 2795.34Z" fill="#E0E0E0"/>
<path d="M1724.02 3014.76V3031.33C1724.02 3040.14 1730.36 3043.84 1738.12 3039.44L2697.41 2485.42C2701.51 2482.75 2704.92 2479.16 2707.37 2474.94C2709.82 2470.71 2711.24 2465.97 2711.51 2461.09V2444.53C2711.51 2435.71 2705.17 2431.93 2697.41 2436.42L1738.12 2990.44C1734.03 2993.11 1730.62 2996.7 1728.17 3000.93C1725.72 3005.15 1724.3 3009.89 1724.02 3014.76Z" fill="#E0E0E0"/>
<path d="M1724.02 3114.43V3130.91C1724.02 3139.72 1730.36 3143.51 1738.12 3139.01L2697.41 2584.99C2701.51 2582.35 2704.92 2578.77 2707.37 2574.56C2709.82 2570.35 2711.24 2565.62 2711.51 2560.76V2544.19C2711.51 2535.38 2705.17 2531.59 2697.41 2536.08L1738.12 3090.11C1734.02 3092.77 1730.61 3096.36 1728.16 3100.58C1725.71 3104.81 1724.29 3109.55 1724.02 3114.43Z" fill="#E0E0E0"/>
<path d="M1724.02 3213.48V3230.05C1724.02 3238.86 1730.36 3242.56 1738.12 3238.15L2697.41 2684.31C2701.51 2681.64 2704.92 2678.05 2707.37 2673.83C2709.82 2669.6 2711.24 2664.86 2711.51 2659.98V2643.42C2711.51 2634.6 2705.17 2630.82 2697.41 2635.31L1738.12 3189.16C1734.03 3191.83 1730.62 3195.42 1728.17 3199.64C1725.72 3203.86 1724.3 3208.6 1724.02 3213.48Z" fill="#E0E0E0"/>
<path d="M2217.85 3226.79L2711.78 2941.71V2951.23L2217.85 3236.3V3226.79Z" fill="#E0E0E0"/>
<path d="M2332.76 3078.74C2353.3 3064.99 2376.21 3041.82 2372.51 3014.41C2370.31 2997.76 2356.73 2991.32 2341.4 2997.23C2311.35 3008.77 2292.41 3053.98 2281.92 3081.3C2273.11 3105.18 2261.03 3150.21 2296.9 3157.87C2338.93 3166.69 2371.45 3105 2380.97 3072.92C2382.29 3068.43 2374.98 3065.96 2372.86 3070.02C2369.16 3077.33 2344.4 3125.62 2371.63 3119.54C2381.32 3117.43 2386.87 3102.36 2390.4 3094.69C2396.57 3080.94 2399.65 3061.82 2409.34 3050.01L2402.21 3046.75C2402.65 3059.44 2402.21 3068.08 2411.02 3077.95C2411.69 3078.86 2412.69 3079.48 2413.81 3079.66C2414.94 3079.84 2416.08 3079.58 2417.01 3078.92C2430.93 3065.96 2431.9 3044.9 2447.24 3033.18L2440.98 3030.18C2440.98 3034.24 2439.13 3045.78 2438.86 3051.16C2438.86 3053.71 2442.3 3055.39 2444.33 3054.59C2446.32 3054.18 2448.17 3053.27 2449.71 3051.94C2451.26 3050.62 2452.43 3048.92 2453.14 3047.02L2446.44 3044.55C2452.26 3075.66 2478.78 3044.55 2487.86 3032.74C2514.3 2997.49 2533.15 2959.69 2533.86 2914.57C2533.86 2910.96 2527.07 2909.1 2526.99 2913.42C2526.37 2948.14 2511.21 2979.95 2501.43 3012.74C2490.94 3047.99 2482.22 3084.03 2474.99 3120.33L2481.25 3122.62C2483.24 3096.93 2489.8 3071.8 2500.64 3048.43C2507.47 3027.6 2518.88 3008.57 2534.04 2992.73L2528.22 2990.53C2529.76 2999.59 2529.29 3008.88 2526.86 3017.74C2524.42 3026.6 2520.07 3034.82 2514.12 3041.82C2512.27 3044.2 2516.41 3048.69 2518.26 3046.31C2527.96 3034.15 2543.91 3030.27 2554.3 3018.46C2564.08 3005.2 2572.77 2991.17 2580.3 2976.52L2575.54 2974.14C2574.92 3003.75 2602.86 2957.57 2606.65 2952.64L2602.07 2950.87C2603.92 2956.95 2606.38 2961.01 2613.26 2961.1C2626.92 2961.1 2632.03 2941.18 2642.34 2938.89C2642.34 2938.89 2646.83 2942.68 2648.42 2942.86C2654.1 2943.69 2659.9 2942.6 2664.9 2939.77C2676.42 2932.32 2685.73 2921.91 2691.86 2909.63C2693.45 2906.81 2688.07 2903.29 2686.31 2906.37C2679.53 2917.83 2658.38 2948.23 2643.04 2933.34C2642.07 2932.46 2640.05 2931.58 2638.99 2932.81C2634.85 2937.92 2611.14 2965.06 2606.74 2950.43C2606.21 2948.67 2603.65 2946.73 2602.24 2948.67C2598.63 2953.43 2595.72 2958.72 2592.37 2963.74C2590.52 2966.47 2580.21 2983.83 2580.56 2975.02C2580.56 2972.9 2577.3 2970.44 2575.81 2972.64C2566.2 2987.36 2559.15 3006.66 2545.76 3018.64C2535.8 3027.45 2522.76 3030.8 2514.12 3041.46L2518.26 3045.96C2524.92 3038.46 2529.82 3029.57 2532.61 3019.93C2535.4 3010.3 2536.01 3000.16 2534.39 2990.27C2534.26 2989.66 2533.98 2989.1 2533.58 2988.63C2533.17 2988.16 2532.66 2987.8 2532.08 2987.58C2531.5 2987.36 2530.88 2987.29 2530.26 2987.37C2529.65 2987.46 2529.07 2987.69 2528.57 2988.06C2512.09 3003.22 2502.84 3024.54 2494.65 3044.99C2483.65 3068.86 2476.97 3094.49 2474.91 3120.69C2474.91 3123.42 2480.46 3126.5 2481.16 3122.98C2488.61 3083.8 2498.29 3045.08 2510.15 3007.01C2519.85 2976.34 2532.98 2946.82 2533.6 2914.22L2526.72 2913.07C2526.07 2946.83 2515.43 2979.64 2496.14 3007.36C2491.21 3015.03 2486.01 3022.69 2480.37 3029.92C2477.9 3033.18 2456.05 3061.73 2453.23 3045.17C2452.79 3042.79 2448.12 3039.44 2446.53 3042.7L2440.19 3048.34L2445.65 3051.69C2446.09 3044.55 2447.5 3037.85 2447.85 3030.62C2447.85 3027.89 2443.62 3026.13 2441.6 3027.72C2426 3039.61 2424.85 3060.67 2410.84 3073.63L2416.83 3074.6C2412.07 3066.63 2409.75 3057.44 2410.14 3048.16C2410.14 3045.08 2405.38 3042.08 2403 3044.9C2392.25 3057.77 2388.9 3078.3 2381.85 3093.28C2377.97 3101.48 2364.22 3123.33 2368.63 3100.07C2371.55 3090.42 2375.73 3081.21 2381.06 3072.66L2372.95 3069.75C2364.67 3097.77 2342.55 3140.25 2312.32 3149.06C2273.72 3160.61 2280.42 3112.75 2287.47 3091.43C2295.86 3066.58 2308.3 3043.3 2324.31 3022.52C2327.24 3018.38 2330.57 3014.54 2334.26 3011.06C2342.11 3004.01 2344.4 3002.25 2355.32 3008.51C2366.25 3014.76 2366.78 3018.2 2364.14 3030.01C2362.52 3035.87 2360.09 3041.48 2356.91 3046.66C2349.93 3057.31 2341.17 3066.67 2331 3074.33C2329.59 3075.48 2331.62 3079.27 2333.21 3078.12L2332.76 3078.74Z" fill="#455A64"/>
<path d="M3516.95 2529.04C3485.05 2521.46 3449.89 2544.19 3429.36 2594.25C3408.82 2644.3 3367.67 2772.25 3358.86 2805.74C3354.98 2820.72 3468.83 2953.43 3464.61 2951.49C3463.37 2950.88 3501.7 2886.72 3501.7 2886.72L3446.45 2801.69L3481.7 2709.42L3516.95 2529.04Z" fill="#B16668"/>
<path d="M3443.1 3716.92C3438.79 3718.59 3437.64 3726.79 3437.02 3743.36C3436.49 3755.78 3433.85 3777.37 3448.39 3781.69C3462.93 3786.01 3484.17 3783.8 3493.51 3772.17C3504.75 3756.51 3516.78 3741.42 3529.55 3726.97C3543.91 3711.46 3559.42 3697.09 3565.24 3675.41C3570.53 3655.85 3566.12 3647.39 3552.82 3641.66C3534.4 3633.91 3505.58 3659.29 3491.13 3663.43C3478.88 3666.78 3447.42 3715.33 3443.1 3716.92Z" fill="#263238"/>
<path d="M3443.1 3701.76V3721.86C3450.65 3726.68 3459.37 3729.37 3468.33 3729.62C3477.29 3729.86 3486.15 3727.67 3493.95 3723.27C3494.83 3721.33 3499.24 3694.45 3499.24 3694.45L3443.1 3701.76Z" fill="#B16668"/>
<path d="M3592.73 3823.81C3589.25 3834.59 3586.31 3845.53 3583.92 3856.59C3581.37 3868.75 3577.84 3889.11 3582.16 3898.19C3586.48 3907.26 3602.96 3913.26 3628.78 3913.08C3645.43 3913.08 3671.43 3924.27 3689.23 3934.23C3707.12 3943 3727.35 3945.81 3746.95 3942.25C3769.86 3939.52 3793.65 3926.21 3797.35 3916.78C3801.06 3907.35 3796.3 3902.68 3742.28 3879.68C3741.75 3879.68 3685.35 3853.95 3659.18 3825.13L3592.73 3823.81Z" fill="#263238"/>
<path d="M3592.73 3802.05C3592.73 3802.05 3592.73 3816.94 3592.73 3825.49C3592.73 3834.04 3602.78 3846.72 3628.86 3845.84C3647.19 3845.14 3659.97 3840.2 3659.18 3825.13V3803.46L3592.73 3802.05Z" fill="#B16668"/>
<path d="M3423.28 3422.95C3427.6 3387.65 3435.84 3352.95 3447.86 3319.49C3447.86 3319.49 3436.49 3230.49 3430.24 3145.01C3418.52 2991.77 3427.95 2941.71 3458.08 2872.98C3458.08 2872.98 3715.14 2846.54 3722.98 2953.78C3732.76 3086.85 3719.81 3343.99 3716.28 3390.96C3712.76 3437.93 3708.35 3459.16 3691.78 3557.33C3679.09 3632.06 3659.53 3803.46 3659.53 3803.46C3649.19 3808.7 3637.72 3811.32 3626.13 3811.07C3614.54 3810.83 3603.19 3807.73 3593.09 3802.05C3593.09 3802.05 3572.11 3588.09 3574.32 3533.89C3575.87 3493.79 3582.65 3454.06 3594.5 3415.72C3594.5 3415.72 3578.55 3198.85 3573.97 3164.31C3573.97 3164.31 3565.86 3233.13 3562.33 3280.1C3558.81 3327.07 3544.71 3372.01 3531.31 3459.34C3519.51 3535.04 3497.56 3704.32 3497.56 3704.32C3463.46 3722.83 3443.1 3701.94 3443.1 3701.94C3443.1 3701.94 3414.11 3488.6 3423.28 3422.95Z" fill="#376DF9"/>
<g opacity="0.35">
<path d="M3423.28 3422.95C3427.6 3387.65 3435.84 3352.95 3447.86 3319.49C3447.86 3319.49 3436.49 3230.49 3430.24 3145.01C3418.52 2991.77 3427.95 2941.71 3458.08 2872.98C3458.08 2872.98 3715.14 2846.54 3722.98 2953.78C3732.76 3086.85 3719.81 3343.99 3716.28 3390.96C3712.76 3437.93 3708.35 3459.16 3691.78 3557.33C3679.09 3632.06 3659.53 3803.46 3659.53 3803.46C3649.19 3808.7 3637.72 3811.32 3626.13 3811.07C3614.54 3810.83 3603.19 3807.73 3593.09 3802.05C3593.09 3802.05 3572.11 3588.09 3574.32 3533.89C3575.87 3493.79 3582.65 3454.06 3594.5 3415.72C3594.5 3415.72 3578.55 3198.85 3573.97 3164.31C3573.97 3164.31 3565.86 3233.13 3562.33 3280.1C3558.81 3327.07 3544.71 3372.01 3531.31 3459.34C3519.51 3535.04 3497.56 3704.32 3497.56 3704.32C3463.46 3722.83 3443.1 3701.94 3443.1 3701.94C3443.1 3701.94 3414.11 3488.6 3423.28 3422.95Z" fill="black"/>
</g>
<path d="M3648.34 2494.4L3636.27 2593.72L3548.94 2585.87L3558.9 2475.63L3648.34 2494.4Z" fill="#B16668"/>
<path d="M3453.06 2578.56C3462.67 2552.12 3495.36 2523.31 3528.93 2529.57L3553.61 2534.06C3554.31 2556.97 3597.67 2568.78 3640.5 2554.94C3653.36 2558.65 3665.26 2562.43 3675.75 2566.22C3706.5 2577.24 3718.84 2627.91 3719.81 2713.74C3720.78 2799.57 3729.59 3012.21 3729.59 3012.21L3693.19 3023.75L3676.45 2961.45L3669.66 3036.09C3628.8 3045.62 3586.27 3045.41 3545.5 3035.47C3453.15 3015.29 3424.42 2965.51 3424.42 2965.51C3435.72 2907.87 3458.17 2853 3490.51 2803.98C3444.34 2680.87 3438.87 2617.6 3453.06 2578.56Z" fill="#EBEBEB"/>
<path d="M3713.29 2368.21C3718.51 2356.35 3720.65 2343.35 3719.49 2330.44C3718.33 2317.53 3713.93 2305.12 3706.68 2294.37C3677.33 2248.37 3620.85 2240.52 3553.87 2258.5C3530.5 2265.66 3509.9 2279.86 3494.9 2299.17C3479.9 2318.48 3471.23 2341.94 3470.07 2366.36C3466.81 2415.45 3603.84 2451.66 3600.67 2485.33L3713.29 2368.21Z" fill="#263238"/>
<path d="M3716.19 2386.89C3716.19 2386.89 3734.79 2416.68 3732.14 2419.76C3727.54 2422.62 3722.47 2424.65 3717.16 2425.76L3716.19 2386.89Z" fill="#9A4A4D"/>
<path d="M3659.53 2292.51C3678.04 2302.74 3710.11 2321.59 3716.63 2391.21C3723.33 2462.59 3706.76 2486.91 3696.81 2495.99C3690.11 2502.16 3656.18 2503.48 3638.73 2497.57C3616.88 2490.08 3569.65 2465.23 3548.23 2427.87C3523.03 2383.81 3519.15 2326.09 3550.17 2304.5C3565.89 2293.4 3584.17 2286.48 3603.3 2284.38C3622.43 2282.29 3641.78 2285.08 3659.53 2292.51Z" fill="#B16668"/>
<path d="M3664.99 2295.6C3664.99 2295.6 3679.62 2360.99 3658.83 2401.35C3658.83 2401.35 3648.08 2375.7 3626.04 2382.4C3604.01 2389.1 3605.16 2418.44 3621.99 2433.86C3626.29 2438.27 3631.75 2441.37 3637.74 2442.81C3643.73 2444.24 3650 2443.95 3655.83 2441.97C3648.41 2460.48 3637.28 2477.27 3623.14 2491.32C3623.14 2491.32 3558.01 2520.31 3501.7 2456.69C3450.51 2398.97 3460.02 2298.07 3538.36 2274.54C3616.7 2251.01 3664.99 2295.6 3664.99 2295.6Z" fill="#263238"/>
<path d="M3479.32 2302.39C3482.4 2305.03 3484.31 2308.79 3484.62 2312.83C3484.94 2316.88 3483.63 2320.89 3481 2323.98L3457.73 2303.97C3459.04 2302.44 3460.64 2301.19 3462.43 2300.28C3464.23 2299.37 3466.19 2298.83 3468.2 2298.68C3470.2 2298.53 3472.22 2298.79 3474.13 2299.42C3476.04 2300.06 3477.8 2301.06 3479.32 2302.39Z" fill="#263238"/>
<path d="M3897.02 2723.87C3909.71 2709.42 3914.64 2677.17 3931.39 2655.14C3948.13 2633.11 3954.48 2616.98 3961.17 2626.58C3969.99 2639.36 3950.07 2664.83 3954.48 2667.38C3958.88 2669.94 3975.45 2703.51 3977.12 2722.2C3978.8 2740.88 3929.36 2787.76 3929.36 2787.76L3897.02 2723.87Z" fill="#B16668"/>
<path d="M3953.07 2664.48C3953.07 2664.48 4012.81 2659.37 4021.54 2664.48C4030.26 2669.59 4027.62 2695.5 4021.54 2711.36C4015.46 2727.22 3984.97 2737.8 3956.68 2756.65C3956.68 2753.83 3953.07 2664.48 3953.07 2664.48Z" fill="#B16668"/>
<path d="M3668.34 2563.84C3693.99 2572.66 3716.46 2583.14 3740.43 2628.17C3771.18 2686.07 3827.23 2799.39 3827.23 2799.39L3897.02 2723.87C3897.02 2723.87 3907.15 2709.6 3926.01 2740.79C3944.87 2771.99 3936.59 2780.62 3936.59 2780.62C3936.59 2780.62 3855.43 2889.37 3840.53 2903.2C3825.64 2917.04 3801.14 2906.29 3785.11 2884.52C3769.07 2862.75 3668.34 2736.65 3668.34 2736.65C3668.34 2736.65 3613.27 2664.21 3668.34 2563.84Z" fill="#B16668"/>
<path opacity="0.2" d="M3573.97 3164.13L3569.03 3112.23C3541.06 3108.07 3514.31 3097.94 3490.6 3082.53C3490.6 3082.53 3507.34 3108.97 3553.17 3121.48L3557.93 3187.57L3560.75 3295.96L3573.97 3164.13Z" fill="black"/>
<path d="M3390.94 2550.1C3402.84 2550.13 3414.62 2547.82 3425.63 2543.29C3436.63 2538.76 3446.64 2532.11 3455.07 2523.71C3463.5 2515.31 3470.19 2505.34 3474.76 2494.35C3479.33 2483.36 3481.69 2471.58 3481.7 2459.68V2322.3C3471.33 2318.93 3460.31 2318.07 3449.54 2319.78C3438.78 2321.49 3428.57 2325.72 3419.75 2332.14C3410.93 2338.55 3403.75 2346.95 3398.81 2356.67C3393.86 2366.39 3391.28 2377.14 3391.29 2388.04L3390.94 2550.1Z" fill="#263238"/>
<path d="M3721.74 2803.71C3721.74 2803.71 3671.6 2739.03 3655.57 2713.04L3723.51 2856.5L3721.74 2803.71Z" fill="#E0E0E0"/>
<path d="M4161.39 2272.51C4142.35 2328.64 4101.73 2496.08 4101.73 2496.08C4101.73 2496.08 4024.27 2599.09 4002.94 2618.74C3991.13 2629.67 3964.43 2649.32 3964.43 2649.32L3986.64 2665.71C3986.64 2665.71 4023.65 2654.43 4026.74 2674.52C4065.33 2643.47 4101.83 2609.91 4136.01 2574.06C4144.63 2565.06 4150.71 2553.93 4153.63 2541.81L4186.68 2399.67C4186.68 2399.67 4186.68 2285.11 4204.3 2270.13C4221.93 2255.15 4214.96 2221.22 4214.96 2221.22C4202.89 2221.58 4176.37 2228.54 4161.39 2272.51Z" fill="#FFA8A7"/>
<path d="M4215.58 2215.59C4220.98 2230.75 4227.52 2245.48 4235.14 2259.65C4242.9 2272.95 4183.59 2512.21 4179.63 2530.01C4175.66 2547.81 4060.66 2651.53 4060.66 2651.53C4039.89 2642.73 4023.38 2626.16 4014.66 2605.35L4097.67 2497.31C4097.67 2497.31 4123.49 2383.99 4137.06 2332C4150.64 2280 4165.09 2221.23 4215.58 2215.59Z" fill="#376DF9"/>
<path opacity="0.1" d="M4215.58 2215.59C4220.98 2230.75 4227.52 2245.48 4235.14 2259.65C4242.9 2272.95 4183.59 2512.21 4179.63 2530.01C4175.66 2547.81 4060.66 2651.53 4060.66 2651.53C4039.89 2642.73 4023.38 2626.16 4014.66 2605.35L4097.67 2497.31C4097.67 2497.31 4123.49 2383.99 4137.06 2332C4150.64 2280 4165.09 2221.23 4215.58 2215.59Z" fill="black"/>
<path d="M4458.45 3339.93H4401.17V3438.1H4458.45V3339.93Z" fill="#FFA8A7"/>
<path d="M4224.04 3363.73L4166.76 3365.76L4163.94 3261.86L4224.04 3259.92V3363.73Z" fill="#FFA8A7"/>
<path d="M4450.43 2639.45C4450.43 2694.18 4454.22 3012.47 4454.22 3012.47C4455.54 3028.16 4470.69 3056.53 4471.84 3112.93C4473.51 3195.24 4460.83 3389.02 4460.83 3389.02C4450.93 3393.87 4440.08 3396.5 4429.06 3396.71C4418.04 3396.93 4407.1 3394.72 4397.02 3390.25C4397.02 3390.25 4351.99 3116.19 4341.77 3034.68C4332.96 2963.65 4301.85 2773.93 4301.85 2773.93L4257.79 3014.15C4264.44 3044.03 4266.84 3074.71 4264.93 3105.26C4262.2 3142.89 4227.3 3331.56 4227.3 3331.56C4217.32 3337.21 4206.22 3340.6 4194.78 3341.48C4183.34 3342.37 4171.85 3340.72 4161.12 3336.67C4161.12 3336.67 4157.69 3040.49 4157.07 3005.95C4156.28 2966.56 4173.46 2627.55 4173.46 2627.55L4450.43 2639.45Z" fill="#37474F"/>
<path d="M4401.17 3409.82V3401.62C4398.08 3401.62 4396.23 3404.62 4395 3411.93C4394.18 3417.39 4393.07 3422.81 4391.65 3428.15C4389.12 3438.18 4385.79 3447.99 4381.69 3457.49C4373.58 3477.49 4366.8 3484.9 4348.21 3508.25C4341.91 3514.72 4336.02 3521.58 4330.58 3528.78C4327.14 3534.95 4325.91 3552.05 4331.82 3556.01C4353.41 3570.46 4386.27 3570.82 4409.54 3564.03C4418.2 3561.6 4425.98 3556.74 4431.96 3550.02C4437.94 3543.31 4441.87 3535.02 4443.29 3526.14C4444.17 3520.85 4443.82 3515.39 4444.44 3510.1C4446.48 3498.01 4451.41 3486.58 4458.8 3476.79C4463.09 3471.14 4466.78 3465.05 4469.81 3458.64C4474.57 3446.92 4470.78 3433.61 4467.7 3421.89C4465.06 3411.76 4462.15 3400.65 4458.89 3401.62V3407.79C4450.72 3414.25 4440.57 3417.68 4430.16 3417.48C4421.44 3417.84 4401.08 3416.16 4401.17 3409.82Z" fill="#263238"/>
<path d="M4166.15 3348.04C4163.15 3348.04 4160.77 3352.36 4154.16 3359.5C4144.35 3369.37 4132.97 3377.56 4120.5 3383.73C4099 3394.48 4057.31 3410.96 4038.37 3419.51C4026.56 3424.8 4027.18 3439.07 4039.34 3447.18C4051.5 3455.29 4081.02 3461.1 4116.36 3453.26C4135.57 3448.94 4160.42 3431.14 4176.54 3432.11C4192.67 3433.08 4222.1 3432.82 4233.82 3424.71C4245.54 3416.6 4240.87 3399.42 4237.52 3384.61C4233.91 3368.49 4229.42 3343.2 4224.04 3344.34V3349.89C4217.17 3360.38 4181.57 3364.61 4166.5 3356.94L4166.15 3348.04Z" fill="#263238"/>
<path d="M4301.94 2773.93C4272.26 2764.76 4244.95 2749.21 4221.93 2728.37C4221.93 2728.37 4237.35 2757.27 4283.61 2784.06L4261.41 2997.76L4301.94 2773.93Z" fill="#263238"/>
<path d="M4351.03 2219.46C4370.59 2224.22 4409.89 2230.65 4418.7 2269.52C4429.28 2316.13 4432.71 2417.74 4432.71 2417.74L4436.33 2643.86C4396.85 2672.59 4251.89 2687.92 4168.79 2627.56C4168.79 2627.56 4179.01 2356.14 4179.01 2313.84C4179.01 2271.54 4202.45 2220.78 4267.13 2216.91L4351.03 2219.46Z" fill="#F5F5F5"/>
<path d="M4268.19 2212.67C4250.37 2227.61 4237.47 2247.57 4231.18 2269.95C4223.25 2304.15 4222.37 2685.98 4222.37 2685.98C4222.37 2685.98 4181.83 2678.49 4162.88 2663.6C4162.88 2663.6 4165.26 2362.22 4169.14 2312.34C4175.05 2236.82 4174.43 2215.41 4268.46 2207.04L4268.19 2212.67Z" fill="#376DF9"/>
<path d="M4368.12 2207.04C4368.12 2207.04 4314.1 2240.26 4313.49 2372.53C4312.96 2487.09 4309.17 2685.98 4309.17 2685.98C4309.17 2685.98 4398.61 2699.11 4455.27 2665.27C4455.27 2665.27 4462.06 2388.04 4460.91 2345.12C4459.68 2295.95 4448.22 2232.41 4432.45 2226.07C4411.51 2218.13 4390.01 2211.77 4368.12 2207.04Z" fill="#376DF9"/>
<path d="M4569.04 2510.71C4515.29 2290.93 4475.54 2217.61 4410.42 2218.49C4391.3 2241.23 4396.58 2310.14 4426.72 2351.91C4426.72 2351.91 4493.96 2493.61 4504.62 2544.02C4514.05 2588.08 4524.71 2644.03 4524.1 2682.1C4523.87 2688.83 4521.21 2695.25 4516.61 2700.17C4504.36 2713.47 4504.27 2724.23 4496.34 2738.94C4490.08 2750.4 4483.3 2754.72 4485.24 2757.36C4487.8 2760.09 4491.3 2761.75 4495.03 2762.03C4498.77 2762.31 4502.47 2761.18 4505.42 2758.86C4511.15 2754.68 4516.28 2749.73 4520.66 2744.14C4518.55 2758.24 4514.49 2771.97 4508.59 2784.94C4494.75 2816.05 4498.1 2831.91 4540.14 2820.81C4566.57 2813.85 4582.96 2791.99 4586.84 2728.72C4588.78 2705.44 4589.01 2682.06 4587.55 2658.75C4581.82 2598.83 4577.76 2546.13 4569.04 2510.71Z" fill="#FFA8A7"/>
<path d="M4399.05 2214.88C4399.05 2214.88 4442.32 2212.94 4465.76 2236.64C4489.2 2260.35 4520.84 2310.23 4551.5 2419.23C4582.17 2528.24 4591.6 2607.9 4593.1 2669.24C4593.1 2669.24 4554.68 2686.86 4519.25 2666.77C4519.25 2666.77 4503.57 2571.86 4489.64 2521.37C4475.72 2470.87 4423.81 2364.51 4423.81 2364.51C4423.81 2364.51 4374.2 2290.75 4399.05 2214.88Z" fill="#376DF9"/>
<path opacity="0.1" d="M4399.05 2214.88C4399.05 2214.88 4442.32 2212.94 4465.76 2236.64C4489.2 2260.35 4520.84 2310.23 4551.5 2419.23C4582.17 2528.24 4591.6 2607.9 4593.1 2669.24C4593.1 2669.24 4554.68 2686.86 4519.25 2666.77C4519.25 2666.77 4503.57 2571.86 4489.64 2521.37C4475.72 2470.87 4423.81 2364.51 4423.81 2364.51C4423.81 2364.51 4374.2 2290.75 4399.05 2214.88Z" fill="black"/>
<path opacity="0.1" d="M4374.2 2279.39L4349.44 2309.97L4361.86 2344.86L4329.35 2428.22L4368.47 2344.86L4354.81 2311.9L4374.2 2279.39Z" fill="black"/>
<path opacity="0.1" d="M4199.72 2269.52L4205.1 2301.15L4183.68 2329.09L4213.47 2422.85L4190.38 2330.14L4210.12 2304.06L4199.72 2269.52Z" fill="black"/>
<path d="M4336.14 2043.82C4343.11 2000.87 4313.94 1960.41 4271 1953.44C4228.05 1946.46 4187.58 1975.63 4180.61 2018.58C4173.64 2061.52 4202.8 2101.99 4245.75 2108.96C4288.7 2115.93 4329.17 2086.77 4336.14 2043.82Z" fill="#263238"/>
<path d="M4394.47 2087.1C4394.47 2087.1 4381.69 2147.11 4376.84 2156.98C4373.42 2163.03 4367.8 2167.54 4361.16 2169.58L4362.04 2127.37L4394.47 2087.1Z" fill="#263238"/>
<path d="M4378.43 2001.18C4382.92 2000.68 4387.46 2001.21 4391.7 2002.74C4395.95 2004.27 4399.79 2006.75 4402.93 2010C4413.42 2020.75 4407.6 2054.06 4394.12 2087.28L4370.06 2090.01L4378.43 2001.18Z" fill="#263238"/>
<path d="M4362.92 2089.92C4367.77 2092.74 4374.64 2083.49 4380.55 2077.32C4382.87 2074.59 4385.86 2072.5 4389.22 2071.26C4392.59 2070.02 4396.22 2069.66 4399.76 2070.23C4403.3 2070.79 4406.64 2072.26 4409.44 2074.49C4412.25 2076.72 4414.44 2079.64 4415.8 2082.96C4425.67 2103.76 4406.98 2131.25 4392 2135.84C4365.57 2144.12 4361.69 2127.02 4361.69 2127.02L4359.75 2224.93C4341.51 2248.28 4300.62 2275.77 4278.59 2271.81C4260.96 2268.72 4257.18 2239.03 4274.01 2219.55V2190.82C4262.35 2192.68 4250.54 2193.27 4238.76 2192.59C4219.37 2189.59 4207.21 2174.34 4201.31 2153.37C4191.88 2119.71 4188.26 2092.57 4196.28 2026.3C4205.1 1953.69 4289.52 1952.98 4335.08 1981.62C4380.63 2010.26 4362.92 2089.92 4362.92 2089.92Z" fill="#FFA8A7"/>
<path d="M4362.92 2098.03C4365.39 2098.03 4374.64 2082.79 4380.55 2077.32C4388.83 2069.74 4378.08 2001.18 4378.08 2001.18C4380.96 1995.15 4381.95 1988.4 4380.93 1981.8C4379.91 1975.19 4376.92 1969.05 4372.35 1964.17C4360.98 1951.66 4345.12 1936.33 4293.04 1942.5C4256.21 1946.81 4216.11 1958.27 4183.68 1942.5C4180.68 1953.07 4180.91 1964.29 4184.33 1974.73C4187.76 1985.17 4194.22 1994.35 4202.89 2001.1C4216.17 2007.69 4230.65 2011.53 4245.46 2012.38C4273.94 2014.53 4302.55 2014 4330.93 2010.79C4339.75 2009.56 4341.77 2018.19 4346.62 2041.9C4351.55 2062.61 4355.08 2097.85 4362.92 2098.03Z" fill="#263238"/>
<path d="M4378.43 2006.56L4407.6 1990.87C4406.66 1988.91 4405.34 1987.15 4403.71 1985.71C4402.08 1984.27 4400.17 1983.18 4398.1 1982.5C4396.04 1981.81 4393.85 1981.55 4391.68 1981.74C4389.51 1981.92 4387.4 1982.54 4385.48 1983.56C4381.61 1985.79 4378.73 1989.4 4377.42 1993.67C4376.11 1997.94 4376.47 2002.55 4378.43 2006.56Z" fill="#263238"/>
<path d="M4274.18 2190.82C4294.1 2187.02 4313.62 2181.42 4332.52 2174.08C4341.41 2169.44 4348.69 2162.22 4353.4 2153.37C4351.13 2162.23 4347.08 2170.53 4341.51 2177.78C4330.49 2191.88 4274.18 2202.28 4274.18 2202.28V2190.82Z" fill="#F28F8F"/>
<path d="M4284.58 2079.08C4284.58 2081.42 4285.51 2083.66 4287.16 2085.31C4288.81 2086.97 4291.06 2087.89 4293.39 2087.89C4295.73 2087.89 4297.97 2086.97 4299.62 2085.31C4301.28 2083.66 4302.21 2081.42 4302.21 2079.08C4302.21 2076.74 4301.28 2074.5 4299.62 2072.85C4297.97 2071.2 4295.73 2070.27 4293.39 2070.27C4291.06 2070.27 4288.81 2071.2 4287.16 2072.85C4285.51 2074.5 4284.58 2076.74 4284.58 2079.08Z" fill="#263238"/>
<path d="M4293.75 2046.39L4312.25 2056.61C4313.57 2054.06 4313.85 2051.1 4313.05 2048.35C4312.25 2045.59 4310.41 2043.25 4307.93 2041.81C4306.71 2041.14 4305.36 2040.74 4303.97 2040.61C4302.59 2040.48 4301.19 2040.64 4299.86 2041.07C4298.53 2041.49 4297.31 2042.19 4296.26 2043.1C4295.21 2044.02 4294.35 2045.14 4293.75 2046.39Z" fill="#263238"/>
<path d="M4278.06 2138.92L4258.32 2146.32C4258.74 2147.65 4259.42 2148.89 4260.33 2149.95C4261.24 2151.01 4262.35 2151.88 4263.6 2152.5C4264.85 2153.11 4266.22 2153.47 4267.61 2153.55C4269.01 2153.62 4270.4 2153.41 4271.72 2152.93C4274.38 2151.86 4276.52 2149.81 4277.71 2147.2C4278.89 2144.59 4279.02 2141.62 4278.06 2138.92Z" fill="#F28F8F"/>
<path d="M4207.3 2053.62L4224.22 2040.57C4223.42 2039.43 4222.4 2038.46 4221.22 2037.73C4220.04 2036.99 4218.72 2036.5 4217.35 2036.29C4215.97 2036.07 4214.57 2036.14 4213.22 2036.48C4211.87 2036.83 4210.61 2037.44 4209.5 2038.28C4207.25 2040.07 4205.76 2042.66 4205.35 2045.51C4204.94 2048.36 4205.64 2051.26 4207.3 2053.62Z" fill="#263238"/>
<path d="M4212.5 2076.27C4212.5 2078.6 4213.43 2080.84 4215.08 2082.5C4216.73 2084.15 4218.97 2085.08 4221.31 2085.08C4223.65 2085.08 4225.89 2084.15 4227.54 2082.5C4229.19 2080.84 4230.12 2078.6 4230.12 2076.27C4230.12 2073.93 4229.19 2071.69 4227.54 2070.03C4225.89 2068.38 4223.65 2067.45 4221.31 2067.45C4218.97 2067.45 4216.73 2068.38 4215.08 2070.03C4213.43 2071.69 4212.5 2073.93 4212.5 2076.27Z" fill="#263238"/>
<path d="M4256.65 2068.42L4253.83 2120.5L4226.6 2111.25L4256.65 2068.42Z" fill="#F28F8F"/>
<path d="M4247.22 2266.17C4252.51 2278.86 4262.37 2283.79 4280.09 2286C4289.05 2286.55 4298.03 2285.27 4306.49 2282.24C4314.94 2279.21 4322.69 2274.49 4329.26 2268.37L4307.23 2246.43L4279.12 2267.49L4276.74 2243.96L4247.22 2266.17Z" fill="#376DF9"/>
<path opacity="0.1" d="M4247.22 2266.17C4252.51 2278.86 4262.37 2283.79 4280.09 2286C4289.05 2286.55 4298.03 2285.27 4306.49 2282.24C4314.94 2279.21 4322.69 2274.49 4329.26 2268.37L4307.23 2246.43L4279.12 2267.49L4276.74 2243.96L4247.22 2266.17Z" fill="black"/>
<path d="M4261.14 2259.29C4258.54 2266.91 4257.55 2274.98 4258.23 2283C4259.07 2290.14 4261.81 2296.92 4266.16 2302.65C4268.96 2304.45 4272.13 2305.58 4275.43 2305.94C4278.74 2306.31 4282.08 2305.91 4285.2 2304.76C4290.9 2299.87 4295.48 2293.8 4298.63 2286.97C4301.78 2280.14 4303.42 2272.72 4303.44 2265.2L4279.12 2267.93L4261.14 2259.29Z" fill="#376DF9"/>
<path d="M4265.99 2302.65C4265.99 2302.65 4237.17 2461.27 4236.03 2474.31C4234.88 2487.35 4252.5 2532.65 4263.52 2533C4274.54 2533.35 4296.04 2492.2 4296.3 2480.13C4296.57 2468.05 4285.02 2304.32 4285.02 2304.32L4265.99 2302.65Z" fill="#376DF9"/>
<path opacity="0.1" d="M4285.2 2304.76C4282.12 2306.12 4278.74 2306.65 4275.4 2306.27C4272.05 2305.9 4268.87 2304.65 4266.16 2302.65V2305.2C4268.91 2307.4 4272.15 2308.9 4275.6 2309.57C4279.05 2310.25 4282.62 2310.08 4285.99 2309.08L4285.2 2304.76Z" fill="black"/>
<path d="M4279.12 2267.93L4360.19 2206.24V2187.91C4360.19 2187.91 4379.05 2195.05 4383.28 2228.27C4370.27 2257.08 4348.04 2280.74 4320.09 2295.51L4303.09 2265.2L4279.12 2267.93Z" fill="#E0E0E0"/>
<path d="M4274.18 2196.29C4263.59 2197.96 4254.08 2203.76 4247.75 2212.41C4239.64 2225.72 4241.49 2276.92 4241.49 2276.92L4260.88 2259.29L4278.5 2268.1C4276.83 2251.1 4273.48 2220.08 4273.48 2220.08L4274.18 2196.29Z" fill="#E0E0E0"/>
<path d="M3957.56 2757.18C3965.13 2746.55 3969.56 2734 3970.34 2720.97C3972.63 2704.31 4018.28 2686.42 4019.77 2698.85C4021.27 2711.27 4025.41 2721.58 4010.96 2736.65C3996.51 2751.72 3978.8 2768.37 3957.56 2757.18Z" fill="#FFA8A7"/>
<path d="M3959.94 2649.59C3949.01 2663.69 3942.31 2691.09 3936.5 2700.34C3930.68 2709.6 3923.81 2717.97 3936.5 2719.29C3949.19 2720.61 3967.61 2696.29 3974.48 2681.31C3977.14 2675.38 3981.19 2670.19 3986.29 2666.15C3988.29 2664.55 3990.52 2663.24 3992.9 2662.28C3986.99 2660.25 3990.08 2636.46 3985.94 2633.2C3985.94 2633.2 3964.43 2642.01 3959.94 2649.59Z" fill="#FFA8A7"/>
</svg>
