<svg width="4935" height="4243" viewBox="0 0 4935 4243" fill="none" xmlns="http://www.w3.org/2000/svg">
<path d="M2340.21 3870.83C3316.84 3870.83 4108.56 3785.33 4108.56 3679.85C4108.56 3574.38 3316.84 3488.88 2340.21 3488.88C1363.58 3488.88 571.869 3574.38 571.869 3679.85C571.869 3785.33 1363.58 3870.83 2340.21 3870.83Z" fill="#D8D8D8"/>
<path opacity="0.5" d="M2340.21 3870.83C3316.84 3870.83 4108.56 3785.33 4108.56 3679.85C4108.56 3574.38 3316.84 3488.88 2340.21 3488.88C1363.58 3488.88 571.869 3574.38 571.869 3679.85C571.869 3785.33 1363.58 3870.83 2340.21 3870.83Z" fill="white"/>
<path d="M4473.73 1222.22H3611.77V3498.13H4473.73V1222.22Z" fill="white" stroke="#263238" stroke-width="0.75" stroke-miterlimit="10"/>
<path d="M4410.72 1282.7H3674.78V1868.72H4410.72V1282.7Z" stroke="#263238" stroke-width="0.75" stroke-miterlimit="10"/>
<path d="M4413.97 2006.64H3678.03V2592.67H4413.97V2006.64Z" stroke="#263238" stroke-width="0.75" stroke-miterlimit="10"/>
<path d="M4413.97 2730.59H3678.03V3316.61H4413.97V2730.59Z" stroke="#263238" stroke-width="0.75" stroke-miterlimit="10"/>
<path d="M4138.95 1335.65H3946.66V1471.74H4138.95V1335.65Z" fill="#263238"/>
<path d="M4138.95 2076.67H3946.66V2212.76H4138.95V2076.67Z" fill="#263238"/>
<path d="M4138.95 2817.59H3946.66V2953.68H4138.95V2817.59Z" fill="#263238"/>
<path d="M3205.74 725.637H1456.09V2031.14H3205.74V725.637Z" fill="#263238" stroke="#263238" stroke-linecap="round" stroke-linejoin="round"/>
<path d="M3156.14 767.41H1505.89V1989.26H3156.14V767.41Z" fill="white" stroke="#263238" stroke-linecap="round" stroke-linejoin="round"/>
<path d="M1670.14 942.322L1656.52 1096.71L1792 1110.22L1805.51 934.191L1670.14 942.322Z" fill="white" stroke="#263238" stroke-linecap="round" stroke-linejoin="round"/>
<path d="M2092.63 1207.69V1321.52L2222.62 1332.3L2228.01 1221.31L2092.63 1207.69Z" fill="white" stroke="#263238" stroke-linecap="round" stroke-linejoin="round"/>
<path d="M2055.03 1019.67V1133.4L2185.02 1144.27L2190.4 1033.19L2055.03 1019.67Z" fill="white" stroke="#263238" stroke-linecap="round" stroke-linejoin="round"/>
<path d="M1904.51 1448.46V1562.19L2034.5 1573.07L2039.99 1461.98L1904.51 1448.46Z" fill="white" stroke="#263238" stroke-linecap="round" stroke-linejoin="round"/>
<path d="M1848.81 926.06L2241.63 874.633L2244.27 936.935L1867.82 988.362L1848.81 926.06Z" fill="#2824D5" stroke="#263238" stroke-linecap="round" stroke-linejoin="round"/>
<path d="M2293.87 1746.05L2685.98 1801.44L2671.95 1862.22L2295.49 1811.2L2293.87 1746.05Z" fill="white" stroke="#263238" stroke-linecap="round" stroke-linejoin="round"/>
<path d="M1821.77 1161.65V1313.39H1954.51L1949.02 1159.01L1821.77 1161.65Z" fill="#FF0088" stroke="#263238" stroke-linecap="round" stroke-linejoin="round"/>
<path d="M2905.1 1349.78V1501.41H3037.84L3032.35 1347.03L2905.1 1349.78Z" fill="#2824D5" stroke="#263238" stroke-linecap="round" stroke-linejoin="round"/>
<path d="M2477.22 877.277V1075.06L2607.21 1091.22V871.891L2477.22 877.277Z" fill="#407BFF" stroke="#263238" stroke-linecap="round" stroke-linejoin="round"/>
<path d="M2850.93 1080.45L2707.42 1058.8L2691.16 1207.69L2826.54 1229.44L2850.93 1080.45Z" fill="white" stroke="#263238" stroke-linecap="round" stroke-linejoin="round"/>
<path d="M2558.42 1389.21L2623.47 1557.11L2780.6 1481.29L2699.29 1335.04L2558.42 1389.21Z" fill="#FF0088" stroke="#263238" stroke-linecap="round" stroke-linejoin="round"/>
<path d="M2252.4 1083.19L2290.31 1443.38L2460.96 1429.86L2428.43 1061.44L2252.4 1083.19Z" fill="white" stroke="#263238" stroke-linecap="round" stroke-linejoin="round"/>
<path d="M1729.69 1424.38L1702.56 1627.54L1827.16 1638.42L1856.94 1432.51L1729.69 1424.38Z" fill="#2824D5" stroke="#263238" stroke-linecap="round" stroke-linejoin="round"/>
<path d="M2237.66 1430.37L2099.54 1449.38L2134.71 1649.8L2280.96 1625.41L2237.66 1430.37Z" fill="#FF0088" stroke="#263238" stroke-linecap="round" stroke-linejoin="round"/>
<path d="M2982.24 1266.33C2978.38 1242.15 2969.04 1219.18 2954.95 1199.15C2940.86 1179.12 2922.39 1162.58 2900.93 1150.77" stroke="#263238" stroke-linecap="round" stroke-linejoin="round"/>
<path d="M2892.3 1180.76L2883.76 1137.87L2952.26 1142.24" stroke="#263238" stroke-linecap="round" stroke-linejoin="round"/>
<path d="M2584.24 924.027L2507.2 1026.68" stroke="#263238" stroke-linecap="round" stroke-linejoin="round"/>
<path d="M2507.2 932.566L2584.24 1009.61" stroke="#263238" stroke-linecap="round" stroke-linejoin="round"/>
<path d="M1685.69 1155.04C1688.04 1183.06 1699.96 1209.41 1719.45 1229.68C1738.94 1249.94 1764.8 1262.89 1792.71 1266.33" stroke="#263238" stroke-linecap="round" stroke-linejoin="round"/>
<path d="M1779.8 1232.08L1814.05 1274.87L1749.92 1291.94" stroke="#263238" stroke-linecap="round" stroke-linejoin="round"/>
<path d="M2434.53 971.084C2434.53 971.084 2293.26 940.593 2229.13 1030.95" stroke="#263238" stroke-linecap="round" stroke-linejoin="round"/>
<path d="M2212.05 1005.23L2207.68 1060.93L2271.92 1035.22" stroke="#263238" stroke-linecap="round" stroke-linejoin="round"/>
<path d="M1099.86 2832.12C1099.86 2832.12 962.655 2941.07 896.593 3054.6C830.53 3168.13 832.969 3245.17 832.969 3245.17C832.969 3245.17 1026.08 3106.64 1070.39 3013.13C1096.84 2956.71 1107.05 2894.02 1099.86 2832.12Z" fill="#92E3A9"/>
<path d="M520.544 2680.18C520.544 2680.18 490.053 2875.82 562.519 2996.26C634.985 3116.7 832.563 3242.01 832.563 3242.01C832.563 3242.01 861.122 3154.1 757.251 3020.55C653.381 2887 520.544 2680.18 520.544 2680.18Z" fill="#92E3A9"/>
<path d="M842.828 3025.12C836.158 2917.02 803.451 2812.14 747.494 2719.41C653.99 2564.21 542.09 2406.98 515.767 2340.11C498.27 2293.75 484.107 2246.19 473.385 2197.82C473.385 2197.82 434.459 2326.89 507.331 2498.55C580.203 2670.22 842.828 3025.12 842.828 3025.12Z" fill="#92E3A9"/>
<path d="M835.612 2963.23C907.435 2869.28 969.93 2768.56 1022.21 2662.49C1098.34 2502.01 1086.24 2335.43 1086.24 2335.43C1086.24 2335.43 943.141 2520.91 897.609 2665.64C868.492 2762.89 847.751 2862.45 835.612 2963.23Z" fill="#92E3A9"/>
<path d="M813.964 2646.53C813.964 2646.53 787.945 2416.03 725.846 2288.07C663.747 2160.11 536.501 1962.84 536.501 1962.84C536.501 1962.84 520.544 2183.28 620.858 2359.92C676.935 2460.79 741.539 2556.68 813.964 2646.53Z" fill="#92E3A9"/>
<path d="M808.78 2513.6C808.78 2513.6 938.06 2321 973.429 2183.28C1008.8 2045.57 1039.59 1812.42 1039.59 1812.42C1039.59 1812.42 884.498 1971.17 846.487 2170.48C824.185 2283.57 811.571 2398.36 808.78 2513.6Z" fill="#92E3A9"/>
<path d="M873.013 1682.22C873.013 1682.22 751.052 1771.86 770.769 1959.79C790.486 2147.71 808.374 2211.13 808.374 2211.13C789.266 2082.56 873.013 1682.22 873.013 1682.22Z" fill="#92E3A9"/>
<g opacity="0.5">
<path d="M1099.86 2832.12C1099.86 2832.12 962.655 2941.07 896.593 3054.6C830.53 3168.13 832.969 3245.17 832.969 3245.17C832.969 3245.17 1026.08 3106.64 1070.39 3013.13C1096.84 2956.71 1107.05 2894.02 1099.86 2832.12Z" fill="white"/>
<path d="M520.544 2680.18C520.544 2680.18 490.053 2875.82 562.519 2996.26C634.985 3116.7 832.563 3242.01 832.563 3242.01C832.563 3242.01 861.122 3154.1 757.251 3020.55C653.381 2887 520.544 2680.18 520.544 2680.18Z" fill="white"/>
<path d="M842.828 3025.12C836.158 2917.02 803.451 2812.14 747.494 2719.41C653.99 2564.21 542.09 2406.98 515.767 2340.11C498.27 2293.75 484.107 2246.19 473.385 2197.82C473.385 2197.82 434.459 2326.89 507.331 2498.55C580.203 2670.22 842.828 3025.12 842.828 3025.12Z" fill="white"/>
<path d="M835.612 2963.23C907.435 2869.28 969.93 2768.56 1022.21 2662.49C1098.34 2502.01 1086.24 2335.43 1086.24 2335.43C1086.24 2335.43 943.141 2520.91 897.609 2665.64C868.492 2762.89 847.751 2862.45 835.612 2963.23Z" fill="white"/>
<path d="M813.964 2646.53C813.964 2646.53 787.945 2416.03 725.846 2288.07C663.747 2160.11 536.501 1962.84 536.501 1962.84C536.501 1962.84 520.544 2183.28 620.858 2359.92C676.935 2460.79 741.539 2556.68 813.964 2646.53Z" fill="white"/>
<path d="M808.78 2513.6C808.78 2513.6 938.06 2321 973.429 2183.28C1008.8 2045.57 1039.59 1812.42 1039.59 1812.42C1039.59 1812.42 884.498 1971.17 846.487 2170.48C824.185 2283.57 811.571 2398.36 808.78 2513.6Z" fill="white"/>
<path d="M873.013 1682.22C873.013 1682.22 751.052 1771.86 770.769 1959.79C790.486 2147.71 808.374 2211.13 808.374 2211.13C789.266 2082.56 873.013 1682.22 873.013 1682.22Z" fill="white"/>
</g>
<path d="M830.124 3304.92C830.124 3304.92 841.303 3275.15 841.303 3048.4C841.303 2821.65 811.626 2732.41 811.626 2509.73C811.626 2287.05 796.686 2078.5 796.686 2078.5" stroke="#92E3A9" stroke-width="0.75" stroke-miterlimit="10"/>
<path d="M813.151 2624.07C813.151 2624.07 731.843 2449.97 698.1 2384.62C666.492 2323.64 629.7 2226.07 629.7 2226.07" stroke="#92E3A9" stroke-width="0.75" stroke-miterlimit="10"/>
<path d="M636.001 2652.02C636.001 2652.02 816.504 2987.42 842.828 3025.12" stroke="#92E3A9" stroke-width="0.75" stroke-miterlimit="10"/>
<path d="M841.202 2934.97L987.251 2586.77" stroke="#92E3A9" stroke-width="0.75" stroke-miterlimit="10"/>
<path d="M667.101 3025.12C701.251 3081.02 841.202 3227.18 841.202 3227.18C841.202 3227.18 934.401 3127.67 993.654 3037.52" stroke="#92E3A9" stroke-width="0.75" stroke-miterlimit="10"/>
<path d="M813.151 2481.07L903.301 2176.37" stroke="#92E3A9" stroke-width="0.75" stroke-miterlimit="10"/>
<path d="M929.624 3265.59H726.151V3338.26H745.36L770.057 3498.13H885.616L910.415 3338.26H929.624V3265.59Z" fill="#92E3A9"/>
<path d="M929.624 3265.59H726.151V3338.26H745.36L770.057 3498.13H885.616L910.415 3338.26H929.624V3265.59Z" fill="#92E3A9"/>
<path d="M3141.61 3544.48C3141.61 3544.48 3016.49 3611.35 3015.07 3625.79C3013.65 3640.22 3092.11 3640.32 3150.24 3633C3208.38 3625.68 3259.3 3617.05 3250.56 3592.35C3241.82 3567.65 3148.92 3541.53 3148.92 3541.53L3141.61 3544.48Z" fill="#DD5789" stroke="#263238" stroke-linecap="round" stroke-linejoin="round"/>
<path d="M3614.11 3605.56C3614.11 3605.56 3666.35 3670.91 3672.24 3704.35C3678.14 3737.79 3648.97 3734.84 3587.88 3705.88C3552.27 3689.46 3521.3 3664.45 3497.73 3633.11L3614.11 3605.56Z" fill="#DD5789" stroke="#263238" stroke-linecap="round" stroke-linejoin="round"/>
<path d="M3116.81 2193.85C3116.81 2193.85 3100.85 2320.29 3119.75 2506.38C3138.66 2692.47 3164.78 2929.49 3164.78 3093.73C3164.78 3257.97 3143.03 3426.68 3137.24 3480.45C3135.05 3507.06 3130.18 3533.38 3122.7 3559.01C3122.7 3559.01 3172.1 3579.34 3218.64 3592.45C3265.19 3605.56 3355.24 3612.78 3355.24 3612.78C3355.24 3612.78 3365.41 3497.93 3365.41 3295.88C3365.41 3093.83 3350.87 2923.69 3350.87 2923.69C3350.87 2923.69 3398.84 3212.95 3413.38 3358.39C3422.17 3447.3 3423.16 3536.81 3416.32 3625.89C3416.32 3625.89 3420.69 3641.84 3510.85 3637.47C3562.57 3635.54 3613.64 3625.24 3662.08 3606.98C3662.08 3606.98 3620.41 3310.41 3616.95 3185.2C3613.5 3059.99 3561.76 2933.65 3525.48 2849.8C3489.2 2765.96 3483.3 2736.38 3494.99 2689.93C3506.68 2643.49 3574.87 2418.06 3574.87 2313.38C3574.87 2208.69 3569.08 2181.25 3569.08 2181.25C3569.08 2181.25 3554.55 2159.4 3377.2 2153.61C3199.84 2147.81 3116.81 2193.85 3116.81 2193.85Z" fill="#263238" stroke="#263238" stroke-linecap="round" stroke-linejoin="round"/>
<path d="M3338.57 2885.27C3345.79 2910.78 3350.87 2923.69 3350.87 2923.69" stroke="white" stroke-linecap="round" stroke-linejoin="round"/>
<path d="M3291.31 2270.48C3291.31 2270.48 3285.52 2549.57 3302.9 2697.96C3308.85 2750.3 3317.98 2802.23 3330.24 2853.46" stroke="white" stroke-linecap="round" stroke-linejoin="round"/>
<path d="M3557.8 2968.82C3563.33 2981.58 3567.81 2994.77 3571.22 3008.25" stroke="white" stroke-linecap="round" stroke-linejoin="round"/>
<path d="M3549.77 2304.13C3543.87 2370.64 3533.51 2436.68 3518.77 2501.81C3483.61 2656.5 3451.9 2751.53 3455.45 2786.39C3458.2 2813.52 3513.59 2878.67 3548.25 2947.48" stroke="white" stroke-linecap="round" stroke-linejoin="round"/>
<path d="M3413.68 922.808C3413.68 922.808 3383.19 862.843 3451.9 811.01C3520.6 759.176 3633.42 816.498 3642.97 871.076C3652.52 925.654 3615.63 966.612 3630.67 995.274C3645.71 1023.93 3713.91 1034.81 3749.38 1076.58C3784.85 1118.35 3798.47 1188.38 3778.04 1230.76C3757.61 1273.14 3717.98 1307.19 3742.57 1333.11C3767.17 1359.02 3829.88 1412.28 3829.88 1470.92C3829.88 1529.57 3776.62 1590.96 3731.6 1614.23C3686.57 1637.5 3604.76 1606 3562.37 1582.82C3519.99 1559.65 3484.62 1491.35 3496.92 1427.22C3509.22 1363.09 3555.56 1357.7 3533.81 1322.23C3512.06 1286.76 3471 1261.25 3490.11 1226.7C3509.22 1192.14 3536.46 1166.63 3532.39 1136.65C3528.33 1106.67 3486.05 1080.75 3486.05 1080.75C3486.05 1080.75 3439.6 976.979 3430.05 956.551C3420.49 936.122 3413.68 922.808 3413.68 922.808Z" fill="#263238" stroke="#263238" stroke-linecap="round" stroke-linejoin="round"/>
<path d="M3480.46 927.38C3480.46 927.38 3500.17 854.812 3566.24 864.671C3632.3 874.529 3576.4 950.45 3589.31 1006.96C3602.21 1063.47 3734.54 1059.81 3741.15 1155.55C3747.76 1251.29 3632.2 1297.84 3652.02 1370.1C3671.83 1442.36 3790.65 1439.42 3764.32 1518.59C3738 1597.76 3708.12 1604.47 3681.79 1574.79" stroke="white" stroke-width="0.75" stroke-linecap="round" stroke-linejoin="round"/>
<path d="M3559.43 1111.85C3559.43 1111.85 3655.17 1148.13 3651.81 1200.98C3648.46 1253.83 3552.82 1270.3 3589.1 1349.47" stroke="white" stroke-width="0.75" stroke-linecap="round" stroke-linejoin="round"/>
<path d="M3353.82 1325.89C3353.82 1325.89 3147.4 1370.91 3134.29 1386.87C3121.18 1402.83 2924.92 1686.29 2924.92 1686.29L2670.83 1542.37L2640.34 1600.61L2906.02 1833.46L3128.49 1707.02L3154.61 1824.71C3154.61 1824.71 3113.96 2071.89 3108.17 2128.6C3102.37 2185.32 3100.85 2212.96 3100.85 2212.96C3175.59 2233.41 3253.22 2241.27 3330.54 2236.23C3412.6 2231.61 3493.26 2212.91 3568.98 2180.94C3568.98 2180.94 3512.27 2010.81 3488.99 1951.25C3465.72 1891.69 3441.02 1821.87 3441.02 1821.87L3515.22 1656.1L3606.69 1870.55L3736.17 1824C3736.17 1824 3636.97 1417.46 3626.81 1401.71C3616.65 1385.96 3465.41 1333.31 3465.41 1333.31L3353.82 1325.89Z" fill="#DD5789" stroke="#263238" stroke-linecap="round" stroke-linejoin="round"/>
<path d="M3158.99 1544L3135.1 1464.21" stroke="#263238" stroke-linecap="round" stroke-linejoin="round"/>
<path d="M3321.5 1460.66C3299.35 1519.45 3280.55 1579.44 3265.19 1640.35C3240.6 1738.83 3258.18 1777.56 3258.18 1840.88C3258.18 1904.19 3272.31 2220.69 3272.31 2220.69" stroke="#263238" stroke-linecap="round" stroke-linejoin="round"/>
<path d="M3128.49 1706.82C3128.49 1706.82 3099.43 1621.04 3106.64 1597.77C3113.86 1574.49 3156.14 1548.37 3158.98 1544C3161.83 1539.63 3180.84 1493.18 3180.84 1493.18" stroke="#263238" stroke-linecap="round" stroke-linejoin="round"/>
<path d="M3465.72 1541.56L3515.22 1655.9L3458.71 1594.31" stroke="#263238" stroke-linecap="round" stroke-linejoin="round"/>
<path d="M3363.98 1298.25C3363.98 1298.25 3321.8 1305.57 3311.64 1321.52C3301.48 1337.48 3249.14 1452.33 3249.14 1452.33L3346.5 1410.25L3407.48 1493.08C3407.48 1493.08 3487.47 1346.22 3488.79 1334.63C3490.11 1323.05 3439.4 1291.03 3435.03 1291.03C3430.66 1291.03 3363.98 1298.25 3363.98 1298.25Z" fill="white" stroke="#263238" stroke-linecap="round" stroke-linejoin="round"/>
<path d="M3337.86 1289.51C3340.21 1318.56 3340.21 1347.76 3337.86 1376.81C3333.49 1407.3 3318.96 1450.9 3326.17 1449.48C3333.39 1448.06 3422.12 1349.16 3433.81 1328.84C3445.49 1308.51 3446.82 1254.64 3446.82 1254.64C3446.82 1254.64 3375.67 1296.82 3337.86 1289.51Z" fill="white" stroke="#263238" stroke-linecap="round" stroke-linejoin="round"/>
<path d="M3513.28 1112.46C3513.28 1112.46 3522.84 986.94 3484.62 949.844C3446.41 912.747 3353.62 902.075 3299.04 951.165C3244.46 1000.25 3266.31 1161.35 3274.54 1206.37C3282.78 1251.39 3326.38 1308.61 3360.53 1307.29C3394.68 1305.97 3439.6 1263.59 3452 1249.97C3464.4 1236.35 3472.33 1198.14 3472.33 1198.14C3472.33 1198.14 3511.96 1183.1 3518.77 1159.92C3522.22 1143.93 3520.29 1127.24 3513.28 1112.46Z" fill="white" stroke="#263238" stroke-linecap="round" stroke-linejoin="round"/>
<path d="M3329.33 1088.98C3330.39 1101.66 3327.74 1114.37 3321.7 1125.57C3312.05 1138.98 3300.46 1140.92 3302.39 1148.64C3304.32 1156.36 3323.63 1162.67 3323.63 1162.67" stroke="#263238" stroke-linecap="round" stroke-linejoin="round"/>
<path d="M3331.36 1212.77C3331.36 1212.77 3338.07 1234.22 3352.8 1234.22C3367.54 1234.22 3359.51 1207.39 3359.51 1207.39C3350.55 1210.95 3341 1212.78 3331.36 1212.77Z" fill="#263238"/>
<path d="M3319.06 1206.57C3319.06 1206.57 3347.92 1219.99 3367.13 1200.78" stroke="#263238" stroke-linecap="round" stroke-linejoin="round"/>
<path d="M3295.89 1116.93C3299.09 1116.93 3301.68 1110.47 3301.68 1102.5C3301.68 1094.53 3299.09 1088.07 3295.89 1088.07C3292.69 1088.07 3290.09 1094.53 3290.09 1102.5C3290.09 1110.47 3292.69 1116.93 3295.89 1116.93Z" fill="#263238"/>
<path d="M3371 1108.29C3371 1116.32 3368.45 1122.72 3365.3 1122.72C3362.15 1122.72 3359.51 1116.32 3359.51 1108.29C3359.51 1100.26 3362.05 1093.86 3365.3 1093.86C3368.56 1093.86 3371 1100.36 3371 1108.29Z" fill="#263238"/>
<path d="M3274.85 1073.63C3275.95 1070.73 3277.62 1068.08 3279.75 1065.83C3281.88 1063.58 3284.44 1061.78 3287.28 1060.52C3290.11 1059.26 3293.17 1058.58 3296.27 1058.51C3299.37 1058.44 3302.45 1058.99 3305.34 1060.12" stroke="#263238" stroke-linecap="round" stroke-linejoin="round"/>
<path d="M3345.99 1058.19C3350.66 1056.33 3355.67 1055.52 3360.69 1055.82C3365.7 1056.12 3370.58 1057.52 3374.99 1059.91C3379.41 1062.31 3383.24 1065.64 3386.22 1069.68C3389.2 1073.72 3391.25 1078.37 3392.24 1083.29" stroke="#263238" stroke-linecap="round" stroke-linejoin="round"/>
<path d="M3484.62 950.147C3446.41 913.253 3353.62 902.378 3299.04 951.468C3288.52 961.793 3280.67 974.525 3276.17 988.565C3296.77 977.545 3319.44 970.967 3342.74 969.254C3390.51 965.087 3438.28 997.915 3451.9 1030.23C3465.52 1062.55 3467.95 1137.05 3467.95 1137.05C3467.95 1137.05 3485.74 1108.39 3496.62 1105.65C3499.71 1104.89 3502.97 1105.14 3505.92 1106.36C3508.86 1107.59 3511.34 1109.72 3512.98 1112.46C3512.98 1112.46 3522.84 986.938 3484.62 950.147Z" fill="#263238" stroke="#263238" stroke-linecap="round" stroke-linejoin="round"/>
<path d="M3641.95 1794.73L3314.89 1944.14L3326.48 1986.31C3326.48 1986.31 3757.61 1894.84 3757.61 1882.75C3757.61 1870.65 3722.04 1775.83 3722.04 1775.83" fill="#DD5789"/>
<path d="M3641.95 1794.73L3314.89 1944.14L3326.48 1986.31C3326.48 1986.31 3757.61 1894.84 3757.61 1882.75C3757.61 1870.65 3722.04 1775.83 3722.04 1775.83" stroke="#263238" stroke-linecap="round" stroke-linejoin="round"/>
<path d="M3228.81 1752.15C3236.21 1763.41 3241.45 1775.96 3244.26 1789.14C3251.88 1816.79 3261.13 1901.45 3264.58 1923C3268.04 1944.54 3304.53 2049.13 3304.53 2049.13L3278.41 2055.33L3187.54 1785.99C3187.54 1785.99 3199.64 1742.9 3228.81 1752.15Z" fill="white" stroke="#263238" stroke-linecap="round" stroke-linejoin="round"/>
<path d="M3016.8 1826.34L3101.15 2115.7L3290.09 2069.15L3216 1785.69L3016.8 1826.34Z" fill="white" stroke="#263238" stroke-linecap="round" stroke-linejoin="round"/>
<path d="M3016.8 1826.34C3016.8 1826.34 2999.52 1835.28 2999.52 1818.31C2999.52 1801.34 3007.24 1795.24 3025.74 1793.72C3044.24 1792.19 3168.84 1767.59 3198.01 1755.2C3227.18 1742.8 3228.5 1752.15 3228.5 1752.15C3223.26 1755.82 3219.24 1760.97 3216.96 1766.95C3214.67 1772.93 3214.24 1779.46 3215.7 1785.69L3016.8 1826.34Z" fill="white" stroke="#263238" stroke-linecap="round" stroke-linejoin="round"/>
<path d="M3314.89 1944.14C3314.89 1944.14 3246.49 1929.6 3242.12 1929.6C3237.75 1929.6 3153.5 1989.26 3153.5 1989.26L3160.71 2013.96C3165.98 2015.16 3171.38 2015.64 3176.77 2015.38C3188.36 2015.38 3230.54 2012.43 3230.54 2012.43L3173.82 2026.56L3178.19 2036.72C3178.19 2036.72 3256.66 2022.19 3266.92 2020.67C3277.19 2019.14 3326.48 1985.81 3326.48 1985.81L3314.89 1944.14Z" fill="white" stroke="#263238" stroke-linecap="round" stroke-linejoin="round"/>
<path d="M2653.05 1487.29L2590.54 1465.13L2520.72 1416.04L2514.92 1429.15L2570.82 1491.05L2546.94 1545.42L2594.91 1581.81L2638.51 1604.98L2670.53 1542.48L2653.05 1487.29Z" fill="white" stroke="#263238" stroke-linecap="round" stroke-linejoin="round"/>
<path d="M2667.58 1536.68C2667.58 1536.68 2660.36 1485.87 2650.2 1474.18C2637.94 1462.5 2624.79 1451.79 2610.87 1442.16L2594.91 1416.04C2594.91 1416.04 2586.17 1417.47 2586.17 1424.78C2589.62 1440.21 2594.49 1455.28 2600.7 1469.81C2604.49 1479.85 2609.91 1489.19 2616.76 1497.45C2616.76 1497.45 2606.6 1520.73 2612.39 1535.26C2617.32 1545.7 2624.23 1555.09 2632.72 1562.91" fill="white"/>
<path d="M2667.58 1536.68C2667.58 1536.68 2660.36 1485.87 2650.2 1474.18C2637.94 1462.5 2624.79 1451.79 2610.87 1442.16L2594.91 1416.04C2594.91 1416.04 2586.17 1417.47 2586.17 1424.78C2589.62 1440.21 2594.49 1455.28 2600.7 1469.81C2604.49 1479.85 2609.91 1489.19 2616.76 1497.45C2616.76 1497.45 2606.6 1520.73 2612.39 1535.26C2617.32 1545.7 2624.23 1555.09 2632.72 1562.91" stroke="#263238" stroke-linecap="round" stroke-linejoin="round"/>
<path d="M2553.24 1464.01C2553.24 1464.01 2524.17 1542.47 2528.54 1548.37C2532.91 1554.26 2572.15 1565.75 2576.52 1561.38C2580.89 1557.01 2604.16 1500.4 2604.16 1500.4L2553.24 1464.01Z" fill="white" stroke="#263238" stroke-linecap="round" stroke-linejoin="round"/>
<path d="M3553.63 2234.51C3553.63 2234.51 3553.63 2245.69 3552.52 2265.91" stroke="white" stroke-linecap="round" stroke-linejoin="round"/>
<path d="M1575.82 1379.15C1575.82 1379.15 1664.14 1634.66 1684.67 1699.3C1705.2 1763.94 1725.32 1877.57 1720.85 1894.95C1716.38 1912.32 1632.53 1827.05 1597.87 1839.76C1563.22 1852.46 1566.37 1876.04 1566.37 1876.04L1526.73 1775.02L1575.82 1379.15Z" fill="#376DF9" stroke="#263238" stroke-linecap="round" stroke-linejoin="round"/>
<path d="M1558.03 1786.5C1558.03 1786.5 1603.67 1735.68 1655.5 1746.76" stroke="#263238" stroke-linecap="round" stroke-linejoin="round"/>
<path d="M1555.49 1768.92C1555.49 1768.92 1581.41 1702.25 1640.66 1702.25" stroke="#263238" stroke-linecap="round" stroke-linejoin="round"/>
<path d="M1608.95 1926.45C1608.95 1926.45 1574.19 1909.07 1566.37 1891.79C1558.54 1874.51 1559.96 1817.6 1580.49 1800.32C1601.02 1783.04 1664.14 1786.09 1679.89 1792.39C1695.65 1798.69 1717.7 1838.13 1727.25 1861.81C1736.81 1885.49 1736.71 1917 1724 1929.6C1719.05 1935.31 1712.7 1939.62 1705.57 1942.11C1698.44 1944.61 1690.78 1945.2 1683.35 1943.83C1669.02 1940.68 1608.95 1926.45 1608.95 1926.45Z" fill="#376DF9" stroke="#263238" stroke-linecap="round" stroke-linejoin="round"/>
<path d="M1187.78 1293.98C1187.78 1293.98 984.507 1405.78 973.226 1436.27C961.944 1466.76 1105.35 2059.29 1105.35 2059.29C1107.83 2065.67 1112.14 2071.18 1117.75 2075.1C1123.36 2079.03 1130.01 2081.2 1136.86 2081.34C1160.54 2081.34 1496.54 2075.04 1507.52 2071.89C1518.5 2068.74 1523.38 2051.56 1523.38 2043.54C1523.38 2035.51 1583.24 1395.21 1575.41 1379.45C1567.59 1363.7 1323.46 1264.3 1323.46 1264.3L1236.66 1267.45L1187.78 1293.98Z" fill="#376DF9" stroke="#263238" stroke-linecap="round" stroke-linejoin="round"/>
<path d="M1220.91 1208.81C1202.39 1224.54 1185.38 1241.96 1170.09 1260.85C1149.77 1287.68 1160.64 1328.64 1173.24 1358.62C1185.85 1388.6 1225.28 1472.25 1225.28 1472.25C1225.28 1472.25 1315.23 1390.23 1320 1387.08C1324.78 1383.93 1458.74 1412.28 1458.74 1412.28C1458.74 1412.28 1442.98 1328.64 1397.25 1265.62C1351.51 1202.61 1301 1188.28 1280.57 1186.75C1260.14 1185.23 1220.91 1208.81 1220.91 1208.81Z" fill="#376DF9" stroke="#263238" stroke-linecap="round" stroke-linejoin="round"/>
<path d="M1186.15 1145.69C1186.15 1145.69 1206.48 1218.26 1211.46 1237.16C1216.44 1256.07 1246.12 1309.73 1266.65 1336.56C1287.18 1363.39 1332.91 1402.83 1336.06 1388.6C1339.21 1374.37 1367.57 1159.92 1353.34 1126.79C1339.11 1093.66 1217.76 997.407 1187.78 1014.99C1157.79 1032.57 1186.15 1145.69 1186.15 1145.69Z" fill="white" stroke="#263238" stroke-linecap="round" stroke-linejoin="round"/>
<path d="M1465.75 1141.02C1465.75 1141.02 1448.47 1175.67 1385.35 1150.47C1322.24 1125.26 1295.41 1088.98 1287.58 1065.3L1274.17 1024.65C1286.87 1009.6 1304.66 993.545 1303.34 980.231C1302.33 971.641 1299.07 963.471 1293.88 956.55L1382.2 915.896C1382.2 915.896 1407.41 904.919 1396.43 873.311C1385.46 841.702 1317.56 802.166 1229.24 832.657C1140.92 863.147 1099.86 935.918 1118.36 999.033C1136.86 1062.15 1194.08 1161.65 1194.08 1161.65C1194.08 1161.65 1216.13 1169.58 1227.21 1158.5C1238.29 1147.42 1224.06 1104.94 1224.06 1104.94L1229.04 1100.87C1239.2 1122.62 1264 1172.93 1271.42 1190.11C1280.87 1212.16 1284.02 1227.91 1323.46 1232.69C1362.89 1237.47 1463.82 1262.67 1473.27 1227.91C1482.72 1193.16 1465.75 1141.02 1465.75 1141.02Z" fill="#263238" stroke="#263238" stroke-linecap="round" stroke-linejoin="round"/>
<path d="M1252.31 947.504C1226.51 950.551 1201.96 960.369 1181.17 975.962C1142.85 1002.89 1138.59 1026.78 1138.59 1026.78L1215.32 988.463C1215.32 988.463 1161.25 1035.32 1154.34 1048.12C1147.43 1060.93 1211.25 1021.09 1211.25 1021.09L1177.11 1063.77L1218.37 1048.12" stroke="white" stroke-width="0.5" stroke-linecap="round" stroke-linejoin="round"/>
<path d="M1241.44 946.996C1241.44 946.996 1279.25 969.05 1271.42 989.581C1263.6 1010.11 1242.96 1033.69 1244.59 1040.4C1246.22 1047.11 1290.33 1150.87 1307.6 1168.15C1324.88 1185.43 1443.29 1199.76 1460.67 1182.38C1478.05 1165 1448.06 1071.19 1425.91 1010.21C1403.75 949.231 1388.1 898.414 1388.1 898.414L1241.44 946.996Z" fill="white" stroke="#263238" stroke-linecap="round" stroke-linejoin="round"/>
<path d="M1409.75 977.59L1392.57 996.901L1426.92 1071.91L1394.71 1089.08" stroke="#263238" stroke-linecap="round" stroke-linejoin="round"/>
<path d="M1357.1 1028.71C1359.74 1035.32 1358.83 1041.82 1355.17 1043.24C1351.51 1044.67 1346.53 1040.5 1343.89 1034C1341.25 1027.49 1342.16 1020.89 1345.82 1019.46C1349.48 1018.04 1354.56 1022.21 1357.1 1028.71Z" fill="#263238"/>
<path d="M1413.91 1004.62C1416.56 1011.13 1415.74 1017.63 1412.08 1019.06C1408.43 1020.48 1403.34 1016.41 1400.7 1009.81C1398.06 1003.2 1398.97 996.799 1402.63 995.274C1406.29 993.75 1411.37 998.018 1413.91 1004.62Z" fill="#263238"/>
<path d="M1359.03 1115.2L1398.87 1119.47" stroke="#263238" stroke-linecap="round" stroke-linejoin="round"/>
<path d="M1357.61 1004.32H1307.91" stroke="#263238" stroke-linecap="round" stroke-linejoin="round"/>
<path d="M1239.31 1123.94C1234.63 1117.64 1214.1 1075.06 1193.57 1083.29C1173.04 1091.52 1182.59 1125.88 1199.87 1147.93C1217.15 1169.98 1252.01 1149.45 1252.01 1149.45" fill="white"/>
<path d="M1239.31 1123.94C1234.63 1117.64 1214.1 1075.06 1193.57 1083.29C1173.04 1091.52 1182.59 1125.88 1199.87 1147.93C1217.15 1169.98 1252.01 1149.45 1252.01 1149.45" stroke="#263238" stroke-linecap="round" stroke-linejoin="round"/>
<path d="M1017.44 1421.73C1017.44 1421.73 976.783 1442.06 963.774 1465.95C950.764 1489.83 949.646 1540.04 954.322 1560.57C958.997 1581.1 1168.87 1841.28 1168.87 1841.28L1257.19 1752.96L1153.12 1494.3" fill="#376DF9"/>
<path d="M1017.44 1421.73C1017.44 1421.73 976.783 1442.06 963.774 1465.95C950.764 1489.83 949.646 1540.04 954.322 1560.57C958.997 1581.1 1168.87 1841.28 1168.87 1841.28L1257.19 1752.96L1153.12 1494.3" stroke="#263238" stroke-linecap="round" stroke-linejoin="round"/>
<path d="M1266.65 1675.72C1266.65 1675.72 1203.53 1688.32 1187.78 1708.85C1172.02 1729.38 1132.59 1814.45 1132.59 1853.88C1132.59 1893.32 1224.06 1923.3 1260.34 1923.3C1296.63 1923.3 1347.04 1904.4 1353.34 1863.34C1359.64 1822.28 1333.01 1751.54 1324.98 1740.36C1316.95 1729.18 1266.65 1675.72 1266.65 1675.72Z" fill="#376DF9" stroke="#263238" stroke-linecap="round" stroke-linejoin="round"/>
<path d="M1343.79 1248.24L1358.02 1144.17L1425.81 1145.69C1425.81 1145.69 1433.73 1151.99 1427.43 1156.77C1421.13 1161.55 1384.85 1166.22 1384.85 1166.22L1383.22 1185.13L1432.11 1178.83C1437.63 1186.76 1442.39 1195.2 1446.34 1204.03C1447.96 1210.33 1435.36 1251.39 1435.36 1251.39L1422.65 1254.54L1417.98 1232.49L1395.93 1241.94C1395.93 1241.94 1391.15 1295.6 1386.37 1300.28C1377.32 1307.16 1367.85 1313.48 1358.02 1319.18C1358.02 1319.18 1340.64 1765.56 1340.64 1786.09C1340.64 1841.28 1307.5 1861.81 1269.49 1866.49C1231.48 1871.16 1209.53 1836.61 1204.85 1808.15C1200.18 1779.69 1343.79 1248.24 1343.79 1248.24Z" fill="white" stroke="#263238" stroke-linecap="round" stroke-linejoin="round"/>
<path d="M929.116 3560.54C929.116 3560.54 791.909 3674.06 777.68 3696.22C763.451 3718.37 799.735 3718.27 821.891 3711.97C844.048 3705.67 882.872 3699.37 910.212 3680.36C927.482 3668.03 943.822 3654.44 959.098 3639.71L960.623 3661.76C960.623 3661.76 985.93 3653.84 987.454 3649.16C988.979 3644.49 995.687 3593.97 995.687 3593.97L929.116 3560.54Z" fill="#376DF9" stroke="#263238" stroke-linecap="round" stroke-linejoin="round"/>
<path d="M1697.27 3560.54C1697.27 3560.54 1834.48 3674.06 1848.61 3696.22C1862.73 3718.37 1826.55 3718.27 1804.5 3711.97C1782.44 3705.67 1743.01 3699.37 1716.18 3680.36C1698.88 3668.06 1682.54 3654.47 1667.29 3639.71L1665.66 3661.76C1665.66 3661.76 1640.46 3653.84 1638.83 3649.16C1637.21 3644.49 1630.7 3593.97 1630.7 3593.97L1697.27 3560.54Z" fill="#376DF9" stroke="#263238" stroke-linecap="round" stroke-linejoin="round"/>
<path d="M1685.28 3200.95C1683.75 3133.06 1635.07 3028.99 1635.07 3024.21C1635.07 3019.43 1565.05 2398.04 1565.05 2398.04L1520.83 2058.98L1310.04 2061.93L1099.15 2058.98L1055.04 2398.04C1055.04 2398.04 985.015 3019.54 985.015 3024.21C985.015 3028.89 936.231 3133.06 934.198 3200.95C932.165 3268.85 916.92 3569.99 916.92 3569.99L996.093 3593.67C996.093 3593.67 1137.67 3107.86 1160.44 3014.35C1183.2 2920.85 1227.41 2694.2 1244.18 2609.03C1260.95 2523.86 1306.59 2386.66 1306.59 2386.66L1310.45 2385.74L1314.21 2386.66C1314.21 2386.66 1359.95 2523.86 1376.61 2609.03C1393.28 2694.2 1437.6 2921.36 1460.36 3014.35C1483.13 3107.35 1624.81 3593.67 1624.81 3593.67L1703.98 3569.99C1703.98 3569.99 1686.8 3268.74 1685.28 3200.95Z" fill="#263238" stroke="#263238" stroke-linecap="round" stroke-linejoin="round"/>
<path d="M1403.75 2261.24L1333.42 2353.83" stroke="white" stroke-linecap="round" stroke-linejoin="round"/>
<path d="M1144.58 2146.49L1252.01 2239.08" stroke="white" stroke-linecap="round" stroke-linejoin="round"/>
<path d="M1126.08 2172.41L1203.84 2224.24" stroke="white" stroke-linecap="round" stroke-linejoin="round"/>
<path d="M1344.5 2087.24L1303.74 2187.25L1340.84 2216.82L1322.34 2276.08" stroke="white" stroke-linecap="round" stroke-linejoin="round"/>
<path d="M1681.42 1972.19C1681.42 1972.19 1713.03 1921.37 1705.1 1888.64C1697.17 1855.92 1648.39 1828.68 1610.48 1841.28C1572.57 1853.89 1571.04 1904.4 1571.04 1934.38C1571.04 1964.36 1556.81 2095.27 1556.81 2095.27L1501.62 2189.89L1544.21 2238.78C1544.21 2238.78 1588.42 2155.13 1621.55 2099.94C1644.85 2059.01 1664.87 2016.29 1681.42 1972.19Z" fill="white" stroke="#263238" stroke-linecap="round" stroke-linejoin="round"/>
<path d="M1550.51 2112.54L1486.07 2145.68L1441.97 2208.79L1449.79 2216.72C1460.38 2209.62 1471.45 2203.27 1482.92 2197.71C1497.15 2191.41 1522.36 2181.96 1522.36 2181.96" fill="white"/>
<path d="M1550.51 2112.54L1486.07 2145.68L1441.97 2208.79L1449.79 2216.72C1460.38 2209.62 1471.45 2203.27 1482.92 2197.71C1497.15 2191.41 1522.36 2181.96 1522.36 2181.96" stroke="#263238" stroke-linecap="round" stroke-linejoin="round"/>
</svg>
