<svg width="1455" height="350" viewBox="0 0 1455 350" fill="none" xmlns="http://www.w3.org/2000/svg">
<path d="M65.6056 319.659C65.6056 336.416 52.0386 350 35.3028 350C18.567 350 5 336.416 5 319.659C5 302.903 18.567 289.319 35.3028 289.319C52.0386 289.319 65.6056 302.903 65.6056 319.659Z" fill="#FF60A6"/>
<path d="M72.1536 264.345L0 277.304C0 238.567 12.8563 190.921 35.045 166.363C57.4887 141.551 85.1608 129.145 118.061 129.145C132.599 129.145 145.478 131.676 156.7 136.74C167.922 141.551 178.634 147.121 188.835 153.45C199.037 159.78 209.494 165.476 220.206 170.54C231.172 175.351 243.542 177.756 257.314 177.756C271.852 177.756 284.094 172.186 294.04 161.046C304.242 149.652 309.343 135.981 309.343 120.03L380 107.091C380 146.588 366.982 196.998 344.539 220.291C322.35 243.584 294.806 255.23 261.905 255.23C244.307 255.23 229.77 252.825 218.293 248.014C206.816 242.951 196.614 237.254 187.688 230.924C178.761 224.595 169.325 219.025 159.378 214.214C149.431 209.151 137.189 206.619 122.652 206.619C108.115 206.619 96.0001 212.315 86.3085 223.709C76.8719 234.849 72.1536 248.394 72.1536 264.345Z" fill="url(#paint0_linear_1017_107)"/>
<path d="M374.606 64.3407C374.606 81.0974 361.039 94.6813 344.303 94.6813C327.567 94.6813 314 81.0974 314 64.3407C314 47.584 327.567 34 344.303 34C361.039 34 374.606 47.584 374.606 64.3407Z" fill="#2824D5"/>
<path d="M540.45 269H484.8V149.3C484.8 123.867 491.333 106.017 504.4 95.75C517.7 85.4833 539.983 80.35 571.25 80.35C602.517 80.35 624.683 85.4833 637.75 95.75C651.05 106.017 657.7 123.867 657.7 149.3V269H602.05V153.5C602.05 143 600.067 135.767 596.1 131.8C592.367 127.6 584.083 125.5 571.25 125.5C558.417 125.5 550.017 127.6 546.05 131.8C542.317 135.767 540.45 143 540.45 153.5V269ZM739.195 138.8C739.195 142.767 740.362 145.567 742.695 147.2C745.262 148.833 750.512 150 758.445 150.7L790.645 153.5C811.179 155.367 825.645 160.967 834.045 170.3C842.445 179.4 846.645 191.767 846.645 207.4V213.35C846.645 232.717 840.229 246.95 827.395 256.05C814.562 265.15 794.379 269.7 766.845 269.7C724.845 269.7 697.429 269.467 684.595 269L692.295 225.95C723.562 226.417 748.995 226.65 768.595 226.65C778.395 226.65 784.929 225.833 788.195 224.2C791.695 222.567 793.445 219.183 793.445 214.05C793.445 209.85 792.162 206.817 789.595 204.95C787.262 203.083 782.129 201.917 774.195 201.45L739.895 199C721.462 197.6 707.929 192.233 699.295 182.9C690.662 173.567 686.345 161.317 686.345 146.15V139.5C686.345 121.533 692.412 108 704.545 98.9C716.912 89.8 737.095 85.25 765.095 85.25C799.162 85.25 825.179 85.4833 843.145 85.95L835.095 129C816.195 128.533 791.695 128.3 761.595 128.3C752.729 128.3 746.779 129 743.745 130.4C740.712 131.567 739.195 134.367 739.195 138.8ZM962.274 225.25H995.874V160.15C995.874 145.45 993.541 135.767 988.874 131.1C984.207 126.433 975.224 124.1 961.924 124.1C948.391 124.1 939.407 126.783 934.974 132.15C930.774 137.517 928.674 148.717 928.674 165.75V182.55C928.674 200.283 930.774 211.833 934.974 217.2C939.407 222.567 948.507 225.25 962.274 225.25ZM1011.62 269H961.224C927.39 269 904.057 262.817 891.224 250.45C878.624 237.85 872.324 215.567 872.324 183.6V167.5C872.324 136.233 878.624 113.95 891.224 100.65C904.057 87.1167 924.474 80.35 952.474 80.35C972.307 80.35 986.774 83.85 995.874 90.85V8.94999H1051.52V232.95C1051.52 246.483 1048.49 255.933 1042.42 261.3C1036.59 266.433 1026.32 269 1011.62 269ZM1220.1 196.2H1137.5C1137.96 208.1 1140.53 216.033 1145.2 220C1149.86 223.967 1158.96 225.95 1172.5 225.95C1199.56 225.95 1222.31 225.833 1240.75 225.6L1232.7 269C1222.2 269.467 1200.38 269.7 1167.25 269.7C1135.28 269.7 1113 263.167 1100.4 250.1C1088.03 237.033 1081.85 215.917 1081.85 186.75V167.5C1081.85 137.4 1088.38 115.35 1101.45 101.35C1114.75 87.35 1137.26 80.35 1169 80.35C1223.6 80.35 1250.9 103.567 1250.9 150V157.35C1250.9 172.517 1248.68 182.783 1244.25 188.15C1240.05 193.517 1232 196.2 1220.1 196.2ZM1192.1 128.65C1188.13 123.75 1179.96 121.3 1167.6 121.3C1155.23 121.3 1147.06 123.75 1143.1 128.65C1139.36 133.317 1137.5 143 1137.5 157.7H1198.05C1198.05 143 1196.06 133.317 1192.1 128.65ZM1259.67 85.95H1320.57L1356.97 213L1394.42 85.95H1451.82L1388.47 269H1323.72L1259.67 85.95Z" fill="white"/>
<defs>
<linearGradient id="paint0_linear_1017_107" x1="190" y1="34" x2="190" y2="350" gradientUnits="userSpaceOnUse">
<stop stop-color="#2824D5"/>
<stop offset="0.208333" stop-color="#3522D0"/>
<stop offset="1" stop-color="#FF0088"/>
</linearGradient>
</defs>
</svg>
