<svg width="2762" height="745" viewBox="0 0 2762 745" fill="none" xmlns="http://www.w3.org/2000/svg">
<path d="M159.81 742.789H0.956023V401.103C0.956023 328.503 19.6056 277.549 56.9047 248.243C94.8699 218.936 158.478 204.283 247.73 204.283C336.981 204.283 400.257 218.936 437.556 248.243C475.521 277.549 494.503 328.503 494.503 401.103V742.789H335.649V413.092C335.649 383.119 329.988 362.471 318.665 351.148C308.008 339.159 284.363 333.165 247.73 333.165C211.097 333.165 187.119 339.159 175.796 351.148C165.139 362.471 159.81 383.119 159.81 413.092V742.789ZM727.134 371.13C727.134 382.453 730.464 390.446 737.125 395.108C744.451 399.771 759.438 403.101 782.083 405.099L873.999 413.092C932.612 418.42 973.908 434.405 997.886 461.048C1021.86 487.024 1033.85 522.325 1033.85 566.951V583.935C1033.85 639.218 1015.54 679.847 978.903 705.823C942.27 731.799 884.656 744.787 806.061 744.787C686.171 744.787 607.91 744.121 571.277 742.789L593.257 619.902C682.508 621.234 755.108 621.9 811.057 621.9C839.031 621.9 857.681 619.569 867.006 614.907C876.996 610.244 881.992 600.586 881.992 585.933C881.992 573.944 878.329 565.285 871.002 559.957C864.341 554.629 849.688 551.298 827.042 549.966L729.132 542.973C676.514 538.976 637.882 523.657 613.238 497.015C588.594 470.372 576.272 435.405 576.272 392.111V373.128C576.272 321.842 593.59 283.211 628.225 257.235C663.526 231.258 721.139 218.27 801.066 218.27C898.31 218.27 972.575 218.936 1023.86 220.268L1000.88 343.156C946.932 341.824 876.996 341.158 791.075 341.158C765.765 341.158 748.781 343.156 740.122 347.152C731.463 350.482 727.134 358.475 727.134 371.13ZM1363.92 617.904H1459.83V432.074C1459.83 390.113 1453.17 362.471 1439.85 349.15C1426.53 335.829 1400.88 329.169 1362.92 329.169C1324.29 329.169 1298.64 336.828 1285.99 352.148C1274 367.467 1268 399.437 1268 448.06V496.016C1268 546.636 1274 579.606 1285.99 594.925C1298.64 610.244 1324.62 617.904 1363.92 617.904ZM1504.79 742.789H1360.92C1264.34 742.789 1197.74 725.139 1161.1 689.838C1125.14 653.871 1107.15 590.263 1107.15 499.013V453.055C1107.15 363.803 1125.14 300.195 1161.1 262.23C1197.74 223.599 1256.02 204.283 1335.94 204.283C1392.56 204.283 1433.85 214.274 1459.83 234.256V0.470012H1618.68V639.884C1618.68 678.515 1610.02 705.49 1592.71 720.809C1576.06 735.463 1546.75 742.789 1504.79 742.789ZM2099.88 534.98H1864.09C1865.42 568.949 1872.75 591.595 1886.07 602.918C1899.39 614.241 1925.37 619.902 1964 619.902C2041.26 619.902 2106.2 619.569 2158.82 618.903L2135.84 742.789C2105.87 744.121 2043.59 744.787 1949.01 744.787C1857.76 744.787 1794.16 726.138 1758.19 688.839C1722.89 651.54 1705.24 591.262 1705.24 508.005V453.055C1705.24 367.134 1723.89 304.191 1761.19 264.228C1799.15 224.265 1863.43 204.283 1954.01 204.283C2109.87 204.283 2187.79 270.556 2187.79 403.101V424.082C2187.79 467.375 2181.47 496.682 2168.81 512.001C2156.82 527.32 2133.84 534.98 2099.88 534.98ZM2019.95 342.157C2008.63 328.17 1985.31 321.176 1950.01 321.176C1914.71 321.176 1891.4 328.17 1880.08 342.157C1869.42 355.478 1864.09 383.119 1864.09 425.081H2036.93C2036.93 383.119 2031.27 355.478 2019.95 342.157ZM2212.83 220.268H2386.67L2490.58 582.936L2597.48 220.268H2761.33L2580.5 742.789H2395.67L2212.83 220.268Z" fill="white"/>
</svg>
